<?xml version="1.0" encoding="utf-8"?>
<!-- Generator: Adobe Illustrator 17.0.0, SVG Export Plug-In . SVG Version: 6.00 Build 0)  -->
<!DOCTYPE svg PUBLIC "-//W3C//DTD SVG 1.1//EN" "http://www.w3.org/Graphics/SVG/1.1/DTD/svg11.dtd">
<svg version="1.1" id="Layer_1" xmlns="http://www.w3.org/2000/svg" xmlns:xlink="http://www.w3.org/1999/xlink" x="0px" y="0px"
	 width="960px" height="560px" viewBox="0 0 960 560" enable-background="new 0 0 960 560" xml:space="preserve">
<g id="BACKGROUND" transform="translate(1329.585 457.719)">
	<path id="Path_3552" fill="none" stroke="#1E82C6" d="M-880.621-227.714"/>
</g>
<g id="Group_2801" transform="translate(295.884 178.887)">
	<g id="Group_2794" transform="translate(151.802 272.302)">
		<path id="Path_3401" fill="none" stroke="#1E82C6" d="M453.998-245.171c0,0,0.98,4.264,2.454,4.112
			c1.473-0.152-0.931-4.653-0.931-4.653L453.998-245.171z"/>
	</g>
	<g id="Group_2795" transform="translate(115.798 226.754)">
		<path id="Path_3402" fill="none" stroke="#1E82C6" d="M492.541-209.208l-10.166,3.523c0,0,7.406,8.066,9.164,7.453
			C493.297-198.846,492.541-209.208,492.541-209.208z"/>
	</g>
	<g id="Group_2796" transform="translate(57.02 111.124)">
		<path id="Path_3403" fill="none" stroke="#1E82C6" d="M540.814-117.353l-11,3.296c0,0,4.082,9.896,7.456,16.826
			c2.882,5.917,3.881,7.175,3.881,7.175l10.166-3.523c0,0-5.165-11.947-7.154-16.889
			C542.175-115.409,540.814-117.353,540.814-117.353z"/>
	</g>
	<g id="Group_2797" transform="translate(96.002 123.067)">
		<path id="Path_3404" fill="none" stroke="#1E82C6" d="M507.722-107.546c0.436,0.027,0.814-0.264,0.844-0.651
			c0.008-0.098-0.008-0.196-0.045-0.289l-7.352-18.045c-0.149-0.365-0.602-0.554-1.013-0.422s-0.623,0.535-0.475,0.9l7.352,18.045
			C507.14-107.746,507.41-107.565,507.722-107.546z"/>
	</g>
	<g id="Group_2798" transform="translate(148.194 239.002)">
		<path id="Path_3405" fill="none" stroke="#1E82C6" d="M458.225-212.797c0.027,0.002,0.054,0.002,0.081,0.001
			c0.437-0.012,0.779-0.337,0.766-0.725l-0.176-4.932c-0.014-0.388-0.379-0.692-0.816-0.68c-0.437,0.012-0.78,0.337-0.766,0.725
			l0.176,4.932C457.503-213.116,457.82-212.823,458.225-212.797z"/>
	</g>
	<g id="Group_2799" transform="translate(0)">
		<path id="Path_3406" fill="none" stroke="#1E82C6" d="M597.834-6.229c0,0-8.431-16.361-10.461-19.956s-7.566-4.741-10.829-0.711
			c-3.174,3.921,3.446,11.632,6.618,22.794c1.039,3.658-1.764,3.856-1.724,4.858c0.036,0.904,2.935,0.624,3.467-2.759
			c0.687-4.368-7.379-19.398-6.659-19.492c0.622-0.081,8.589,18.561,8.589,18.561L597.834-6.229z"/>
	</g>
	<g id="Group_2800" transform="translate(28.251 8.531)">
		<path id="Path_3407" fill="none" stroke="#1E82C6" d="M564.825-17.488c0.436,0.026,0.814-0.266,0.844-0.654
			c0.009-0.112-0.013-0.225-0.064-0.328c-0.058-0.119-5.846-11.912-7.001-14.235c-1.279-2.575-3.408-3.399-3.498-3.433
			c-0.402-0.151-0.867,0.016-1.037,0.373c-0.17,0.357,0.018,0.77,0.42,0.921l0,0c0.062,0.024,1.654,0.667,2.667,2.706
			c1.154,2.321,6.939,14.111,6.998,14.229C564.272-17.668,564.53-17.506,564.825-17.488z"/>
	</g>
</g>
<g id="Group_2820" transform="translate(65.598 136.379)">
	<g id="Group_2802" transform="translate(225.686)">
		<path id="Path_3408" fill="none" stroke="#1E82C6" d="M452.127,356.472l-5.59-6.573l-3.935,0.295l6.072,6.464L452.127,356.472z"/>
	</g>
	<g id="Group_2803" transform="translate(27.87 23.107)">
		<path id="Path_3409" fill="none" stroke="#1E82C6" d="M573.245,388.511l3.093,0.211c0,0,30.467-21.144,47.43-34.483
			s26.182-20.874,26.182-20.874l-3.458,0.186l-50.672,34.122L573.245,388.511z"/>
	</g>
	<g id="Group_2804" transform="translate(0 1.97)">
		<path id="Path_3410" fill="none" stroke="#1E82C6" d="M601.116,409.648c0,0,25.352-17.975,40.678-29.174
			c15.326-11.199,32.569-25.785,32.569-25.785l-6.07-6.464c0,0-38.681,27.901-52.273,36.686
			c-13.593,8.785-22.961,16.167-22.961,16.167L601.116,409.648z"/>
	</g>
	<g id="Group_2805" transform="translate(10.375 206.055)">
		<path id="Path_3411" fill="none" stroke="#1E82C6" d="M590.692,199.86c0.36,0.022,0.673-0.212,0.698-0.521
			c0.012-0.152-0.048-0.302-0.167-0.415l-4.018-3.815c-0.237-0.234-0.65-0.258-0.922-0.054c-0.272,0.204-0.301,0.558-0.063,0.792
			c0.005,0.005,0.011,0.01,0.016,0.015l4.018,3.815C590.368,199.783,590.524,199.849,590.692,199.86z"/>
	</g>
	<g id="Group_2806" transform="translate(26.236 190.61)">
		<path id="Path_3412" fill="none" stroke="#1E82C6" d="M578.21,209.766c0.17,0.011,0.338-0.037,0.468-0.132
			c0.275-0.201,0.309-0.555,0.076-0.791l-2.098-2.123c-0.234-0.236-0.646-0.266-0.921-0.065c-0.275,0.201-0.309,0.555-0.076,0.791
			l0,0l2.098,2.123C577.872,209.683,578.035,209.754,578.21,209.766z"/>
	</g>
	<g id="Group_2807" transform="translate(38.47 179.122)">
		<path id="Path_3413" fill="none" stroke="#1E82C6" d="M572.072,220.966c0.36,0.021,0.672-0.212,0.698-0.521
			c0.011-0.135-0.035-0.268-0.13-0.376l-4.117-4.691c-0.217-0.248-0.627-0.297-0.915-0.111c-0.288,0.187-0.346,0.538-0.129,0.786
			l4.117,4.691C571.71,220.873,571.884,220.954,572.072,220.966z"/>
	</g>
	<g id="Group_2808" transform="translate(54.304 164.708)">
		<path id="Path_3414" fill="none" stroke="#1E82C6" d="M559.946,229.861c0.36,0.022,0.673-0.212,0.698-0.521
			c0.011-0.141-0.039-0.28-0.142-0.39l-2.557-2.745c-0.222-0.244-0.633-0.287-0.917-0.096c-0.284,0.191-0.335,0.544-0.112,0.788
			c0.003,0.003,0.006,0.006,0.009,0.01l2.557,2.745C559.594,229.775,559.763,229.851,559.946,229.861z"/>
	</g>
	<g id="Group_2809" transform="translate(69.506 151.324)">
		<path id="Path_3415" fill="none" stroke="#1E82C6" d="M550.513,241.069c0.36,0.022,0.672-0.21,0.698-0.519
			c0.011-0.132-0.032-0.263-0.123-0.37l-3.28-3.876c-0.214-0.249-0.623-0.302-0.913-0.118c-0.287,0.182-0.351,0.529-0.143,0.778
			l3.279,3.876C550.144,240.974,550.32,241.058,550.513,241.069z"/>
	</g>
	<g id="Group_2810" transform="translate(83.636 138.647)">
		<path id="Path_3416" fill="none" stroke="#1E82C6" d="M540.2,249.681c0.36,0.022,0.672-0.21,0.698-0.519
			c0.011-0.129-0.031-0.257-0.117-0.363l-2.399-2.949c-0.207-0.254-0.614-0.316-0.91-0.138c-0.296,0.178-0.368,0.527-0.161,0.781
			l0,0l2.4,2.951C539.825,249.581,540.004,249.668,540.2,249.681z"/>
	</g>
	<g id="Group_2811" transform="translate(96.935 126.422)">
		<path id="Path_3417" fill="none" stroke="#1E82C6" d="M533.197,260.224c0.36,0.021,0.672-0.212,0.697-0.521
			c0.012-0.146-0.044-0.291-0.154-0.403l-4.27-4.299c-0.234-0.236-0.647-0.264-0.921-0.063c-0.275,0.201-0.308,0.555-0.073,0.791
			l4.27,4.3C532.86,260.143,533.022,260.213,533.197,260.224z"/>
	</g>
	<g id="Group_2812" transform="translate(111.132 113.234)">
		<path id="Path_3418" fill="none" stroke="#1E82C6" d="M522.382,268.787c0.36,0.022,0.672-0.211,0.698-0.52
			c0.012-0.147-0.043-0.292-0.155-0.404l-2.924-2.948c-0.234-0.236-0.646-0.265-0.921-0.064s-0.308,0.555-0.074,0.791l2.924,2.948
			C522.043,268.706,522.207,268.777,522.382,268.787z"/>
	</g>
	<g id="Group_2813" transform="translate(125.895 99.373)">
		<path id="Path_3419" fill="none" stroke="#1E82C6" d="M513.921,280.895c0.36,0.021,0.672-0.212,0.697-0.521
			c0.011-0.14-0.039-0.278-0.141-0.388l-4.306-4.641c-0.23-0.239-0.642-0.272-0.92-0.074c-0.27,0.192-0.315,0.534-0.102,0.773
			l4.306,4.641C513.571,280.807,513.739,280.883,513.921,280.895z"/>
	</g>
	<g id="Group_2814" transform="translate(142.112 84.054)">
		<path id="Path_3420" fill="none" stroke="#1E82C6" d="M501.434,290.417c0.36,0.022,0.672-0.211,0.698-0.52
			c0.012-0.147-0.044-0.292-0.155-0.404l-2.63-2.651c-0.234-0.236-0.647-0.264-0.921-0.063c-0.275,0.201-0.307,0.555-0.073,0.791
			l2.63,2.651C501.097,290.336,501.259,290.406,501.434,290.417z"/>
	</g>
	<g id="Group_2815" transform="translate(156.551 70.355)">
		<path id="Path_3421" fill="none" stroke="#1E82C6" d="M492.841,302.044c0.36,0.022,0.672-0.212,0.697-0.521
			c0.011-0.139-0.038-0.277-0.139-0.386l-3.662-3.986c-0.233-0.237-0.645-0.266-0.921-0.066c-0.262,0.19-0.308,0.522-0.105,0.76
			l3.661,3.986C492.488,301.954,492.657,302.032,492.841,302.044z"/>
	</g>
	<g id="Group_2816" transform="translate(171.141 56.363)">
		<path id="Path_3422" fill="none" stroke="#1E82C6" d="M481.155,310.43c0.36,0.021,0.672-0.212,0.697-0.521
			c0.011-0.138-0.038-0.275-0.137-0.384l-1.695-1.861c-0.222-0.244-0.633-0.288-0.918-0.097c-0.285,0.191-0.335,0.544-0.113,0.788
			l1.695,1.861C480.799,310.341,480.97,310.419,481.155,310.43z"/>
	</g>
	<g id="Group_2817" transform="translate(186.36 41.753)">
		<path id="Path_3423" fill="none" stroke="#1E82C6" d="M472.225,322.864c0.36,0.021,0.672-0.213,0.697-0.522
			c0.011-0.134-0.035-0.267-0.129-0.375l-2.904-3.323c-0.217-0.248-0.626-0.298-0.915-0.112c-0.289,0.186-0.347,0.538-0.13,0.786
			l2.904,3.323C471.859,322.773,472.035,322.855,472.225,322.864z"/>
	</g>
	<g id="Group_2818" transform="translate(201.978 26.533)">
		<path id="Path_3424" fill="none" stroke="#1E82C6" d="M461.028,333.096c0.36,0.022,0.672-0.211,0.698-0.52
			c0.012-0.147-0.044-0.292-0.155-0.404l-2.11-2.127c-0.234-0.236-0.647-0.264-0.921-0.063c-0.275,0.201-0.308,0.555-0.073,0.791
			l0,0l2.11,2.127C460.69,333.016,460.853,333.087,461.028,333.096z"/>
	</g>
	<g id="Group_2819" transform="translate(216.819 11.796)">
		<path id="Path_3425" fill="none" stroke="#1E82C6" d="M452.206,345.203c0.36,0.022,0.673-0.211,0.698-0.52
			c0.012-0.147-0.044-0.293-0.156-0.405l-3.165-3.175c-0.235-0.236-0.648-0.263-0.922-0.061c-0.274,0.202-0.306,0.556-0.071,0.792
			l3.166,3.175C451.87,345.122,452.032,345.192,452.206,345.203z"/>
	</g>
</g>
<g id="Group_2828" transform="translate(185.329 295.321)">
	<g id="Group_2821">
		<path id="Path_3426" fill="none" stroke="#1E82C6" d="M-149.754,130.922c-6.086-13.097-2.229-21.61,4.007-24.196
			c6.236-2.587,11.301-3.292,15.101-0.289c2.782,2.199,2.331,4.095,8.025,2.076c5.694-2.019,14.79-1.557,20.52,8.522
			c5.73,10.079,6.431,26.385-10.355,29.572C-129.243,149.794-143.663,144.02-149.754,130.922z M-132.28,111.324
			c-4.888-2.613-7.888-0.095-7.72,2.536c0.105,1.643,0.103,3.978,5.67,4.19C-128.763,118.262-127.39,113.936-132.28,111.324
			L-132.28,111.324z"/>
	</g>
	<g id="Group_2822" transform="translate(13.754 53.058)">
		<path id="Path_3427" fill="none" stroke="#1E82C6" d="M-156.372,67.061c-1.343-0.096,0.507-1.885-2.457-1.846
			s-5.069,4.697-2.816,5.768c2.252,1.071,2.282,1.3,2.321,3.254c0.039,1.954,0.795,2.577,3.181,1.576
			c2.386-1.001,3.037,2.727,4.644,0.349s3.369-5.915,0.956-6.028C-152.957,70.021-152.844,67.311-156.372,67.061z"/>
	</g>
	<g id="Group_2823" transform="translate(36.466 105.741)">
		<path id="Path_3428" fill="none" stroke="#1E82C6" d="M-173.554,27.486c-2.341-1.073-2.887,0.533-4.836,1.684
			s-0.426,2.714,1.451,3.634c1.877,0.92,2.016-0.835,4.262-0.081c2.245,0.754,3,1.326,4.454,0.208
			c1.454-1.118,1.754-3.83-0.115-4.431C-170.208,27.9-170.552,28.861-173.554,27.486z"/>
	</g>
	<g id="Group_2824" transform="translate(81.44 111.423)">
		<path id="Path_3429" fill="none" stroke="#1E82C6" d="M-203.237,25.174c-2.024-0.651-6.079-0.839-6.885,1.406
			c-0.806,2.245,0.158,3.658,2.579,4.09c2.421,0.432,0.609,2.058,3.023,2.171s3.158,0.258,4.416-1.358
			c1.258-1.616,2.757-0.913,3.455-2.565c0.698-1.652,1.243-2.141-0.079-3.071c-1.323-0.93-2.091-1.997-3.376-1.511
			C-201.391,24.821-200.432,26.075-203.237,25.174z"/>
	</g>
	<g id="Group_2825" transform="translate(133.468 95.612)">
		<path id="Path_3430" fill="none" stroke="#1E82C6" d="M-243.287,38.208c-1.45-0.991-3.475,1.818-1.96,3.062
			s2.302,2.981,2.153,4.417c-0.149,1.436,2.269,1.708,3.706-0.071s1.61-2.26,1.925-4.337c0.316-2.077,1.73-4.773-0.121-4.676
			C-239.435,36.701-239.89,40.532-243.287,38.208z"/>
	</g>
	<g id="Group_2826" transform="translate(124.875 51.151)">
		<path id="Path_3431" fill="none" stroke="#1E82C6" d="M-237.494,73.011c-3.542,1.275-0.466,5.325,1.943,5.328
			c2.409,0.002,2.074,1.345,4.262-0.082c2.188-1.427,3.504-0.714,4.201-2.45c0.697-1.736,1.701-4.779-1.248-4.723
			s-4.511-0.55-4.047-1.674s-1.37-0.452-2.449,0.843C-235.911,71.546-234.691,72.002-237.494,73.011z"/>
	</g>
	<g id="Group_2827" transform="translate(100.696 24.955)">
		<path id="Path_3432" fill="none" stroke="#1E82C6" d="M-219.372,88.873c-3.69-0.033-2.501,3.686,0.842,3.924
			c3.343,0.238,0.404,3.761,3.458,2.367c3.054-1.394,3.432-1.136,3.566-3.102s-2.053-2.402-2.053-2.402s-1.249-0.931-1.705-1.878
			C-215.718,86.835-217.338,88.89-219.372,88.873z"/>
	</g>
</g>
<g id="Group_2832" transform="translate(160.633 264.88)">
	<g id="Group_2829" transform="translate(0)">
		<path id="Path_3433" fill="none" stroke="#1E82C6" d="M-66.707,142.592l-24.395,32.351l-5.505-3.212l-0.491-1.615
			c0,0,21.149-28.539,23.608-30.903c2.459-2.365,5.015-1.097,6.194,0.001C-66.121,140.308-66.13,141.825-66.707,142.592z"/>
	</g>
	<g id="Group_2830" transform="translate(30.63 134.8)">
		<path id="Ellipse_41" fill="none" stroke="#1E82C6" d="M-121.853,35.395c1.582,1.413,1.531,3.659-0.114,5.018
			s-4.261,1.315-5.843-0.098c-1.582-1.413-1.531-3.659,0.114-5.018S-123.434,33.983-121.853,35.395z"/>
	</g>
	<g id="Group_2831" transform="translate(15.712 11.387)">
		<path id="Path_3434" fill="none" stroke="#1E82C6" d="M-102.193,151.209c-0.026,0.373,0.305,0.692,0.739,0.715
			c0.273,0.014,0.535-0.095,0.692-0.288l16.23-19.964c0.243-0.31,0.147-0.73-0.214-0.939c-0.352-0.204-0.829-0.131-1.078,0.165
			l-16.23,19.965C-102.133,150.967-102.181,151.086-102.193,151.209z"/>
	</g>
</g>
<g id="Group_2856" transform="translate(367.935 83.74)">
	<g id="Group_2833" transform="translate(45.466 106.98)">
		<path id="Path_3435" fill="none" stroke="#1E82C6" d="M348.883-151.366l6.085,3.724l-2.174,2.562l-6.581-2.189L348.883-151.366z"
			/>
	</g>
	<g id="Group_2834" transform="translate(11.851 80.09)">
		<path id="Path_3436" fill="none" stroke="#1E82C6" d="M388.351-130.487c0,0-3.257,2.952-7.617,9.677
			c-4.36,6.725-4.887,7.895-4.887,7.895s-10.524-7.122-4.526-14.544C377.318-134.881,388.351-130.487,388.351-130.487z"/>
	</g>
	<g id="Group_2835" transform="translate(29.38 87.73)">
		<path id="Path_3437" fill="none" stroke="#1E82C6" d="M365.58-136.429c0.006-0.01,0.01-0.021,0.015-0.032
			c0.127-0.29-0.041-0.615-0.378-0.727c-0.101-0.033-1.048-0.323-3.088-0.132c-2.141,0.202-4.023,1.755-4.102,1.82
			c-0.258,0.223-0.257,0.584,0.002,0.806c0.253,0.216,0.661,0.222,0.921,0.012c0.017-0.013,1.64-1.347,3.324-1.506
			c1.706-0.161,2.469,0.062,2.477,0.064C365.077-136.025,365.438-136.157,365.58-136.429z"/>
	</g>
	<g id="Group_2836" transform="translate(0 89.821)">
		<path id="Path_3438" fill="none" stroke="#1E82C6" d="M383.174-137.19c0,0-3.345-3.803-4.826-2.123s4.222,2.958,4.222,2.958
			L383.174-137.19z"/>
	</g>
	<g id="Group_2837" transform="translate(250.288 201.317)">
		<path id="Path_3439" fill="none" stroke="#1E82C6" d="M203.262-211.16c0,0,10.149,4.03,12.179,1.818
			c2.03-2.212-8.252-7.102-8.252-7.102L203.262-211.16z"/>
	</g>
	<g id="Group_2838" transform="translate(286.733 217.589)">
		<path id="Path_3440" fill="none" stroke="#1E82C6" d="M178.19-222.63c1.271,0.618,4.548-2.795,5.115-4.154
			c0.567-1.358-2.567-1.097-4.31,1.169C177.253-223.349,178.19-222.63,178.19-222.63z"/>
	</g>
	<g id="Group_2839" transform="translate(134.826 57.571)">
		<path id="Path_3441" fill="none" stroke="#1E82C6" d="M291.618-113.358l-0.239,6.414l-3.688-0.136l-1.523-5.916L291.618-113.358z"
			/>
	</g>
	<g id="Group_2840" transform="translate(105.119 22.516)">
		<path id="Path_3442" fill="none" stroke="#1E82C6" d="M330.395-77.447c0,0-4.667-0.695-13.6-0.086
			c-8.933,0.609-10.36,0.88-10.36,0.88s1.074-11.47,11.591-11.293C328.543-87.768,330.395-77.447,330.395-77.447z"/>
	</g>
	<g id="Group_2841" transform="translate(54.732 76.29)">
		<path id="Path_3443" fill="none" stroke="#1E82C6" d="M370.948-127.07c7.239,0.406,22.251,1.893,31.405,19.246
			c9.154,17.353-9.09,33.639-27.839,35.217c-18.749,1.578-37.155-11.258-35.5-33.608C340.668-128.564,370.948-127.07,370.948-127.07
			z"/>
	</g>
	<g id="Group_2842" transform="translate(80.711 95.915)">
		<path id="Path_3444" fill="none" stroke="#1E82C6" d="M347.154-141.268c6.554,0.341,21.337,5.185,24.035,18.691
			c2.458,12.298-4.979,21.927-20.942,24.76c-15.963,2.833-26.649-4.87-29.046-19.202S329.562-142.183,347.154-141.268z"/>
	</g>
	<g id="Group_2843" transform="translate(146.08 32.337)">
		<path id="Path_3445" fill="none" stroke="#1E82C6" d="M285.378-90.407c0.056-0.11,0.069-0.232,0.039-0.348
			c-0.024-0.091-0.268-0.929-1.584-2.281c-1.383-1.419-3.929-1.905-4.037-1.925c-0.359-0.064-0.709,0.134-0.783,0.442
			c-0.073,0.303,0.15,0.601,0.502,0.67c0.022,0.004,2.214,0.427,3.299,1.542c1.102,1.131,1.308,1.799,1.31,1.806
			c0.09,0.302,0.444,0.488,0.798,0.418C285.124-90.123,285.294-90.243,285.378-90.407z"/>
	</g>
	<g id="Group_2844" transform="translate(132.305 5.565)">
		<path id="Path_3446" fill="none" stroke="#1E82C6" d="M290.84-70.994c0,0,1.834-4.499-0.616-4.627
			c-2.449-0.128-0.529,4.658-0.529,4.658L290.84-70.994z"/>
	</g>
	<g id="Group_2845" transform="translate(7.182)">
		<path id="Path_3447" fill="none" stroke="#1E82C6" d="M414.743-68.764c0.148-0.288-0.004-0.623-0.339-0.75
			c-0.247-0.094-0.535-0.049-0.729,0.112c-0.064,0.05-1.682,1.323-5.161,1.095c-3.39-0.224-4.767-3.568-4.78-3.602
			c-0.111-0.277-0.448-0.436-0.779-0.369c-0.074,0.014-7.377,1.514-13.753,4.117c-5.262,2.196-10.137,5.018-14.481,8.384
			c-0.226,0.186-0.27,0.483-0.106,0.711c0.01,0.014,1.161,1.68,1.26,4.991c0.096,1.851-0.804,3.636-2.441,4.843
			c-0.295,0.186-0.359,0.542-0.142,0.796c0.217,0.253,0.631,0.308,0.926,0.122c1.994-1.423,3.098-3.565,2.982-5.79
			c-0.081-2.69-0.804-4.393-1.202-5.136c4.156-3.153,8.789-5.808,13.774-7.893c5.245-2.143,11.144-3.524,12.94-3.92
			c0.582,1.095,2.297,3.656,5.701,3.88c4.113,0.272,6.102-1.344,6.184-1.413C414.659-68.636,414.708-68.697,414.743-68.764z"/>
	</g>
	<g id="Group_2846" transform="translate(122.709 117.664)">
		<path id="Path_3448" fill="none" stroke="#1E82C6" d="M298.834-150.234c-1.53,0.901-7.289-6.271-5.246-7.457
			C295.63-158.877,300.365-151.136,298.834-150.234z"/>
	</g>
	<g id="Group_2847" transform="translate(104.226 200.089)">
		<path id="Path_3449" fill="none" stroke="#1E82C6" d="M303.903-214.155c-1.005-1.614,6.068-5.59,7.779-3.296
			C313.393-215.157,304.909-212.54,303.903-214.155z"/>
	</g>
	<g id="Group_2848" transform="translate(198.364 142.582)">
		<path id="Path_3450" fill="none" stroke="#1E82C6" d="M248.121-173.538c0.951,1.916-5.685,4.652-7.415,2.264
			C238.977-173.662,247.17-175.454,248.121-173.538z"/>
	</g>
	<g id="Group_2849" transform="translate(181.964 213.226)">
		<path id="Path_3451" fill="none" stroke="#1E82C6" d="M250.869-226.416c1.912-1.162,6.192,4.084,3.813,5.411
			C252.302-219.678,248.957-225.255,250.869-226.416z"/>
	</g>
	<g id="Group_2850" transform="translate(157.408 106.681)">
		<path id="Path_3452" fill="none" stroke="#1E82C6" d="M269.293-129.323l0.014-0.029l8.147-18.621
			c0.126-0.296-0.052-0.623-0.396-0.73c-0.34-0.106-0.716,0.04-0.846,0.33l-8.146,18.621c-0.13,0.294,0.043,0.623,0.385,0.734
			c0.33,0.107,0.7-0.027,0.842-0.304L269.293-129.323z"/>
	</g>
	<g id="Group_2851" transform="translate(106.248 159.676)">
		<path id="Path_3453" fill="none" stroke="#1E82C6" d="M303.479-187.094l15.023,5.233l0.397-2.016l-15.134-5.022L303.479-187.094z"
			/>
	</g>
	<g id="Group_2852" transform="translate(147.74 170.234)">
		<path id="Path_3454" fill="none" stroke="#1E82C6" d="M280.555-192.939c0.077,2.417-3.165,2.423-4.962,1.414
			c-1.797-1.009-0.899-3.353,1.599-3.992C279.689-196.155,280.511-194.303,280.555-192.939z"/>
	</g>
	<g id="Group_2853" transform="translate(166.777 85.853)">
		<path id="Path_3455" fill="none" stroke="#1E82C6" d="M276.727-128.877c0.118-0.232,0.044-0.502-0.181-0.665
			c-3.542-2.348-7.778-3.797-12.229-4.185c-0.365-0.026-0.685,0.208-0.715,0.521c-0.03,0.31,0.236,0.583,0.596,0.613
			c6.71,0.526,11.45,3.889,11.497,3.923c0.281,0.202,0.699,0.171,0.934-0.07C276.668-128.782,276.701-128.828,276.727-128.877z"/>
	</g>
	<g id="Group_2854" transform="translate(135.996 276.365)">
		<path id="Path_3456" fill="none" stroke="#1E82C6" d="M288.371-272.595c0,0-3.379,9.154-6.65,8.949
			c-3.271-0.205-0.542-10.022-0.542-10.022L288.371-272.595z"/>
	</g>
	<g id="Group_2855" transform="translate(128.47 313.306)">
		<path id="Path_3457" fill="none" stroke="#1E82C6" d="M292.357-299.086c-0.326,1.222-5.471,0.999-7.021,0.443
			c-1.55-0.556,0.788-2.368,3.911-1.945C292.37-300.165,292.357-299.086,292.357-299.086z"/>
	</g>
</g>
<g id="Group_2863" transform="translate(0 55.017)">
	<g id="Group_2857">
		<path id="Path_3458" fill="none" stroke="#1E82C6" d="M30.282,218.996c3.23,2.943,40.099,35.716,46.865,40.442
			c6.767,4.727,10.452,5.434,17.926-0.332c7.707-5.945,18.64-13.534,21.145-15.988c2.505-2.454,7.153-4.256-0.478-11.426
			c-8.285-7.785-38.548-37.551-42.469-41.279c-3.921-3.727-6.639-6.307-13.602-0.935c-6.963,5.371-23.982,17.737-27.999,20.383
			C27.654,212.508,27.45,216.415,30.282,218.996z"/>
	</g>
	<g id="Group_2858" transform="translate(19.489 24.102)">
		<path id="Path_3459" fill="none" stroke="#1E82C6" d="M41.404,169.802c2.552-2.081,4.904-4.582,8.598-0.99
			s16.617,17.23,26.818,27.358c10.201,10.127,13.409,13.009,15.939,15.484s2.915,1.873-3.268,6.582
			c-6.183,4.709-17.281,14.174-19.04,15.527c-1.759,1.354-5.066,2.198-7.364,0.13c-2.299-2.068-41.47-35.757-45.282-39.093
			s-3.554-5.545,2.402-9.909C26.868,180.007,38.23,172.39,41.404,169.802z"/>
	</g>
	<g id="Group_2859" transform="translate(257.37 80.961)">
		<path id="Path_3460" fill="none" stroke="#1E82C6" d="M-199.686,125.847c-0.119-1.39,0.949-1.314,3.187-1.04
			c2.238,0.274,9.123,0.902,10.62,1.355c1.497,0.454,2.35,2.128,0.489,3.361c-1.861,1.233-14.073,10.832-15.345,11.705
			c-1.272,0.873-2.905-0.14-3.402-1.391c-0.497-1.251,10.898-9.219,12.311-10.47c0.933-0.826-6.333-0.338-7.206-1.358
			C-199.553,127.388-199.786,126.621-199.686,125.847z"/>
	</g>
	<g id="Group_2860" transform="translate(165.929 72.987)">
		<path id="Path_3461" fill="none" stroke="#1E82C6" d="M-94.184,145.879c0.921-1.023,6.483-5.809,11.211-1.387
			c4.728,4.422-0.509,8.001-3.173,8.812c-2.663,0.811-10.544,1.252-11.302,1.808c-0.758,0.556,5.188,3.878,5.131,4.737
			s-2.93,2.347-3.75,2.301s-7.255-5.539-7.96-7.303c-0.705-1.764,2.107-3.855,3.248-3.824c1.142,0.032,14.46-0.289,13.931-3.056
			c-0.429-2.241-3.536-0.955-5.205,0.306C-93.084,149.048-94.184,145.879-94.184,145.879z"/>
	</g>
	<g id="Group_2861" transform="translate(84.416 61.757)">
		<path id="Path_3462" fill="none" stroke="#1E82C6" d="M2.705,166.441c-0.413,1.626-0.727,3.375,0.636,3.271
			s4.694-1.006,5.45,0.938c1.019,2.62-2.897,2.784-4.886,2.54S2.406,172,1.02,173.4s0.46,1.452,0.608,3.7
			c0.206,3.127-4.55,3.665-5.549,2.135c-1.499-2.297-0.349-3.336-0.337-4.117c0.012-0.78-3.068-2.186-3.623-1.388
			c-0.555,0.798-2.461,5.432,2.1,8.882c3.905,2.955,9.138,0.267,10.467-1.922s0.24-4.266,0.24-4.266s4.932-0.205,7.316-3.498
			c2.384-3.293-0.655-6.589-3.746-7.13C4.807,165.151,2.705,166.441,2.705,166.441z"/>
	</g>
	<g id="Group_2862" transform="translate(45.905 191.002)">
		<path id="Path_3463" fill="none" stroke="#1E82C6" d="M25.685,60.036c-0.584,1.237,6.619,7.066,8.078,6.811
			s2.207-2.544-1.702-5.73S26.207,58.934,25.685,60.036z"/>
	</g>
</g>
<g id="Group_2867" transform="translate(401.932 243.749)">
	<g id="Group_2864" transform="translate(52.92)">
		<path id="Path_3464" fill="none" stroke="#1E82C6" d="M180.245,223.066L180.245,223.066c-3.161,1.118-7.604,0.494-8.861-2.396
			c-2.679-6.162,4.608-8.719,4.608-8.719s3.807-11.958,6.704-19.921c2.005-5.509,4.408-12.802,6.875-18.193
			c0.129-0.276,0.493-0.41,0.815-0.3c0.267,0.092,0.427,0.328,0.388,0.573c-0.634,5.124-2.372,11.871-4.808,20.661
			c-3.911,14.109-5.733,17.645-5.733,17.645s4.329,0.603,4.645,5.174c0.102,1.475-1.087,3.568-1.087,3.568s0.295,2.834-1.655,4.729
			c-0.16,0.151-0.433,0.162-0.609,0.024c-0.051-0.04-0.09-0.09-0.114-0.145L180.245,223.066z M179.697,214.629
			c-4.295-1.23-6.277,1.529-6.125,3.6c0,0-0.265,3.436,4.325,3.215C182.846,221.204,183.114,215.608,179.697,214.629
			L179.697,214.629z"/>
	</g>
	<g id="Group_2865" transform="translate(0 38.117)">
		<path id="Path_3465" fill="none" stroke="#1E82C6" d="M207.999,169.234c1.348-6.186,8.722-5.405,10.643-3.77
			c0,0,8.608-4.543,15.018-8.27c6.41-3.728,26.646-13.028,24.469-10.063S232.67,162.65,232.67,162.65l-11.005,5.862
			c0,0,0.828,3.412-2.747,6.124C214.865,177.71,206.664,175.362,207.999,169.234z M215.327,173.558
			c3.082-0.663,4.008-2.998,2.736-5.332c-1.16-2.129-5.656-2.287-7.119,0.728C209.701,171.511,211.995,174.274,215.327,173.558z"/>
	</g>
	<g id="Group_2866" transform="translate(84.762 82.121)">
		<path id="Path_3466" fill="none" stroke="#1E82C6" d="M151.196,114.753c-1.262-0.897,0.34-2.235,1.307-1.294
			C153.309,114.244,151.889,115.246,151.196,114.753z"/>
	</g>
</g>
<g id="Group_2871" transform="translate(144.673 152.319)">
	<g id="Group_2868" transform="translate(222.085 54.313)">
		<path id="Path_3467" fill="none" stroke="#1E82C6" d="M9.528,315.666c2.197-2.065,21.073-15.691,28.169-19.588
			c6.083-3.34,8.403-2.146,8.569,3.223c0.165,5.368-2.646,25.045-3.624,29.692s-1.405,5.376-2.584,5.309s-6.036-1.659-8.874-3.111
			c-2.838-1.452-3.511-2.202-2.971-3.539c0.541-1.337,2.151-4.257,2.876-5.971c0.559-1.319,0.977-1.812,0.412-2.408
			c-0.565-0.596-4.266-2.345-4.859-2.704c-0.461-0.278-1.009-0.621-1.893,0.296c-1.755,1.817-4.413,4.322-5.271,5.154
			c-1.583,1.536-2.632,1.444-3.457,0.898c-0.826-0.546-4.257-2.705-5.401-3.425S7.333,317.731,9.528,315.666z M30.647,312.854
			l3.413,1.861c0.876,0.477,1.406-0.901,2.187-3.095c0.333-0.936,1.915-4.836,1.088-5.197c-1.164-0.506-5.463,3.738-6.62,4.547
			C29.552,311.781,29.93,312.464,30.647,312.854L30.647,312.854z"/>
	</g>
	<g id="Group_2869" transform="translate(120.963)">
		<path id="Path_3468" fill="none" stroke="#1E82C6" d="M83.742,346.928c1.743-0.954,3.683-1.609,5.715-1.931
			c0.268-0.039,0.449-0.257,0.404-0.487c-0.008-0.039-0.021-0.076-0.041-0.112c-0.629-1.144-1.748-4.124,0.658-8.112
			c3.113-5.157,9.414-5.533,15.957-4.503s9.009,1.59,9.009,1.59c1.525,0.269,2.132,0.749,1.395,3.224
			c-0.737,2.475-7.06,29.646-7.533,31.547c-0.474,1.902-1.415,1.611-4.937,1.237c-3.522-0.374-16.975-1.508-22.296-7.037
			C76.76,356.815,79.976,349.009,83.742,346.928z M105.152,339.591c0.053-0.216-0.094-0.43-0.339-0.495
			c-1.252-0.321-4.882-0.886-5.821,3.035c-0.583,2.435,2.975,3.109,4.286,3.273c0.262,0.033,0.508-0.115,0.562-0.337
			L105.152,339.591z M91.284,354.611c-1.139,4.12,6.53,5.452,8.538,5.728c0.263,0.037,0.514-0.112,0.566-0.337l1.509-6.305
			c0.051-0.209-0.087-0.419-0.321-0.49C99.748,352.657,92.368,350.703,91.284,354.611L91.284,354.611z"/>
	</g>
	<g id="Group_2870" transform="translate(0 3.142)">
		<path id="Path_3469" fill="none" stroke="#1E82C6" d="M172.263,341.667l-7.366,1.383c-0.385,0.074-0.773-0.109-0.908-0.427
			c-1.048-2.51-2.282-12.84,9.496-15.472c17.205-3.846,22.953,9.025,24.778,16.518c2.65,10.873-2.395,18.716-15.892,20.028
			c-13.013,1.264-16.509-7.447-17.101-10.06c-0.081-0.36,0.188-0.709,0.605-0.786l9.268-1.74c0.404-0.077,0.808,0.13,0.922,0.471
			c0.407,1.226,3.24,3.298,7.809,1.288c7.052-3.104,4.262-13.113-0.792-15.897c-5.054-2.783-8.211-0.388-9.144,1.063
			c-0.555,0.964-0.916,2.002-1.068,3.07C172.823,341.383,172.581,341.606,172.263,341.667z"/>
	</g>
</g>
<g id="Group_2878" transform="translate(311.299 119.471)">
	<g id="Group_2872" transform="translate(0 68.137)">
		<path id="Path_3470" fill="none" stroke="#1E82C6" d="M-175.598,307.462c-3.28-6.006-17.14-15.507-32.914-17.886
			s-24.071,13.691-24.645,24.799c-0.574,11.107,10.022,25.268,30.259,24.582s23.891-7.417,27.415-16.632
			C-171.959,313.109-175.598,307.462-175.598,307.462z"/>
	</g>
	<g id="Group_2873" transform="translate(128.306 119.526)">
		<path id="Path_3471" fill="none" stroke="#1E82C6" d="M-310.745,257.018c-1.47-3.732-6.719-4.618-8.718-3.215
			s-1.941,8.834,3.734,9.272C-310.055,263.512-310.745,257.018-310.745,257.018z"/>
	</g>
	<g id="Group_2874" transform="translate(108.022 61.83)">
		<path id="Path_3472" fill="none" stroke="#1E82C6" d="M-286.403,297.612l0.132-1.62c0,0-5.566-1.097-12.125,1.84
			c-6.559,2.938-7.477,6.026-7.477,6.026l1.595,0.647c0,0,2.962-4.848,9.706-5.966C-287.83,297.423-286.403,297.612-286.403,297.612
			z"/>
	</g>
	<g id="Group_2875" transform="translate(39.555)">
		<path id="Path_3473" fill="none" stroke="#1E82C6" d="M-229.83,356.415c0,0-3.651-4.869-7.962-10.462s-18.924-7.234-18.924-7.234
			s-1.322,12.109,8.007,16.004C-239.381,358.617-229.83,356.415-229.83,356.415z"/>
	</g>
	<g id="Group_2876" transform="translate(88.259 78.702)">
		<path id="Path_3474" fill="none" stroke="#1E82C6" d="M-281.227,288.871c1.136,0.093,2.283-0.016,3.367-0.321
			c0.337-0.123,0.495-0.457,0.352-0.747c-0.137-0.277-0.5-0.415-0.831-0.315l0,0c-0.129,0.042-3.217,1.01-7.45-1.001
			c-4.215-2.003-4.863-3.936-4.871-3.955c-0.093-0.305-0.456-0.487-0.811-0.407c-0.348,0.079-0.56,0.382-0.478,0.683
			c0.028,0.097,0.726,2.401,5.516,4.677C-284.836,288.269-283.059,288.743-281.227,288.871z"/>
	</g>
	<g id="Group_2877" transform="translate(49.473 11.751)">
		<path id="Path_3475" fill="none" stroke="#1E82C6" d="M-233.424,346.535c0.378,0.034,0.759,0.03,1.136-0.013
			c0.361-0.059,0.597-0.358,0.529-0.667c-0.069-0.31-0.416-0.513-0.777-0.454c-0.023,0.003-3.374,0.399-13.57-3.547
			c-10.37-4.013-16.47-11.199-16.53-11.271c-0.211-0.257-0.625-0.319-0.925-0.138c-0.3,0.181-0.371,0.537-0.16,0.794
			c0.002,0.003,0.005,0.006,0.007,0.009c0.254,0.305,6.355,7.501,17.062,11.646C-239.137,345.805-235.175,346.43-233.424,346.535z"
			/>
	</g>
</g>
<g id="Group_2897" transform="translate(303.133 195.947)">
	<g id="Group_2879" transform="translate(28.181 169.883)">
		<path id="Path_3476" fill="none" stroke="#1E82C6" d="M587.793,70.908l13.233,4.943c0,0-13.662,22.109-19.35,31.935
			c-5.688,9.826-7.309,11.003-7.309,11.003s-0.888,1.048-30.608-10.992c-11.041-4.473-21.831-8.23-24.513-9.79
			c-0.526-0.306-0.702-0.902-0.41-1.387l12.576-16.765L587.793,70.908z"/>
	</g>
	<g id="Group_2880" transform="translate(219.167 158.762)">
		<path id="Path_3477" fill="none" stroke="#1E82C6" d="M414.657,80.103c0,0,3.085,1.508,1.499,5.216
			c-1.586,3.707-28.006,42.784-28.006,42.784l-1.703-4.291l14.79-31.819L414.657,80.103z"/>
	</g>
	<g id="Group_2881" transform="translate(31.697 254.974)">
		<path id="Path_3478" fill="none" stroke="#1E82C6" d="M521.561,5.001c0,0,0.253,1.179-1.484,3.885
			c-1.512,2.354-3.784,3.01-3.784,3.01l54.557,21.803l3.065-6.097L532.717,5.673L521.561,5.001z"/>
	</g>
	<g id="Group_2882" transform="translate(38.114 142.017)">
		<path id="Path_3479" fill="none" stroke="#1E82C6" d="M582.668,91.544l13.042,5.304c0,0-14.479,21.722-20.53,31.388
			s-7.68,12.322-7.68,12.322s-17.987-8.399-31.385-14.055c-10.954-4.625-20.346-8.124-22.968-9.758
			c-0.514-0.321-0.668-0.921-0.357-1.398l10.339-16.039L582.668,91.544z"/>
	</g>
	<g id="Group_2883" transform="translate(211 327.038)">
		<path id="Path_3480" fill="none" stroke="#1E82C6" d="M391.55-38.365l3.065-6.097c0,0,2.934,1.775,1.703,4.291
			C395.073-37.633,391.55-38.365,391.55-38.365z"/>
	</g>
	<g id="Group_2884" transform="translate(181.537 187.539)">
		<path id="Path_3481" fill="none" stroke="#1E82C6" d="M427.838,63.098c0.423,0.026,0.791-0.247,0.821-0.611
			c0.023-0.27-0.15-0.525-0.434-0.642l-11.81-4.867c-0.382-0.158-0.841-0.019-1.025,0.309s-0.022,0.722,0.36,0.88l11.81,4.867
			C427.647,63.071,427.742,63.092,427.838,63.098z"/>
	</g>
	<g id="Group_2885" transform="translate(168.973 203.168)">
		<path id="Path_3482" fill="none" stroke="#1E82C6" d="M437.625,51.639c0.423,0.025,0.79-0.249,0.82-0.613
			c0.022-0.277-0.159-0.535-0.454-0.648l-13.303-5.077c-0.39-0.144-0.842,0.011-1.009,0.346c-0.165,0.329,0.007,0.711,0.386,0.86
			l13.303,5.077C437.449,51.615,437.536,51.634,437.625,51.639z"/>
	</g>
	<g id="Group_2886" transform="translate(153.539 214.703)">
		<path id="Path_3483" fill="none" stroke="#1E82C6" d="M449.888,44.174c0.423,0.025,0.79-0.249,0.82-0.612
			c0.024-0.293-0.181-0.564-0.502-0.665c-3.457-1.087-15.002-6.254-15.119-6.306c-0.376-0.169-0.84-0.043-1.036,0.279
			c-0.196,0.323-0.051,0.721,0.325,0.89c0.478,0.214,11.75,5.259,15.3,6.376C449.744,44.157,449.816,44.17,449.888,44.174z"/>
	</g>
	<g id="Group_2887" transform="translate(0 32.147)">
		<path id="Path_3484" fill="none" stroke="#1E82C6" d="M576.656,223.615l-35.416-24.743c-0.281-0.196-0.323-0.55-0.095-0.791
			c0.039-0.041,0.085-0.077,0.135-0.108l47.35-28.145c0,0,15.244,8.193,26.96,17.165c11.716,8.972,11.836,10.633,11.836,10.633
			s-18.617,11.112-32.208,17.237c-5.723,2.537-11.186,5.485-16.332,8.812C578.21,224.081,577.302,224.057,576.656,223.615z"/>
	</g>
	<g id="Group_2888" transform="translate(130.13 87.557)">
		<path id="Path_3485" fill="none" stroke="#1E82C6" d="M497.911,131.745c0,0,5.097,2.956,5.373,7.305
			c0.168,2.655-1.053,3.464-1.053,3.464l-50.501,26.055l-1.358-8.623l31.798-20.073L497.911,131.745z"/>
	</g>
	<g id="Group_2889" transform="translate(123.595 205.397)">
		<path id="Path_3486" fill="none" stroke="#1E82C6" d="M454.169,50.482c0,0,4.048,1.897,5.89-1.409
			c2.346-4.21-2.977-6.222-2.977-6.222L454.169,50.482z"/>
	</g>
	<g id="Group_2890" transform="translate(3.839 121.184)">
		<path id="Path_3487" fill="none" stroke="#1E82C6" d="M538.345,109.602l35.578,25.092c0,0,5.721-2.722,2.913-7.631
			c-2.808-4.909-36.061-24.897-36.061-24.897c0.911,1.426,1.12,3.105,0.582,4.664C540.441,109.419,538.345,109.602,538.345,109.602z
			"/>
	</g>
	<g id="Group_2891" transform="translate(7.191)">
		<path id="Path_3488" fill="none" stroke="#1E82C6" d="M572.56,248.098l-35.493-24.497c-0.432-0.298-0.502-0.84-0.155-1.211
			c0.058-0.062,0.125-0.117,0.2-0.163l46.584-28.591c0.331-0.205,0.775-0.216,1.12-0.027c2.898,1.588,16.279,9.053,26.839,17.14
			c7.973,6.106,10.664,8.881,11.572,10.048c0.31,0.39,0.193,0.922-0.26,1.188c-3.586,2.116-19.803,11.589-32.022,17.097
			c-10.831,4.882-15.58,7.926-17.125,9.014C573.452,248.352,572.927,248.353,572.56,248.098z"/>
	</g>
	<g id="Group_2892" transform="translate(151.198 65.085)">
		<path id="Path_3489" fill="none" stroke="#1E82C6" d="M450.743,156.124c0.423,0.026,0.791-0.248,0.821-0.612
			c0.016-0.199-0.073-0.394-0.244-0.53l-11.176-8.893c-0.311-0.248-0.797-0.232-1.086,0.036c-0.288,0.267-0.27,0.685,0.041,0.932
			l11.176,8.893C450.403,156.052,450.568,156.113,450.743,156.124z"/>
	</g>
	<g id="Group_2893" transform="translate(136.691 75.67)">
		<path id="Path_3490" fill="none" stroke="#1E82C6" d="M460.997,148.533c0.423,0.026,0.79-0.248,0.82-0.612
			c0.016-0.199-0.073-0.394-0.243-0.53l-11.69-9.318c-0.305-0.253-0.791-0.247-1.086,0.015c-0.295,0.262-0.287,0.679,0.017,0.933
			c0.008,0.007,0.016,0.013,0.024,0.019l11.688,9.318C460.656,148.461,460.822,148.522,460.997,148.533z"/>
	</g>
	<g id="Group_2894" transform="translate(72.165 177.515)">
		<path id="Path_3491" fill="none" stroke="#1E82C6" d="M499.613,67.365c0,0-1.787-0.679-1.849,3.214
			c-0.062,3.893-1.389,12.298-1.531,12.456c-0.141,0.157-2.513-5.374-2.513-5.374l-4.234,1.827c0,0,1.354-8.468,1.037-12.699
			s1.642-4.563,1.642-4.563L499.613,67.365z"/>
	</g>
	<g id="Group_2895" transform="translate(121.983 89.266)">
		<path id="Path_3492" fill="none" stroke="#1E82C6" d="M470.037,138.154c0.423,0.025,0.79-0.249,0.82-0.612
			c0.016-0.193-0.068-0.382-0.229-0.518l-10.919-9.161c-0.303-0.254-0.79-0.25-1.086,0.011c-0.296,0.261-0.291,0.678,0.013,0.933
			l10.92,9.162C469.684,138.077,469.855,138.143,470.037,138.154z"/>
	</g>
	<g id="Group_2896" transform="translate(73.969 183.603)">
		<path id="Path_3493" fill="none" stroke="#1E82C6" d="M494.803,62.41c0.423,0.026,0.79-0.247,0.821-0.61
			c0.018-0.214-0.087-0.423-0.281-0.559l-4.753-3.328c-0.329-0.23-0.813-0.188-1.081,0.095c-0.268,0.283-0.219,0.698,0.11,0.928
			l4.753,3.326C494.494,62.349,494.645,62.401,494.803,62.41z"/>
	</g>
</g>
<g id="Group_2907" transform="translate(194.789 77.003)">
	<g id="Group_2898">
		<path id="Path_3494" fill="none" stroke="#1E82C6" d="M182.156-25.067c0.34-4.168-0.123-18.063-19.088-21.746
			s-28.276,8.526-28.952,15.832c-0.676,7.305,0.185,21.225,20.046,23.727s24.928-9.621,26.424-12.276
			C181.513-21.274,182.045-23.153,182.156-25.067z"/>
	</g>
	<g id="Group_2906">
		<g>
			<defs>
				<path id="SVGID_1_" d="M182.156-25.067c0.34-4.168-0.123-18.063-19.088-21.746s-28.276,8.526-28.952,15.832
					c-0.676,7.305,0.185,21.225,20.046,23.727s24.928-9.621,26.424-12.276C181.513-21.274,182.045-23.153,182.156-25.067z"/>
			</defs>
			<clipPath id="SVGID_2_">
				<use xlink:href="#SVGID_1_"  overflow="visible"/>
			</clipPath>
			<g id="Group_2905" clip-path="url(#SVGID_2_)">
				<g id="Group_2899" transform="translate(48.73 41.741)">
					<path id="Path_3495" fill="none" stroke="#1E82C6" d="M118.067-72.15l-8.206-5.739l-9.1,4.339l2.24,9.269l10.955,0.66
						L118.067-72.15z"/>
				</g>
				<g id="Group_2900" transform="translate(129.199 28.38)">
					<path id="Path_3496" fill="none" stroke="#1E82C6" d="M46.55-67.1l-0.947,6.596l4.699,6.749l2.603-1.869
						c0.086-1.976-0.194-3.951-0.829-5.852c-1.044-2.986-1.148-3.619-1.148-3.619L46.55-67.1z"/>
				</g>
				<g id="Group_2901" transform="translate(50.756 -2.698)">
					<path id="Path_3497" fill="none" stroke="#1E82C6" d="M116.62-42.032l-3.132-2.764c0,0-2.156-0.353-4.678-0.579
						c-2.521-0.225-3.973,0.057-3.973,0.057l-4.303,1.993l7.573,2.639L116.62-42.032z"/>
				</g>
				<g id="Group_2902" transform="translate(93.31 110.419)">
					<path id="Path_3498" fill="none" stroke="#1E82C6" d="M81.755-121.843c-1.248,1.146-2.665,2.148-4.215,2.979
						c-1.616,0.923-3.466,1.501-5.395,1.684l-3.818-2.239l5.379-6.089l8.867-1.485L81.755-121.843z"/>
				</g>
				<g id="Group_2903" transform="translate(16.731 110.126)">
					<path id="Path_3499" fill="none" stroke="#1E82C6" d="M134.256-119.585l-4.776-7.023l-7.423-2.405l-0.797,4.798
						c1.022,1.445,2.283,2.756,3.744,3.89c2.357,1.803,4.183,2.261,4.183,2.261L134.256-119.585z"/>
				</g>
				<g id="Group_2904" transform="translate(-2.107 28.38)">
					<path id="Path_3500" fill="none" stroke="#1E82C6" d="M143.517-62.516l0.541-6.62l-3.818,1.1c0,0-1.552,1.142-3.135,4.637
						c-1.583,3.495-1.573,4.366-1.573,4.366l2.346,3.029L143.517-62.516z"/>
				</g>
			</g>
			<use xlink:href="#SVGID_1_"  overflow="visible" fill="none" stroke="#1E82C6"/>
		</g>
	</g>
</g>
<g id="Group_2927" transform="translate(175.352)">
	<g id="Group_2908" transform="translate(0.008)">
		<path id="Path_3502" fill="none" stroke="#1E82C6" d="M446.057,41.486l-0.763-2.421l-70.97-18.311l-2.576,2.116
			c0,0,48.269,13.744,48.629,13.766C420.728,36.657,446.057,41.486,446.057,41.486z"/>
	</g>
	<g id="Group_2909" transform="translate(172.101 69.609)">
		<path id="Path_3503" fill="none" stroke="#1E82C6" d="M258.94-26.654l-7.675,10.065l0.093,6.301l10.975-12.24L258.94-26.654z"/>
	</g>
	<g id="Group_2910" transform="translate(66.543 37.099)">
		<path id="Path_3504" fill="none" stroke="#1E82C6" d="M326.925-5.18l29.899,21.1l0.093,6.301L327.024,1.226l-1.73-5.368
			L326.925-5.18z"/>
	</g>
	<g id="Group_2911" transform="translate(0 8.418)">
		<path id="Path_3505" fill="none" stroke="#1E82C6" d="M433.98,29.45c9.964,3.078,12.083,3.618,12.083,3.618l-21.717,30.48
			c0,0-30.093-24.415-41.257-36.337s-11.338-12.758-11.338-12.758S424.019,26.373,433.98,29.45z M393.273,26.07
			c0.856,1.29,30.271,23.704,30.271,23.704l8.958-12.568C432.502,37.206,392.417,24.779,393.273,26.07z"/>
	</g>
	<g id="Group_2926" transform="translate(0 8.418)">
		<g>
			<defs>
				<path id="SVGID_3_" d="M433.98,29.45c9.964,3.078,12.083,3.618,12.083,3.618l-21.717,30.48c0,0-30.093-24.415-41.257-36.337
					s-11.338-12.758-11.338-12.758S424.019,26.373,433.98,29.45z M393.273,26.07c0.856,1.29,30.271,23.704,30.271,23.704
					l8.958-12.568C432.502,37.206,392.417,24.779,393.273,26.07z"/>
			</defs>
			<clipPath id="SVGID_4_">
				<use xlink:href="#SVGID_3_"  overflow="visible"/>
			</clipPath>
			<g id="Group_2925" clip-path="url(#SVGID_4_)">
				<g id="Group_2912" transform="translate(157.198 145.217)">
					<path id="Path_3506" fill="none" stroke="#1E82C6" d="M261.079-83.88c0.273,0.017,0.541-0.068,0.737-0.232l3.618-3.026
						c0.382-0.315,0.394-0.836,0.027-1.164c-0.367-0.328-0.974-0.339-1.356-0.024c-0.003,0.003-0.007,0.005-0.01,0.008l-3.618,3.027
						c-0.379,0.317-0.388,0.838-0.018,1.164C260.624-83.982,260.844-83.894,261.079-83.88z"/>
				</g>
				<g id="Group_2913" transform="translate(145.653 134.201)">
					<path id="Path_3507" fill="none" stroke="#1E82C6" d="M269.256-76.038c0.273,0.017,0.541-0.068,0.737-0.232l3.618-3.027
						c0.382-0.315,0.394-0.836,0.028-1.164c-0.367-0.328-0.974-0.339-1.356-0.024c-0.003,0.003-0.007,0.005-0.01,0.008l-3.618,3.026
						c-0.379,0.318-0.387,0.839-0.018,1.165C268.801-76.14,269.021-76.052,269.256-76.038z"/>
				</g>
				<g id="Group_2914" transform="translate(134.109 123.337)">
					<path id="Path_3508" fill="none" stroke="#1E82C6" d="M277.429-68.309c0.273,0.017,0.541-0.068,0.737-0.232l3.618-3.027
						c0.382-0.315,0.394-0.836,0.027-1.164c-0.367-0.328-0.974-0.339-1.356-0.024c-0.003,0.003-0.007,0.005-0.01,0.008l-3.618,3.027
						c-0.38,0.317-0.389,0.838-0.02,1.164C276.972-68.411,277.193-68.322,277.429-68.309L277.429-68.309z"/>
				</g>
				<g id="Group_2915" transform="translate(122.012 112.206)">
					<path id="Path_3509" fill="none" stroke="#1E82C6" d="M285.987-60.395c0.273,0.017,0.541-0.068,0.737-0.232l3.618-3.027
						c0.382-0.315,0.394-0.836,0.028-1.164c-0.367-0.328-0.974-0.339-1.356-0.024c-0.003,0.003-0.007,0.005-0.01,0.008l-3.618,3.026
						c-0.379,0.318-0.387,0.839-0.018,1.165C285.532-60.497,285.752-60.409,285.987-60.395z"/>
				</g>
				<g id="Group_2916" transform="translate(109.915 101.074)">
					<path id="Path_3510" fill="none" stroke="#1E82C6" d="M294.546-52.479c0.273,0.017,0.541-0.068,0.737-0.232l3.616-3.027
						c0.382-0.315,0.394-0.836,0.027-1.164c-0.367-0.328-0.974-0.339-1.356-0.024c-0.003,0.003-0.007,0.005-0.01,0.008l-3.618,3.027
						c-0.379,0.318-0.387,0.839-0.018,1.165C294.089-52.58,294.311-52.492,294.546-52.479z"/>
				</g>
				<g id="Group_2917" transform="translate(97.818 89.951)">
					<path id="Path_3511" fill="none" stroke="#1E82C6" d="M303.105-44.573c0.273,0.017,0.541-0.068,0.737-0.232l3.618-3.027
						c0.379-0.317,0.387-0.839,0.017-1.164c-0.37-0.326-0.976-0.332-1.356-0.015l0,0l-3.618,3.027
						c-0.38,0.316-0.389,0.837-0.02,1.163C302.648-44.675,302.869-44.586,303.105-44.573L303.105-44.573z"/>
				</g>
				<g id="Group_2918" transform="translate(85.72 78.817)">
					<path id="Path_3512" fill="none" stroke="#1E82C6" d="M311.664-36.656c0.273,0.017,0.541-0.068,0.737-0.232l3.618-3.027
						c0.382-0.315,0.394-0.836,0.028-1.164s-0.974-0.339-1.356-0.024c-0.003,0.003-0.007,0.005-0.01,0.008l-3.618,3.026
						c-0.38,0.317-0.389,0.838-0.02,1.164C311.207-36.758,311.429-36.67,311.664-36.656z"/>
				</g>
				<g id="Group_2919" transform="translate(73.624 67.685)">
					<path id="Path_3513" fill="none" stroke="#1E82C6" d="M320.222-28.739c0.273,0.017,0.541-0.068,0.737-0.232l3.618-3.027
						c0.382-0.315,0.395-0.836,0.028-1.165c-0.367-0.328-0.974-0.339-1.356-0.024c-0.003,0.003-0.007,0.005-0.01,0.008l-3.618,3.027
						c-0.379,0.318-0.387,0.839-0.018,1.165C319.766-28.841,319.987-28.753,320.222-28.739z"/>
				</g>
				<g id="Group_2920" transform="translate(61.53 56.558)">
					<path id="Path_3514" fill="none" stroke="#1E82C6" d="M328.778-20.829c0.273,0.017,0.541-0.068,0.737-0.232l3.618-3.027
						c0.382-0.315,0.394-0.836,0.027-1.164c-0.367-0.328-0.974-0.339-1.356-0.024c-0.003,0.003-0.007,0.005-0.01,0.008l-3.617,3.027
						c-0.38,0.317-0.388,0.839-0.018,1.165C328.324-20.931,328.544-20.843,328.778-20.829L328.778-20.829z"/>
				</g>
				<g id="Group_2921" transform="translate(49.431 45.428)">
					<path id="Path_3515" fill="none" stroke="#1E82C6" d="M337.339-12.915c0.273,0.017,0.541-0.067,0.737-0.232l3.616-3.028
						c0.382-0.315,0.394-0.836,0.027-1.164c-0.367-0.328-0.974-0.339-1.356-0.024c-0.003,0.003-0.007,0.005-0.01,0.008l-3.616,3.027
						c-0.379,0.317-0.387,0.839-0.018,1.164C336.883-13.017,337.104-12.929,337.339-12.915z"/>
				</g>
				<g id="Group_2922" transform="translate(37.336 34.296)">
					<path id="Path_3516" fill="none" stroke="#1E82C6" d="M345.896-5c0.273,0.017,0.541-0.067,0.737-0.232l3.618-3.027
						c0.382-0.315,0.394-0.836,0.027-1.164c-0.367-0.328-0.974-0.339-1.356-0.024c-0.003,0.003-0.007,0.005-0.01,0.008l-3.617,3.027
						c-0.379,0.317-0.388,0.838-0.019,1.164c0,0,0.001,0.001,0.001,0.001C345.44-5.102,345.661-5.013,345.896-5z"/>
				</g>
				<g id="Group_2923" transform="translate(25.211 23.169)">
					<path id="Path_3517" fill="none" stroke="#1E82C6" d="M354.474,2.909c0.273,0.017,0.541-0.067,0.737-0.232l3.618-3.026
						c0.377-0.32,0.38-0.841,0.008-1.165c-0.368-0.32-0.968-0.327-1.346-0.015l-3.618,3.026c-0.379,0.317-0.387,0.838-0.018,1.164
						c0,0,0,0,0,0C354.02,2.806,354.24,2.894,354.474,2.909z"/>
				</g>
				<g id="Group_2924" transform="translate(13.141 12.04)">
					<path id="Path_3518" fill="none" stroke="#1E82C6" d="M363.014,10.823c0.273,0.017,0.541-0.067,0.737-0.232l3.618-3.026
						c0.377-0.32,0.38-0.841,0.008-1.165c-0.368-0.32-0.968-0.327-1.346-0.015l-3.618,3.026c-0.379,0.317-0.387,0.839-0.018,1.164
						C362.559,10.721,362.779,10.809,363.014,10.823z"/>
				</g>
			</g>
			<use xlink:href="#SVGID_3_"  overflow="visible" fill="none" stroke="#1E82C6"/>
		</g>
	</g>
</g>
<g id="Group_2933" transform="translate(71.759 133.86)">
	<g id="Group_2928" transform="translate(28.239)">
		<path id="Path_3520" fill="none" stroke="#1E82C6" d="M636.183,16.11l6.002-11.971c0.058-0.108,0.207-0.155,0.333-0.105
			c0.094,0.037,0.151,0.12,0.145,0.209l-4.353,42.79l-2.493,5.299l-5.713-2.121L636.183,16.11z"/>
	</g>
	<g id="Group_2929" transform="translate(0 205.07)">
		<path id="Path_3521" fill="none" stroke="#1E82C6" d="M656.128-146.597l-8.172,10.26l6.698,2.854l5.848-11.642L656.128-146.597z"
			/>
	</g>
	<g id="Group_2930" transform="translate(23.343 66.434)">
		<path id="Path_3522" fill="none" stroke="#1E82C6" d="M635.579-19.475l-2.794,11.514l4.378,1.472l42.299-26.812l7.878-8.398
			c0.097-0.107,0.075-0.261-0.049-0.344c-0.092-0.062-0.218-0.069-0.318-0.019l-43.766,22.661L635.579-19.475z"/>
	</g>
	<g id="Group_2931" transform="translate(34.738 176.906)">
		<path id="Path_3523" fill="none" stroke="#1E82C6" d="M627.367-121.413c-2.668-0.188-2.908-4.372,0.976-4.201
			S631.13-121.149,627.367-121.413z"/>
	</g>
	<g id="Group_2932" transform="translate(31.923 118.391)">
		<path id="Path_3524" fill="none" stroke="#1E82C6" d="M656.863-67.389c0.486,0.029,0.908-0.285,0.942-0.703
			c0.023-0.285-0.141-0.556-0.426-0.703l-27.318-14.078c-0.421-0.211-0.961-0.09-1.207,0.271c-0.242,0.356-0.109,0.813,0.3,1.028
			l27.318,14.078C656.591-67.434,656.725-67.398,656.863-67.389z"/>
	</g>
</g>
<g id="Group_2953" transform="translate(0.31 119.317)">
	<g id="Group_2934" transform="translate(1.741 70.435)">
		<path id="Path_3525" fill="none" stroke="#1E82C6" d="M86.564-162.98c0,0-3.701,7.788,0.848,17.114s8.102,10.604,8.102,10.604
			l-0.136-1.286l-6.322-21.111L86.564-162.98z"/>
	</g>
	<g id="Group_2935" transform="translate(47.891 14.059)">
		<path id="Path_3526" fill="none" stroke="#1E82C6" d="M82.984-109.826c0,0-5.326-5.133-13.94-6.189
			c-8.613-1.056-14.385,1.759-14.385,1.759l2.568-3.855l14.07-1.845c0,0,8.691,2.938,8.908,3.229
			c0.217,0.292,5.608,3.242,5.608,3.242l0.697,3.289L82.984-109.826z"/>
	</g>
	<g id="Group_2936" transform="translate(0)">
		<path id="Path_3527" fill="none" stroke="#1E82C6" d="M98.358-105.563c25.178-14.313,45.41,11.027,45.41,11.027L97.115-66.114
			C97.115-66.114,72.623-90.934,98.358-105.563z M98.442-76.468l33.262-20.108c0,0-10.934-10.005-26.735-4.651
			C89.914-96.122,98.442-76.468,98.442-76.468L98.442-76.468z"/>
	</g>
	<g id="Group_2937" transform="translate(39.451 50.678)">
		<path id="Path_3528" fill="none" stroke="#1E82C6" d="M104.321-145.213l-0.353,1.326l-46.163,28.383l-0.139-1.287L104.321-145.213
			z"/>
	</g>
	<g id="Group_2952" transform="translate(2.453 4.948)">
		<g>
			<defs>
				<path id="SVGID_5_" d="M96.788-108.868c25.178-14.313,44.532,9.385,44.532,9.385L94.664-71.061
					C94.664-71.061,71.053-94.239,96.788-108.868z M95.989-81.415l34.588-20.58c0,0-11.75-10.796-28.06-4.178
					S95.989-81.415,95.989-81.415L95.989-81.415z"/>
			</defs>
			<clipPath id="SVGID_6_">
				<use xlink:href="#SVGID_5_"  overflow="visible"/>
			</clipPath>
			<g id="Group_2951" clip-path="url(#SVGID_6_)">
				<g id="Group_2938" transform="translate(162.604 40.282)">
					<path id="Path_3529" fill="none" stroke="#1E82C6" d="M-22.776-137.17c0.424,0.026,0.791-0.249,0.821-0.612
						c0.013-0.157-0.04-0.313-0.149-0.439l-2.574-2.986c-0.249-0.296-0.73-0.363-1.074-0.149c-0.345,0.213-0.423,0.627-0.174,0.923
						c0.004,0.004,0.008,0.009,0.011,0.013l2.574,2.986C-23.207-137.28-23-137.183-22.776-137.17z"/>
				</g>
				<g id="Group_2939" transform="translate(151.912 48.819)">
					<path id="Path_3530" fill="none" stroke="#1E82C6" d="M-15.614-143.616c0.424,0.026,0.791-0.248,0.821-0.612
						c0.013-0.157-0.04-0.313-0.149-0.44l-2.574-2.986c-0.249-0.296-0.73-0.363-1.074-0.149c-0.345,0.213-0.423,0.627-0.174,0.923
						c0.004,0.004,0.008,0.009,0.011,0.013l2.574,2.986C-16.044-143.727-15.838-143.631-15.614-143.616z"/>
				</g>
				<g id="Group_2940" transform="translate(141.372 57.367)">
					<path id="Path_3531" fill="none" stroke="#1E82C6" d="M-8.557-150.067c0.424,0.026,0.791-0.249,0.821-0.612
						c0.013-0.157-0.04-0.313-0.149-0.44l-2.574-2.986c-0.249-0.296-0.73-0.363-1.074-0.149c-0.345,0.213-0.423,0.627-0.174,0.923
						c0.004,0.004,0.008,0.009,0.011,0.013l2.574,2.986C-8.989-150.177-8.782-150.08-8.557-150.067z"/>
				</g>
				<g id="Group_2941" transform="translate(130.529 66.351)">
					<path id="Path_3532" fill="none" stroke="#1E82C6" d="M-1.302-156.843c0.424,0.026,0.791-0.248,0.821-0.612
						c0.013-0.157-0.04-0.313-0.149-0.44l-2.574-2.986c-0.249-0.296-0.73-0.363-1.074-0.149c-0.345,0.213-0.423,0.627-0.174,0.923
						c0.004,0.004,0.008,0.009,0.011,0.013l2.574,2.986C-1.733-156.953-1.526-156.855-1.302-156.843z"/>
				</g>
				<g id="Group_2942" transform="translate(119.687 75.333)">
					<path id="Path_3533" fill="none" stroke="#1E82C6" d="M5.953-163.618c0.424,0.026,0.791-0.248,0.821-0.612
						c0.013-0.157-0.04-0.313-0.149-0.44l-2.574-2.986c-0.257-0.291-0.74-0.347-1.078-0.126c-0.332,0.217-0.403,0.622-0.159,0.913
						l2.574,2.986C5.522-163.728,5.729-163.631,5.953-163.618z"/>
				</g>
				<g id="Group_2943" transform="translate(108.846 84.321)">
					<path id="Path_3534" fill="none" stroke="#1E82C6" d="M13.208-170.396c0.424,0.026,0.791-0.248,0.821-0.612
						c0.013-0.157-0.04-0.313-0.149-0.44l-2.574-2.986c-0.249-0.296-0.73-0.363-1.074-0.149c-0.345,0.213-0.423,0.627-0.174,0.923
						c0.004,0.004,0.008,0.009,0.011,0.013l2.574,2.986C12.777-170.506,12.983-170.409,13.208-170.396z"/>
				</g>
				<g id="Group_2944" transform="translate(98.004 93.304)">
					<path id="Path_3535" fill="none" stroke="#1E82C6" d="M20.462-177.171c0.424,0.026,0.791-0.248,0.821-0.612
						c0.013-0.157-0.04-0.313-0.149-0.44l-2.574-2.986c-0.257-0.291-0.74-0.347-1.078-0.126c-0.332,0.217-0.403,0.622-0.159,0.913
						l2.574,2.986C20.031-177.281,20.238-177.184,20.462-177.171z"/>
				</g>
				<g id="Group_2945" transform="translate(87.162 102.288)">
					<path id="Path_3536" fill="none" stroke="#1E82C6" d="M27.718-183.946c0.424,0.026,0.791-0.248,0.821-0.612
						c0.013-0.157-0.04-0.313-0.149-0.44l-2.574-2.986c-0.249-0.296-0.73-0.363-1.074-0.149c-0.345,0.213-0.423,0.627-0.174,0.923
						c0.004,0.004,0.008,0.009,0.011,0.013l2.574,2.986C27.285-184.055,27.492-183.958,27.718-183.946z"/>
				</g>
				<g id="Group_2946" transform="translate(76.32 111.272)">
					<path id="Path_3537" fill="none" stroke="#1E82C6" d="M34.973-190.723c0.424,0.026,0.791-0.248,0.821-0.612
						c0.013-0.157-0.04-0.313-0.149-0.44l-2.574-2.986c-0.257-0.291-0.74-0.347-1.078-0.126c-0.332,0.217-0.403,0.622-0.159,0.913
						l2.574,2.986C34.541-190.832,34.748-190.735,34.973-190.723z"/>
				</g>
				<g id="Group_2947" transform="translate(65.478 120.254)">
					<path id="Path_3538" fill="none" stroke="#1E82C6" d="M42.228-197.497c0.424,0.026,0.791-0.248,0.821-0.612
						c0.013-0.157-0.04-0.313-0.149-0.44l-2.574-2.986c-0.249-0.296-0.73-0.363-1.074-0.149c-0.345,0.213-0.423,0.627-0.174,0.923
						c0.004,0.004,0.008,0.009,0.011,0.013l2.574,2.986C41.795-197.606,42.003-197.508,42.228-197.497z"/>
				</g>
				<g id="Group_2948" transform="translate(54.636 129.24)">
					<path id="Path_3539" fill="none" stroke="#1E82C6" d="M49.482-204.274c0.424,0.026,0.791-0.248,0.821-0.612
						c0.013-0.157-0.04-0.313-0.149-0.44l-2.574-2.986c-0.249-0.296-0.73-0.363-1.074-0.149c-0.345,0.213-0.423,0.627-0.174,0.923
						c0.004,0.004,0.008,0.009,0.011,0.013l2.574,2.986C49.051-204.384,49.258-204.287,49.482-204.274z"/>
				</g>
				<g id="Group_2949" transform="translate(43.794 138.225)">
					<path id="Path_3540" fill="none" stroke="#1E82C6" d="M56.738-211.051c0.424,0.026,0.791-0.248,0.821-0.612
						c0.013-0.157-0.04-0.313-0.149-0.44l-2.574-2.986c-0.249-0.296-0.73-0.363-1.074-0.149c-0.345,0.213-0.423,0.627-0.174,0.923
						c0.004,0.004,0.008,0.009,0.011,0.013l2.574,2.986C56.305-211.16,56.513-211.062,56.738-211.051z"/>
				</g>
				<g id="Group_2950" transform="translate(32.927 147.208)">
					<path id="Path_3541" fill="none" stroke="#1E82C6" d="M64.009-217.826c0.424,0.026,0.791-0.248,0.821-0.612
						c0.013-0.157-0.04-0.313-0.149-0.44l-2.574-2.986c-0.257-0.291-0.74-0.347-1.078-0.126c-0.332,0.217-0.403,0.622-0.159,0.913
						l2.574,2.986C63.58-217.938,63.786-217.841,64.009-217.826z"/>
				</g>
			</g>
			<use xlink:href="#SVGID_5_"  overflow="visible" fill="none" stroke="#1E82C6"/>
		</g>
	</g>
</g>
<g id="Group_2963" transform="translate(356.256 163.026)">
	<g id="Group_2954" transform="translate(34.789 74.157)">
		<path id="Path_3543" fill="none" stroke="#1E82C6" d="M-244.074-86.879c0,0,4.645,0.388,10.882-9.439s10.039-14.591,17.938-12.27
			s7.679,11.209,4.315,19.905s-2.249,15.157-2.249,15.157s-10.161-0.497-19.815-4.981C-242.656-82.99-244.074-86.879-244.074-86.879
			z"/>
	</g>
	<g id="Group_2955" transform="translate(26.436 155.25)">
		<path id="Path_3544" fill="none" stroke="#1E82C6" d="M-205.591-152.508c4.417,0.058,5.204-3.186,0.62-3.462
			c-10.79-0.65-22.217-6.552-28.438-12.621c-2.751-2.684-6.337-0.962-4.284,1.554C-229.116-156.526-218.187-152.674-205.591-152.508
			z"/>
	</g>
	<g id="Group_2956" transform="translate(121.461 90.268)">
		<path id="Path_3545" fill="none" stroke="#1E82C6" d="M-301.575-118.165c-0.129,3.398-2.679,13.515-1.327,15.116
			c1.352,1.601,3.652-5.092,4.255-9.188C-297.417-120.576-301.392-123.009-301.575-118.165z"/>
	</g>
	<g id="Group_2957" transform="translate(51.491 127.465)">
		<path id="Path_3546" fill="none" stroke="#1E82C6" d="M-255.1-139.326c0.075,0.005,0.15-0.006,0.219-0.029
			c4.166-1.432,8.076-8.533,8.242-8.835c0.109-0.216-0.007-0.468-0.259-0.561c-0.242-0.09-0.523-0.002-0.641,0.2
			c-0.039,0.071-3.908,7.097-7.71,8.404c-0.255,0.088-0.378,0.337-0.276,0.556C-255.454-139.441-255.289-139.338-255.1-139.326
			L-255.1-139.326z"/>
	</g>
	<g id="Group_2958" transform="translate(113.629 52.74)">
		<path id="Path_3547" fill="none" stroke="#1E82C6" d="M-294.637-86.026c-0.036,0.441,1.612,0.707,1.667,0.616
			c1.083-1.797,3.471-6.33,0.807-7.614c-3.344-1.612-4.167,5.373-4.167,5.373l2.234,0.481c0,0-0.944-5.19,1.326-4.19
			C-291.53-90.816-294.486-87.874-294.637-86.026z"/>
	</g>
	<g id="Group_2959" transform="translate(17.789)">
		<path id="Path_3548" fill="none" stroke="#1E82C6" d="M-225.963-56.222l2.686,6.281l-5.799-0.349
			c-0.148-0.009-0.278,0.087-0.288,0.214c-0.005,0.06,0.018,0.12,0.063,0.167c2.836,2.73,6.702,4.515,10.918,5.039
			c7.628,1.002,9.494-0.188,12.886,3.164c2.066,2.035,4.436,3.825,7.05,5.325l1.518-2.24c0,0-2.567-8.475-11.777-10.224
			c-9.21-1.749-12.285-3.888-14.929-6.001l-1.974-1.578c-0.09-0.07-0.229-0.064-0.31,0.013
			C-225.973-56.36-225.99-56.287-225.963-56.222z"/>
	</g>
	<g id="Group_2960" transform="translate(69.402 27.307)">
		<path id="Path_3549" fill="none" stroke="#1E82C6" d="M-255.935-72.269c0.274,0.016,0.512-0.162,0.53-0.398
			c0.011-0.143-0.062-0.281-0.194-0.368c-2.611-1.528-5.652-2.425-8.806-2.597c-0.274-0.017-0.512,0.16-0.531,0.395
			c-0.02,0.235,0.187,0.439,0.46,0.456c0,0,0.001,0,0.001,0c2.958,0.174,5.812,1.01,8.276,2.427
			C-256.122-72.305-256.031-72.275-255.935-72.269z"/>
	</g>
	<g id="Group_2961" transform="translate(0 53.657)">
		<path id="Path_3550" fill="none" stroke="#1E82C6" d="M-180.657-90.037c0,0-4.032-5.142-13.301-4.616
			c-9.269,0.526-13.514,6.289-18.236,5.092c-1.819-0.434-3.561-1.078-5.179-1.914c-0.114-0.062-0.266-0.033-0.338,0.066
			c-0.048,0.065-0.05,0.147-0.007,0.214l2.212,3.493l-2.976,1.365c-0.107,0.049-0.148,0.163-0.091,0.255
			c0.005,0.008,0.01,0.015,0.016,0.022c0.53,0.631,2.812,2.622,9.874,1.482c8.325-1.344,11.679-5.105,17.423-5.818
			c5.745-0.713,10.795,2.308,10.795,2.308L-180.657-90.037z"/>
	</g>
	<g id="Group_2962" transform="translate(52.509 57.321)">
		<path id="Path_3551" fill="none" stroke="#1E82C6" d="M-253.79-93.772c0.116,0.007,0.231-0.021,0.325-0.079
			c2.296-1.426,4.953-2.365,7.753-2.739c0.273-0.024,0.472-0.233,0.445-0.467c-0.027-0.235-0.271-0.406-0.544-0.382l0,0
			c-2.977,0.378-5.803,1.372-8.235,2.896c-0.222,0.138-0.272,0.405-0.111,0.596C-254.07-93.846-253.936-93.782-253.79-93.772
			L-253.79-93.772z"/>
	</g>
</g>
<g id="Layer_2">
</g>
</svg>
