<?xml version="1.0" encoding="utf-8"?>
<!-- Generator: Adobe Illustrator 17.0.0, SVG Export Plug-In . SVG Version: 6.00 Build 0)  -->
<!DOCTYPE svg PUBLIC "-//W3C//DTD SVG 1.1//EN" "http://www.w3.org/Graphics/SVG/1.1/DTD/svg11.dtd">
<svg version="1.1" id="Layer_1" xmlns="http://www.w3.org/2000/svg" xmlns:xlink="http://www.w3.org/1999/xlink" x="0px" y="0px"
	 width="960px" height="560px" viewBox="0 0 960 560" enable-background="new 0 0 960 560" xml:space="preserve">
<g id="_2570092" transform="matrix(0.998, 0.07, -0.07, 0.998, -734.015, -63.012)">
	<g id="BACKGROUND" transform="translate(1329.585 457.719)">
		<path id="Path_3552" fill="#F2EFEF" stroke="#000000" d="M-119.755-231.593"/>
	</g>
	<g id="OBJECTS" transform="translate(758.246 -1.501)">
		<g id="Group_2801" transform="translate(295.884 178.887)">
			<g id="Group_2794" transform="translate(151.802 272.302)">
				<path id="Path_3401" fill="#F2EFEF" stroke="#707070" d="M453.711-292.304c0,0,1.065,3.925,2.236,3.7
					c1.171-0.225-1.051-4.291-1.051-4.291L453.711-292.304z"/>
			</g>
			<g id="Group_2795" transform="translate(115.798 226.754)">
				<path id="Path_3402" fill="#F2EFEF" stroke="#707070" d="M491.122-255.846l-7.919,3.86c0,0,6.465,7.113,7.834,6.441
					S491.122-255.846,491.122-255.846z"/>
			</g>
			<g id="Group_2796" transform="translate(57.02 111.124)">
				<path id="Path_3403" fill="#F2EFEF" stroke="#707070" d="M539.923-161.818l-8.602,3.695c0,0,3.92,9.007,7.079,15.287
					c2.698,5.361,3.581,6.48,3.581,6.48l7.919-3.86c0,0-4.923-10.861-6.841-15.362S539.923-161.818,539.923-161.818z"/>
			</g>
			<g id="Group_2797" transform="translate(96.002 123.067)">
				<path id="Path_3404" fill="#F2EFEF" stroke="#707070" d="M507.087-153.79c0.351,0.001,0.635-0.292,0.634-0.655
					c0-0.092-0.019-0.183-0.055-0.267l-7.075-16.43c-0.143-0.332-0.519-0.483-0.84-0.337s-0.465,0.534-0.322,0.866l7.075,16.43
					C506.607-153.944,506.835-153.79,507.087-153.79z"/>
			</g>
			<g id="Group_2798" transform="translate(148.194 239.002)">
				<path id="Path_3405" fill="#F2EFEF" stroke="#707070" d="M457.754-259.904c0.022,0,0.044-0.001,0.065-0.004
					c0.349-0.036,0.603-0.358,0.566-0.719l-0.464-4.594c-0.037-0.361-0.35-0.625-0.699-0.589c-0.349,0.036-0.603,0.358-0.566,0.72
					l0.464,4.594C457.155-260.161,457.428-259.905,457.754-259.904z"/>
			</g>
			<g id="Group_2799" transform="translate(0)">
				<path id="Path_3406" fill="#F2EFEF" stroke="#707070" d="M596.943-50.694c0,0-7.83-14.798-9.692-18.039
					c-1.863-3.241-6.376-4-8.727-0.055c-2.288,3.839,3.524,10.664,6.798,20.904c1.073,3.356-1.162,3.698-1.064,4.632
					c0.088,0.842,2.393,0.418,2.599-2.77c0.265-4.116-7.185-17.691-6.614-17.819c0.493-0.111,8.1,16.843,8.1,16.843L596.943-50.694z
					"/>
			</g>
			<g id="Group_2800" transform="translate(28.251 8.531)">
				<path id="Path_3407" fill="#F2EFEF" stroke="#707070" d="M564.699-61.503c0.351,0,0.635-0.294,0.633-0.658
					c0-0.105-0.025-0.209-0.073-0.302c-0.054-0.108-5.466-10.79-6.544-12.894c-1.194-2.331-2.954-2.981-3.029-3.007
					c-0.332-0.119-0.694,0.063-0.807,0.406c-0.113,0.343,0.065,0.717,0.397,0.836l0,0c0.051,0.019,1.369,0.53,2.315,2.375
					c1.077,2.102,6.487,12.781,6.541,12.889C564.244-61.64,564.462-61.504,564.699-61.503z"/>
			</g>
		</g>
		<g id="Group_2820" transform="translate(65.598 136.379)">
			<g id="Group_2802" transform="translate(225.686)">
				<path id="Path_3408" fill="#F2EFEF" stroke="#707070" d="M502.014,299.141l-4.912-5.821l-3.135,0.496l5.291,5.693
					L502.014,299.141z"/>
			</g>
			<g id="Group_2803" transform="translate(27.87 23.107)">
				<path id="Path_3409" fill="#F2EFEF" stroke="#707070" d="M641.956,331.821l2.494,0.023c0,0,23.039-21.45,35.764-34.854
					c12.725-13.405,19.622-20.957,19.622-20.957l-2.76,0.368L658.689,311.1L641.956,331.821z"/>
			</g>
			<g id="Group_2804" transform="translate(0 1.97)">
				<path id="Path_3410" fill="#F2EFEF" stroke="#707070" d="M669.827,352.958c0,0,19.147-18.204,30.699-29.518
					c11.553-11.315,24.42-25.9,24.42-25.9l-5.29-5.693c0,0-29.181,28.219-39.503,37.183c-10.321,8.964-17.348,16.382-17.348,16.382
					L669.827,352.958z"/>
			</g>
			<g id="Group_2805" transform="translate(10.375 206.055)">
				<path id="Path_3411" fill="#F2EFEF" stroke="#707070" d="M659.04,143.552c0.29,0,0.525-0.235,0.525-0.526
					c0-0.143-0.058-0.279-0.161-0.378l-3.47-3.335c-0.206-0.205-0.538-0.204-0.743,0.001s-0.204,0.538,0.001,0.743
					c0.005,0.005,0.009,0.009,0.014,0.013l3.47,3.335C658.774,143.499,658.904,143.551,659.04,143.552z"/>
			</g>
			<g id="Group_2806" transform="translate(26.236 190.61)">
				<path id="Path_3412" fill="#F2EFEF" stroke="#707070" d="M645.525,153.637c0.137,0,0.269-0.054,0.366-0.15
					c0.207-0.203,0.211-0.535,0.009-0.743l-1.821-1.864c-0.203-0.208-0.535-0.212-0.743-0.009c-0.208,0.203-0.212,0.535-0.009,0.743
					l0,0l1.821,1.864C645.248,153.579,645.383,153.636,645.525,153.637z"/>
			</g>
			<g id="Group_2807" transform="translate(38.47 179.122)">
				<path id="Path_3413" fill="#F2EFEF" stroke="#707070" d="M638.159,164.513c0.29,0,0.525-0.236,0.525-0.526
					c0-0.126-0.046-0.248-0.129-0.344l-3.607-4.147c-0.19-0.219-0.522-0.242-0.741-0.052c-0.219,0.19-0.242,0.522-0.052,0.741
					l3.607,4.147C637.862,164.447,638.007,164.512,638.159,164.513z"/>
			</g>
			<g id="Group_2808" transform="translate(54.304 164.708)">
				<path id="Path_3414" fill="#F2EFEF" stroke="#707070" d="M624.936,173.567c0.29,0,0.525-0.235,0.525-0.526
					c0-0.132-0.05-0.259-0.139-0.356l-2.23-2.418c-0.194-0.215-0.526-0.233-0.742-0.038c-0.215,0.194-0.233,0.526-0.038,0.742
					c0.003,0.003,0.005,0.006,0.008,0.008l2.23,2.418C624.648,173.507,624.788,173.568,624.936,173.567z"/>
			</g>
			<g id="Group_2809" transform="translate(69.506 151.324)">
				<path id="Path_3415" fill="#F2EFEF" stroke="#707070" d="M614.216,184.596c0.29,0.001,0.525-0.234,0.526-0.523
					c0-0.124-0.043-0.244-0.123-0.339l-2.883-3.434c-0.188-0.221-0.519-0.247-0.74-0.059c-0.218,0.186-0.247,0.513-0.064,0.734
					l2.883,3.434C613.914,184.527,614.061,184.596,614.216,184.596z"/>
			</g>
			<g id="Group_2810" transform="translate(83.636 138.647)">
				<path id="Path_3416" fill="#F2EFEF" stroke="#707070" d="M602.879,193.263c0.29,0,0.525-0.234,0.526-0.524
					c0-0.121-0.041-0.238-0.118-0.332l-2.116-2.618c-0.182-0.225-0.513-0.26-0.738-0.078c-0.225,0.182-0.26,0.513-0.078,0.738l0,0
					l2.117,2.62C602.572,193.192,602.721,193.263,602.879,193.263z"/>
			</g>
			<g id="Group_2811" transform="translate(96.935 126.422)">
				<path id="Path_3417" fill="#F2EFEF" stroke="#707070" d="M594.518,203.565c0.29,0,0.525-0.236,0.525-0.526
					c0-0.137-0.054-0.269-0.15-0.367l-3.704-3.773c-0.203-0.207-0.536-0.21-0.743-0.007c-0.207,0.203-0.21,0.536-0.007,0.743
					l3.704,3.773C594.242,203.508,594.377,203.564,594.518,203.565z"/>
			</g>
			<g id="Group_2812" transform="translate(111.132 113.234)">
				<path id="Path_3418" fill="#F2EFEF" stroke="#707070" d="M582.729,212.246c0.29,0,0.525-0.235,0.525-0.525
					c0-0.138-0.054-0.27-0.15-0.368l-2.537-2.587c-0.203-0.207-0.536-0.211-0.743-0.008s-0.211,0.536-0.008,0.743l2.537,2.587
					C582.452,212.189,582.588,212.246,582.729,212.246z"/>
			</g>
			<g id="Group_2813" transform="translate(125.895 99.373)">
				<path id="Path_3419" fill="#F2EFEF" stroke="#707070" d="M572.903,224.116c0.29,0,0.525-0.236,0.524-0.526
					c0-0.131-0.049-0.258-0.138-0.354l-3.756-4.09c-0.2-0.21-0.532-0.217-0.742-0.017c-0.204,0.195-0.218,0.516-0.031,0.727
					l3.756,4.09C572.617,224.053,572.756,224.115,572.903,224.116z"/>
			</g>
			<g id="Group_2814" transform="translate(142.112 84.054)">
				<path id="Path_3420" fill="#F2EFEF" stroke="#707070" d="M559.297,233.814c0.29,0,0.525-0.235,0.525-0.525
					c0-0.138-0.054-0.27-0.151-0.368l-2.282-2.327c-0.203-0.207-0.536-0.21-0.742-0.007c-0.207,0.203-0.21,0.536-0.007,0.742
					l2.282,2.327C559.021,233.757,559.156,233.814,559.297,233.814z"/>
			</g>
			<g id="Group_2815" transform="translate(156.551 70.355)">
				<path id="Path_3421" fill="#F2EFEF" stroke="#707070" d="M549.408,245.25c0.29,0,0.525-0.235,0.525-0.525
					c0-0.131-0.049-0.256-0.137-0.353l-3.196-3.514c-0.202-0.208-0.535-0.212-0.742-0.01c-0.198,0.192-0.213,0.505-0.035,0.715
					l3.196,3.514C549.12,245.187,549.26,245.249,549.408,245.25z"/>
			</g>
			<g id="Group_2816" transform="translate(171.141 56.363)">
				<path id="Path_3422" fill="#F2EFEF" stroke="#707070" d="M536.779,253.846c0.29,0,0.525-0.236,0.525-0.526
					c0-0.13-0.048-0.255-0.135-0.351l-1.481-1.642c-0.194-0.216-0.526-0.233-0.742-0.039c-0.216,0.194-0.233,0.526-0.039,0.742
					l1.481,1.642C536.488,253.783,536.63,253.846,536.779,253.846z"/>
			</g>
			<g id="Group_2817" transform="translate(186.36 41.753)">
				<path id="Path_3423" fill="#F2EFEF" stroke="#707070" d="M526.459,266.072c0.29-0.001,0.525-0.236,0.524-0.527
					c0-0.126-0.046-0.248-0.128-0.343l-2.546-2.938c-0.19-0.219-0.522-0.243-0.741-0.053c-0.219,0.19-0.243,0.522-0.053,0.741
					l2.546,2.938C526.16,266.007,526.306,266.074,526.459,266.072z"/>
			</g>
			<g id="Group_2818" transform="translate(201.978 26.533)">
				<path id="Path_3424" fill="#F2EFEF" stroke="#707070" d="M514.059,276.387c0.29,0,0.525-0.235,0.525-0.525
					c0-0.138-0.054-0.27-0.151-0.368l-1.831-1.867c-0.203-0.207-0.536-0.21-0.743-0.007c-0.207,0.203-0.21,0.536-0.007,0.743l0,0
					l1.831,1.867C513.783,276.331,513.918,276.388,514.059,276.387z"/>
			</g>
			<g id="Group_2819" transform="translate(216.819 11.796)">
				<path id="Path_3425" fill="#F2EFEF" stroke="#707070" d="M503.871,288.331c0.29,0,0.525-0.235,0.526-0.525
					c0-0.138-0.054-0.271-0.151-0.369l-2.745-2.785c-0.204-0.207-0.536-0.209-0.743-0.005c-0.207,0.204-0.209,0.536-0.005,0.743
					l2.746,2.785C503.596,288.274,503.73,288.33,503.871,288.331z"/>
			</g>
		</g>
		<g id="Group_2828" transform="translate(185.329 295.321)">
			<g id="Group_2821">
				<path id="Path_3426" fill="#F2EFEF" stroke="#707070" d="M-136.709,142.412c-5.737-11.883-3.202-20.046,1.628-22.811
					s8.844-3.708,12.087-1.119c2.374,1.896,2.137,3.691,6.569,1.486c4.433-2.205,11.754-2.285,17.007,6.801
					s6.883,24.266-6.365,28.186S-130.968,154.295-136.709,142.412z M-123.983,123.136c-4.09-2.164-6.33,0.355-6.023,2.801
					c0.191,1.528,0.343,3.707,4.82,3.593S-119.893,125.3-123.983,123.136L-123.983,123.136z"/>
			</g>
			<g id="Group_2822" transform="translate(13.754 53.058)">
				<path id="Path_3427" fill="#F2EFEF" stroke="#707070" d="M-145.449,78.869c-1.083-0.014,0.283-1.788-2.091-1.585
					c-2.374,0.203-3.756,4.67-1.88,5.543c1.876,0.873,1.914,1.085,2.074,2.907s0.806,2.36,2.653,1.292s2.613,2.375,3.746,0.064
					c1.133-2.311,2.313-5.711,0.372-5.68S-142.605,78.904-145.449,78.869z"/>
			</g>
			<g id="Group_2823" transform="translate(36.466 105.741)">
				<path id="Path_3428" fill="#F2EFEF" stroke="#707070" d="M-162.87,38.11c-1.947-0.87-2.28,0.659-3.766,1.844
					c-1.487,1.185-0.164,2.558,1.401,3.311s1.562-0.893,3.411-0.315c1.849,0.577,2.492,1.069,3.584-0.056
					c1.092-1.125,1.156-3.673-0.382-4.129C-160.16,38.309-160.373,39.225-162.87,38.11z"/>
			</g>
			<g id="Group_2824" transform="translate(81.44 111.423)">
				<path id="Path_3429" fill="#F2EFEF" stroke="#707070" d="M-195.365,34.714c-1.665-0.494-4.928-0.441-5.428,1.699
					s0.366,3.406,2.335,3.673c1.969,0.267,0.623,1.887,2.565,1.857c1.942-0.03,2.548,0.063,3.451-1.516
					c0.902-1.579,2.151-1.008,2.602-2.589c0.451-1.581,0.856-2.068-0.265-2.862c-1.121-0.794-1.807-1.747-2.805-1.221
					C-193.909,34.281-193.058,35.398-195.365,34.714z"/>
			</g>
			<g id="Group_2825" transform="translate(133.468 95.612)">
				<path id="Path_3430" fill="#F2EFEF" stroke="#707070" d="M-237.974,47.259c-1.227-0.844-2.666,1.892-1.37,2.969
					s2.04,2.653,2.015,4.001c-0.025,1.348,1.93,1.467,2.966-0.274c1.036-1.741,1.142-2.2,1.259-4.156s1.074-4.553-0.403-4.358
					C-234.984,45.637-235.098,49.238-237.974,47.259z"/>
			</g>
			<g id="Group_2826" transform="translate(124.875 51.151)">
				<path id="Path_3431" fill="#F2EFEF" stroke="#707070" d="M-232.258,82.863c-2.756,1.389-0.025,4.997,1.906,4.864
					s1.75,1.139,3.411-0.316c1.661-1.455,2.762-0.863,3.207-2.523c0.445-1.659,1.051-4.557-1.31-4.338
					c-2.36,0.218-3.652-0.26-3.354-1.335c0.299-1.075-1.128-0.345-1.908,0.924C-231.084,81.407-230.076,81.764-232.258,82.863z"/>
			</g>
			<g id="Group_2827" transform="translate(100.696 24.955)">
				<path id="Path_3432" fill="#F2EFEF" stroke="#707070" d="M-213.61,99.753c-2.96,0.176-1.763,3.581,0.932,3.615
					c2.695,0.034,0.57,3.488,2.927,2.015c2.357-1.473,2.677-1.254,2.656-3.096c-0.021-1.843-1.803-2.127-1.803-2.127
					s-1.062-0.799-1.489-1.657C-210.815,97.646-211.979,99.655-213.61,99.753z"/>
			</g>
		</g>
		<g id="Group_2832" transform="translate(160.633 264.88)">
			<g id="Group_2829" transform="translate(0)">
				<path id="Path_3433" fill="#F2EFEF" stroke="#707070" d="M-66.465,152.051l-17.438,31.569l-4.623-2.689l-0.5-1.48
					c0,0,15.085-27.828,16.902-30.173c1.816-2.345,3.949-1.306,4.966-0.348C-66.145,149.886-66.053,151.302-66.465,152.051z"/>
			</g>
			<g id="Group_2830" transform="translate(30.63 134.8)">
				<circle id="Ellipse_41" fill="#F2EFEF" stroke="#707070" cx="-117.167" cy="46.859" r="3.321"/>
			</g>
			<g id="Group_2831" transform="translate(15.712 11.387)">
				<path id="Path_3434" fill="#F2EFEF" stroke="#707070" d="M-96.719,160.448c0.004,0.349,0.29,0.629,0.639,0.625
					c0.22-0.002,0.423-0.119,0.536-0.308l11.703-19.548c0.174-0.303,0.07-0.69-0.233-0.864c-0.296-0.17-0.673-0.075-0.853,0.215
					l-11.703,19.548C-96.687,160.219-96.717,160.332-96.719,160.448z"/>
			</g>
		</g>
		<g id="Group_2856" transform="translate(367.935 83.74)">
			<g id="Group_2833" transform="translate(45.466 106.98)">
				<path id="Path_3435" fill="#F2EFEF" stroke="#707070" d="M365.336-179.565l5.122,3.134l-1.575,2.514l-5.419-1.673
					L365.336-179.565z"/>
			</g>
			<g id="Group_2834" transform="translate(11.851 80.09)">
				<path id="Path_3436" fill="#F2EFEF" stroke="#707070" d="M403.249-158.615c0,0-2.418,2.938-5.473,9.461s-3.4,7.644-3.4,7.644
					s-8.903-6.056-4.581-13.321C394.117-162.096,403.249-158.615,403.249-158.615z"/>
			</g>
			<g id="Group_2835" transform="translate(29.38 87.73)">
				<path id="Path_3437" fill="#F2EFEF" stroke="#707070" d="M381.629-164.375c0.004-0.01,0.006-0.02,0.01-0.031
					c0.083-0.278-0.073-0.571-0.351-0.657c-0.083-0.025-0.861-0.243-2.484,0.05c-1.703,0.309-3.11,1.864-3.169,1.929
					c-0.193,0.223-0.168,0.559,0.055,0.752c0.217,0.188,0.544,0.17,0.739-0.041c0.013-0.013,1.226-1.349,2.566-1.592
					c1.357-0.246,1.983-0.081,1.99-0.079C381.253-163.969,381.533-164.114,381.629-164.375z"/>
			</g>
			<g id="Group_2836" transform="translate(0 89.821)">
				<path id="Path_3438" fill="#F2EFEF" stroke="#707070" d="M401.648-164.562c0,0-2.931-3.362-4.008-1.71s3.578,2.524,3.578,2.524
					L401.648-164.562z"/>
			</g>
			<g id="Group_2837" transform="translate(250.288 201.317)">
				<path id="Path_3439" fill="#F2EFEF" stroke="#707070" d="M210.234-244.987c0,0,8.4,3.191,9.882,1.012
					c1.482-2.179-7.08-6.165-7.08-6.165L210.234-244.987z"/>
			</g>
			<g id="Group_2838" transform="translate(286.733 217.589)">
				<path id="Path_3440" fill="#F2EFEF" stroke="#707070" d="M183.22-257.416c1.059,0.505,3.463-2.865,3.829-4.165
					c0.366-1.3-2.13-0.879-3.378,1.333C182.421-258.035,183.22-257.416,183.22-257.416z"/>
			</g>
			<g id="Group_2839" transform="translate(134.826 57.571)">
				<path id="Path_3441" fill="#F2EFEF" stroke="#707070" d="M300.958-142.603l0.229,6l-2.965,0.081l-1.609-5.436L300.958-142.603z"
					/>
			</g>
			<g id="Group_2840" transform="translate(105.119 22.516)">
				<path id="Path_3442" fill="#F2EFEF" stroke="#707070" d="M337.992-107.258c0,0-3.787-0.386-10.908,0.685
					s-8.247,1.404-8.247,1.404s0.11-10.767,8.552-11.193C335.832-116.789,337.992-107.258,337.992-107.258z"/>
			</g>
			<g id="Group_2841" transform="translate(54.732 76.29)">
				<path id="Path_3443" fill="#F2EFEF" stroke="#707070" d="M380.767-156.605c5.83-0.028,17.961,0.516,26.435,16.199
					s-5.085,31.911-20.011,34.438c-14.927,2.527-30.522-8.42-30.658-29.374C356.396-156.297,380.767-156.605,380.767-156.605z"/>
			</g>
			<g id="Group_2842" transform="translate(80.711 95.915)">
				<path id="Path_3444" fill="#F2EFEF" stroke="#707070" d="M356.895-171.287c5.276-0.05,17.444,3.64,20.491,16.095
					c2.775,11.341-2.556,20.747-15.167,24.289c-12.611,3.542-21.682-3.048-24.542-16.291S342.733-171.152,356.895-171.287z"/>
			</g>
			<g id="Group_2843" transform="translate(146.08 32.337)">
				<path id="Path_3445" fill="#F2EFEF" stroke="#707070" d="M293.573-119.782c0.038-0.105,0.04-0.22,0.008-0.327
					c-0.025-0.083-0.276-0.852-1.419-2.04c-1.201-1.247-3.274-1.557-3.362-1.57c-0.292-0.039-0.56,0.165-0.599,0.457
					c-0.039,0.287,0.16,0.553,0.446,0.597c0.018,0.003,1.803,0.274,2.746,1.254c0.957,0.994,1.166,1.606,1.168,1.612
					c0.092,0.277,0.388,0.43,0.667,0.345C293.389-119.502,293.517-119.624,293.573-119.782z"/>
			</g>
			<g id="Group_2844" transform="translate(132.305 5.565)">
				<path id="Path_3446" fill="#F2EFEF" stroke="#707070" d="M300.203-99.411c0,0,1.175-4.302-0.796-4.284s-0.119,4.378-0.119,4.378
					L300.203-99.411z"/>
			</g>
			<g id="Group_2845" transform="translate(7.182)">
				<path id="Path_3447" fill="#F2EFEF" stroke="#707070" d="M424.129-96.89c0.1-0.277-0.044-0.582-0.321-0.681
					c-0.204-0.073-0.432-0.016-0.577,0.146c-0.048,0.05-1.262,1.33-4.065,1.312c-2.732-0.018-4.055-3.062-4.068-3.093
					c-0.107-0.252-0.387-0.382-0.649-0.3c-0.058,0.018-5.814,1.828-10.755,4.617c-4.074,2.345-7.798,5.254-11.059,8.64
					c-0.169,0.186-0.185,0.466-0.038,0.67c0.009,0.013,1.041,1.503,1.337,4.588c0.198,1.722-0.407,3.44-1.64,4.658
					c-0.224,0.19-0.252,0.526-0.062,0.751c0.19,0.224,0.526,0.252,0.751,0.062c1.506-1.44,2.25-3.502,2.012-5.572
					c-0.241-2.506-0.932-4.055-1.3-4.726c3.125-3.176,6.665-5.915,10.525-8.142c4.065-2.295,8.702-3.916,10.117-4.387
					c0.539,0.989,2.081,3.283,4.824,3.301c3.315,0.022,4.804-1.597,4.865-1.666C424.071-96.766,424.106-96.826,424.129-96.89z"/>
			</g>
			<g id="Group_2846" transform="translate(122.709 117.664)">
				<path id="Path_3448" fill="#F2EFEF" stroke="#707070" d="M310.666-180.749c-1.167,0.927-6.254-5.443-4.694-6.665
					C307.532-188.636,311.834-181.676,310.666-180.749z"/>
			</g>
			<g id="Group_2847" transform="translate(104.226 200.089)">
				<path id="Path_3449" fill="#F2EFEF" stroke="#707070" d="M319.608-245.148c-0.912-1.45,4.498-5.559,6.02-3.514
					S320.519-243.697,319.608-245.148z"/>
			</g>
			<g id="Group_2848" transform="translate(198.364 142.582)">
				<path id="Path_3450" fill="#F2EFEF" stroke="#707070" d="M255.112-205.562c0.888,1.735-4.253,4.662-5.796,2.53
					C247.773-205.165,254.223-207.298,255.112-205.562z"/>
			</g>
			<g id="Group_2849" transform="translate(181.964 213.226)">
				<path id="Path_3451" fill="#F2EFEF" stroke="#707070" d="M261.73-258.856c1.456-1.192,5.231,3.464,3.41,4.836
					C263.32-252.647,260.274-257.664,261.73-258.856z"/>
			</g>
			<g id="Group_2850" transform="translate(157.408 106.681)">
				<path id="Path_3452" fill="#F2EFEF" stroke="#707070" d="M280.752-160.789l0.01-0.028l5.312-17.839
					c0.081-0.283-0.082-0.578-0.365-0.659c-0.279-0.08-0.571,0.078-0.657,0.355l-5.311,17.839c-0.085,0.282,0.075,0.579,0.357,0.663
					c0.272,0.082,0.56-0.064,0.655-0.331H280.752z"/>
			</g>
			<g id="Group_2851" transform="translate(106.248 159.676)">
				<path id="Path_3453" fill="#F2EFEF" stroke="#707070" d="M317.992-217.287l12.386,4.04l0.186-1.904l-12.46-3.837
					L317.992-217.287z"/>
			</g>
			<g id="Group_2852" transform="translate(147.74 170.234)">
				<path id="Path_3454" fill="#F2EFEF" stroke="#707070" d="M291.694-224.49c0.22,2.252-2.379,2.439-3.885,1.599
					c-1.507-0.841-0.94-3.079,1.02-3.816C290.789-227.443,291.569-225.761,291.694-224.49z"/>
			</g>
			<g id="Group_2853" transform="translate(166.777 85.853)">
				<path id="Path_3455" fill="#F2EFEF" stroke="#707070" d="M283.519-159.931c0.079-0.223,0.003-0.471-0.189-0.611
					c-2.993-1.992-6.484-3.107-10.077-3.218c-0.294-0.003-0.536,0.232-0.539,0.527c-0.003,0.291,0.227,0.531,0.518,0.539
					c5.414,0.114,9.434,2.986,9.473,3.015c0.238,0.173,0.571,0.12,0.744-0.118C283.478-159.838,283.501-159.883,283.519-159.931z"/>
			</g>
			<g id="Group_2854" transform="translate(135.996 276.365)">
				<path id="Path_3456" fill="#F2EFEF" stroke="#707070" d="M302.022-305.688c0,0-2.109,8.735-4.745,8.727
					c-2.635-0.008-1.09-9.324-1.09-9.324L302.022-305.688z"/>
			</g>
			<g id="Group_2855" transform="translate(128.47 313.306)">
				<path id="Path_3457" fill="#F2EFEF" stroke="#707070" d="M307.395-332.676c-0.181,1.159-4.32,1.24-5.599,0.809
					c-1.279-0.432,0.477-2.254,3.008-2.035C307.335-333.684,307.395-332.676,307.395-332.676z"/>
			</g>
		</g>
		<g id="Group_2863" transform="translate(0 55.017)">
			<g id="Group_2857">
				<path id="Path_3458" fill="#F2EFEF" stroke="#707070" d="M34.411,240.919c2.782,2.566,34.483,31.083,40.217,35.115
					c5.734,4.032,8.734,4.485,14.348-1.318c5.789-5.983,14.057-13.681,15.904-16.113c1.847-2.432,5.455-4.375-1.131-10.638
					c-7.151-6.801-33.36-32.884-36.747-36.143s-5.735-5.513-10.965-0.108s-18.064,17.904-21.11,20.601
					S31.972,238.669,34.411,240.919z"/>
			</g>
			<g id="Group_2858" transform="translate(19.489 24.102)">
				<path id="Path_3459" fill="#F2EFEF" stroke="#707070" d="M37.818,191.675c1.91-2.086,3.631-4.553,6.827-1.408
					s14.449,15.149,23.289,24.029s11.601,11.389,13.791,13.557c2.19,2.168,2.459,1.584-2.188,6.327s-12.925,14.202-14.247,15.564
					c-1.322,1.363-3.917,2.337-5.895,0.536s-35.585-31.044-38.859-33.944c-3.274-2.9-3.212-4.976,1.276-9.384
					C26.834,202.017,35.443,194.268,37.818,191.675z"/>
			</g>
			<g id="Group_2859" transform="translate(257.37 80.961)">
				<path id="Path_3460" fill="#F2EFEF" stroke="#707070" d="M-201.791,147.041c-0.187-1.291,0.675-1.28,2.487-1.15
					s7.373,0.329,8.602,0.668c1.23,0.34,2.023,1.854,0.612,3.11c-1.411,1.256-10.572,10.902-11.535,11.789
					c-0.962,0.886-2.338,0.033-2.818-1.107c-0.48-1.14,8.133-9.218,9.184-10.465c0.694-0.823-5.099,0.041-5.865-0.863
					C-201.583,148.472-201.82,147.768-201.791,147.041z"/>
			</g>
			<g id="Group_2860" transform="translate(165.929 72.987)">
				<path id="Path_3461" fill="#F2EFEF" stroke="#707070" d="M-98.288,165.479c0.671-1.007,4.817-5.787,8.896-1.925
					c4.08,3.862,0.115,7.497-1.966,8.404c-2.082,0.907-8.37,1.761-8.941,2.323c-0.571,0.562,4.413,3.328,4.423,4.134
					c0.01,0.805-2.195,2.355-2.855,2.358c-0.66,0.003-6.179-4.762-6.859-6.369s1.436-3.717,2.354-3.752
					c0.917-0.035,11.573-1.082,10.968-3.636c-0.49-2.068-2.897-0.693-4.153,0.579C-97.199,168.376-98.288,165.479-98.288,165.479z"
					/>
			</g>
			<g id="Group_2861" transform="translate(84.416 61.757)">
				<path id="Path_3462" fill="#F2EFEF" stroke="#707070" d="M-3.838,184.555c-0.225,1.541-0.361,3.191,0.724,3.018
					c1.085-0.173,3.697-1.203,4.43,0.569c0.988,2.388-2.14,2.762-3.751,2.646s-1.279-1.027-2.299,0.357
					c-1.02,1.384,0.464,1.329,0.729,3.42c0.37,2.907-3.408,3.677-4.308,2.305c-1.352-2.06-0.498-3.095-0.54-3.824
					c-0.041-0.729-2.603-1.868-2.995-1.092c-0.393,0.776-1.617,5.208,2.265,8.173c3.324,2.538,7.343-0.265,8.265-2.382
					c0.922-2.117-0.087-3.995-0.087-3.995s3.94-0.468,5.636-3.676s-0.956-6.113-3.47-6.445
					C-2.238,183.233-3.838,184.555-3.838,184.555z"/>
			</g>
			<g id="Group_2862" transform="translate(45.905 191.002)">
				<path id="Path_3463" fill="#F2EFEF" stroke="#707070" d="M23.718,77.503c-0.387,1.187,5.769,6.223,6.922,5.904
					c1.153-0.319,1.603-2.499-1.74-5.252S24.064,76.445,23.718,77.503z"/>
			</g>
		</g>
		<g id="Group_2867" transform="translate(401.932 243.749)">
			<g id="Group_2864" transform="translate(52.92)">
				<path id="Path_3464" fill="#F2EFEF" stroke="#707070" d="M115.023,268.97L115.023,268.97c-2.461,1.221-6.064,0.889-7.26-1.738
					c-2.551-5.601,3.123-8.398,3.123-8.398s2.269-11.376,4.07-18.972c1.247-5.255,2.695-12.197,4.32-17.368
					c0.085-0.265,0.369-0.411,0.634-0.326c0.22,0.071,0.364,0.282,0.349,0.513c-0.173,4.818-1.124,11.214-2.501,19.556
					c-2.211,13.389-3.441,16.793-3.441,16.793s3.51,0.319,4.062,4.568c0.178,1.371-0.638,3.392-0.638,3.392s0.422,2.629-1.017,4.507
					c-0.119,0.15-0.337,0.175-0.487,0.057c-0.044-0.034-0.078-0.079-0.101-0.129L115.023,268.97z M114.031,261.126
					c-3.524-0.907-4.932,1.78-4.674,3.705c0,0,0.013,3.222,3.677,2.757C116.985,267.086,116.834,261.847,114.031,261.126
					L114.031,261.126z"/>
			</g>
			<g id="Group_2865" transform="translate(0 38.117)">
				<path id="Path_3465" fill="#F2EFEF" stroke="#707070" d="M146.74,217.6c0.676-5.85,6.638-5.536,8.285-4.118
					c0,0,6.603-4.724,11.497-8.564c4.895-3.84,20.508-13.659,18.957-10.769s-19.393,15.917-19.393,15.917l-8.438,6.09
					c0,0,0.887,3.139-1.801,5.871C152.799,225.125,146.07,223.395,146.74,217.6z M152.897,221.223
					c2.427-0.792,3.017-3.024,1.845-5.131c-1.069-1.922-4.684-1.817-5.66,1.08C148.253,219.629,150.273,222.079,152.897,221.223z"/>
			</g>
			<g id="Group_2866" transform="translate(84.762 82.121)">
				<path id="Path_3466" fill="#F2EFEF" stroke="#707070" d="M83.705,162.244c-1.07-0.766,0.126-2.105,0.963-1.281
					C85.365,161.65,84.292,162.665,83.705,162.244z"/>
			</g>
		</g>
		<g id="Group_2871" transform="translate(144.673 152.319)">
			<g id="Group_2868" transform="translate(222.085 54.313)">
				<path id="Path_3467" fill="#F2EFEF" stroke="#707070" d="M-38.721,301.604c1.626-2.051,15.866-15.832,21.299-19.867
					c4.658-3.46,6.596-2.476,7.08,2.526c0.484,5.002-0.482,23.526-0.961,27.919c-0.48,4.393-0.774,5.097-1.724,5.101
					s-4.947-1.209-7.318-2.405c-2.37-1.196-2.959-1.858-2.613-3.137s1.446-4.094,1.914-5.735c0.362-1.263,0.664-1.747,0.173-2.271
					c-0.492-0.525-3.573-1.949-4.072-2.251c-0.387-0.234-0.849-0.523-1.498,0.382c-1.288,1.795-3.255,4.282-3.888,5.107
					c-1.168,1.523-2.015,1.496-2.713,1.033c-0.698-0.463-3.59-2.286-4.554-2.893C-38.561,304.505-40.346,303.654-38.721,301.604z
					 M-21.976,297.792l2.858,1.546c0.733,0.396,1.068-0.92,1.551-3.012c0.206-0.893,1.219-4.622,0.532-4.912
					c-0.966-0.407-4.135,3.797-5.009,4.617C-22.924,296.851-22.576,297.467-21.976,297.792L-21.976,297.792z"/>
			</g>
			<g id="Group_2869" transform="translate(120.963)">
				<path id="Path_3468" fill="#F2EFEF" stroke="#707070" d="M39.321,335.913c1.335-0.988,2.847-1.709,4.455-2.124
					c0.212-0.051,0.343-0.265,0.292-0.477c-0.009-0.036-0.022-0.07-0.04-0.102c-0.579-1.033-1.671-3.751-0.003-7.609
					c2.158-4.989,7.184-5.694,12.497-5.1c5.313,0.594,7.326,0.978,7.326,0.978c1.24,0.166,1.758,0.579,1.329,2.931
					c-0.428,2.351-3.718,28.069-3.974,29.871c-0.255,1.802-1.028,1.584-3.876,1.432s-13.707-0.453-18.334-5.315
					C34.371,345.535,36.438,338.067,39.321,335.913z M56.003,327.861c0.028-0.204-0.104-0.396-0.305-0.443
					c-1.025-0.229-3.972-0.552-4.467,3.16c-0.308,2.306,2.589,2.735,3.65,2.814c0.212,0.016,0.4-0.136,0.428-0.346L56.003,327.861z
					 M45.87,342.66c-0.643,3.91,5.592,4.722,7.219,4.866c0.214,0.019,0.404-0.134,0.432-0.346l0.797-5.97
					c0.027-0.198-0.097-0.386-0.29-0.439C52.527,340.361,46.483,338.951,45.87,342.66L45.87,342.66z"/>
			</g>
			<g id="Group_2870" transform="translate(0 3.142)">
				<path id="Path_3469" fill="#F2EFEF" stroke="#707070" d="M134.138,332.617l-5.814,1.705c-0.303,0.091-0.627-0.058-0.756-0.348
					c-1.005-2.284-2.67-11.857,6.599-14.976c13.541-4.557,18.991,7.133,20.945,14.025c2.836,10-0.694,17.605-11.429,19.588
					c-10.349,1.912-13.722-6.023-14.367-8.429c-0.088-0.331,0.104-0.672,0.433-0.767l7.315-2.146
					c0.319-0.094,0.656,0.076,0.77,0.388c0.406,1.121,2.813,2.897,6.344,0.763c5.45-3.294,2.558-12.48-1.675-14.794
					c-4.234-2.314-6.607,0.099-7.261,1.507c-0.381,0.931-0.603,1.921-0.655,2.926C134.569,332.321,134.39,332.543,134.138,332.617z"
					/>
			</g>
		</g>
		<g id="Group_2878" transform="translate(311.299 119.471)">
			<g id="Group_2872" transform="translate(0 68.137)">
				<path id="Path_3470" fill="#F2EFEF" stroke="#707070" d="M-177.908,308.74c-3.023-5.422-14.755-13.511-27.556-14.844
					c-12.801-1.334-18.4,14.133-18.133,24.533c0.267,10.4,9.688,23.022,25.866,21.244s18.666-8.267,20.888-17.066
					S-177.908,308.74-177.908,308.74z"/>
			</g>
			<g id="Group_2873" transform="translate(128.306 119.526)">
				<path id="Path_3471" fill="#F2EFEF" stroke="#707070" d="M-311.636,258.617c-1.422-3.4-5.689-3.933-7.2-2.511
					c-1.511,1.422-0.978,8.355,3.6,8.444C-310.657,264.64-311.636,258.617-311.636,258.617z"/>
			</g>
			<g id="Group_2874" transform="translate(108.022 61.83)">
				<path id="Path_3472" fill="#F2EFEF" stroke="#707070" d="M-289.218,300.122v-1.519c0,0-4.534-0.711-9.6,2.4
					c-5.066,3.111-5.6,6.045-5.6,6.045l1.321,0.515c0,0,2.057-4.692,7.39-6.114S-289.218,300.122-289.218,300.122z"/>
			</g>
			<g id="Group_2875" transform="translate(39.555)">
				<path id="Path_3473" fill="#F2EFEF" stroke="#707070" d="M-230.484,359.795c0,0-3.246-4.34-7.068-9.317
					c-3.822-4.978-15.644-5.689-15.644-5.689s-0.267,11.378,7.466,14.488C-237.997,362.388-230.484,359.795-230.484,359.795z"/>
			</g>
			<g id="Group_2876" transform="translate(88.259 78.702)">
				<path id="Path_3474" fill="#F2EFEF" stroke="#707070" d="M-280.616,291.66c0.917,0.023,1.829-0.144,2.678-0.489
					c0.262-0.134,0.367-0.455,0.233-0.717c-0.128-0.251-0.428-0.359-0.687-0.248l0,0c-0.101,0.046-2.513,1.123-6.038-0.515
					c-3.51-1.633-4.156-3.4-4.163-3.418c-0.095-0.279-0.397-0.429-0.676-0.334c-0.274,0.093-0.424,0.388-0.338,0.664
					c0.028,0.089,0.739,2.2,4.728,4.055C-283.549,291.301-282.093,291.643-280.616,291.66z"/>
			</g>
			<g id="Group_2877" transform="translate(49.473 11.751)">
				<path id="Path_3475" fill="#F2EFEF" stroke="#707070" d="M-235.21,349.436c0.305,0.01,0.611-0.015,0.91-0.076
					c0.285-0.075,0.455-0.367,0.38-0.653s-0.367-0.455-0.653-0.38c-0.018,0.005-2.679,0.562-11.111-2.548
					c-8.576-3.163-13.936-9.527-13.989-9.591c-0.186-0.228-0.522-0.263-0.75-0.077c-0.228,0.186-0.263,0.522-0.077,0.75
					c0.002,0.003,0.004,0.005,0.006,0.008c0.224,0.27,5.586,6.645,14.44,9.911C-239.838,349.075-236.62,349.436-235.21,349.436z"/>
			</g>
		</g>
		<g id="Group_2897" transform="translate(303.133 195.947)">
			<g id="Group_2879" transform="translate(28.181 169.883)">
				<path id="Path_3476" fill="#F2EFEF" stroke="#707070" d="M599.155,7.434l10.932,3.87c0,0-9.504,21.405-13.421,30.897
					s-5.138,10.681-5.138,10.681s-0.643,1.028-25.256-8.539c-9.143-3.554-18.039-6.454-20.292-7.76
					c-0.442-0.256-0.622-0.803-0.419-1.271l8.984-16.356L599.155,7.434z"/>
			</g>
			<g id="Group_2880" transform="translate(219.167 158.762)">
				<path id="Path_3477" fill="#F2EFEF" stroke="#707070" d="M422.352,15.754c0,0,2.571,1.234,1.543,4.784s-19.65,41.51-19.65,41.51
					l-1.646-3.909l9.773-30.532L422.352,15.754z"/>
			</g>
			<g id="Group_2881" transform="translate(31.697 254.974)">
				<path id="Path_3478" fill="#F2EFEF" stroke="#707070" d="M546.62-56.224c0,0,0.28,1.087-0.935,3.71
					c-1.058,2.282-2.836,3.023-2.836,3.023l45.163,17.284l2.058-5.864l-34.463-18.152H546.62z"/>
			</g>
			<g id="Group_2882" transform="translate(38.114 142.017)">
				<path id="Path_3479" fill="#F2EFEF" stroke="#707070" d="M592.603,28.281l10.802,4.218c0,0-10.185,21.09-14.403,30.453
					c-4.218,9.363-5.35,11.934-5.35,11.934s-14.969-6.829-26.08-11.355c-9.084-3.701-16.842-6.439-19.051-7.817
					c-0.433-0.27-0.596-0.823-0.378-1.285l7.238-15.552L592.603,28.281z"/>
			</g>
			<g id="Group_2883" transform="translate(211 327.038)">
				<path id="Path_3480" fill="#F2EFEF" stroke="#707070" d="M408.709-104.273l2.058-5.864c0,0,2.468,1.492,1.646,3.909
					C411.582-103.787,408.709-104.273,408.709-104.273z"/>
			</g>
			<g id="Group_2884" transform="translate(181.537 187.539)">
				<path id="Path_3481" fill="#F2EFEF" stroke="#707070" d="M441.154-0.661c0.341,0.001,0.618-0.275,0.618-0.616
					c0-0.254-0.154-0.482-0.39-0.575l-9.786-3.879c-0.317-0.126-0.676,0.029-0.801,0.346c-0.126,0.317,0.029,0.676,0.346,0.801
					l9.786,3.879C440.999-0.675,441.076-0.661,441.154-0.661z"/>
			</g>
			<g id="Group_2885" transform="translate(168.973 203.168)">
				<path id="Path_3482" fill="#F2EFEF" stroke="#707070" d="M451.765-12.241c0.341,0,0.617-0.277,0.617-0.618
					c0-0.259-0.163-0.491-0.406-0.58l-10.997-3.991c-0.322-0.112-0.674,0.058-0.786,0.38c-0.11,0.316,0.052,0.663,0.365,0.781
					l10.997,3.991C451.622-12.254,451.693-12.241,451.765-12.241z"/>
			</g>
			<g id="Group_2886" transform="translate(153.539 214.703)">
				<path id="Path_3483" fill="#F2EFEF" stroke="#707070" d="M464.923-19.799c0.341,0,0.617-0.277,0.617-0.618
					c0-0.275-0.182-0.517-0.446-0.593c-2.843-0.82-12.436-4.994-12.532-5.036c-0.312-0.136-0.676,0.007-0.812,0.319
					c-0.136,0.312,0.007,0.676,0.319,0.812c0.397,0.173,9.764,4.248,12.683,5.091C464.807-19.807,464.865-19.799,464.923-19.799z"/>
			</g>
			<g id="Group_2887" transform="translate(0 32.147)">
				<path id="Path_3484" fill="#F2EFEF" stroke="#707070" d="M596.797,161.355l-30.011-21.104c-0.238-0.167-0.295-0.495-0.128-0.733
					c0.029-0.041,0.063-0.077,0.102-0.108l36.115-28.934c0,0,12.757,6.79,22.736,14.506s10.185,9.259,10.185,9.259
					s-14.197,11.419-24.691,17.901c-4.422,2.69-8.608,5.749-12.515,9.143C598.073,161.703,597.344,161.731,596.797,161.355z"/>
			</g>
			<g id="Group_2888" transform="translate(130.13 87.557)">
				<path id="Path_3485" fill="#F2EFEF" stroke="#707070" d="M505.472,69.023c0,0,4.28,2.472,4.786,6.516
					c0.309,2.468-0.618,3.292-0.618,3.292l-38.778,27.16l-1.653-7.973l24.176-20.524L505.472,69.023z"/>
			</g>
			<g id="Group_2889" transform="translate(123.595 205.397)">
				<path id="Path_3486" fill="#F2EFEF" stroke="#707070" d="M474.098-11.849c0,0,3.369,1.543,4.629-1.646
					c1.605-4.062-2.794-5.64-2.794-5.64L474.098-11.849z"/>
			</g>
			<g id="Group_2890" transform="translate(3.839 121.184)">
				<path id="Path_3487" fill="#F2EFEF" stroke="#707070" d="M563.689,50.943l30.164,21.421c0,0,4.408-2.862,1.835-7.286
					c-2.573-4.424-30.538-21.211-30.538-21.211c0.823,1.28,1.101,2.835,0.772,4.321C565.358,50.654,563.689,50.943,563.689,50.943z"
					/>
			</g>
			<g id="Group_2891" transform="translate(7.191)">
				<path id="Path_3488" fill="#F2EFEF" stroke="#707070" d="M591.585,186.174l-30.057-20.87c-0.366-0.253-0.457-0.756-0.204-1.122
					c0.042-0.061,0.093-0.116,0.15-0.163l35.472-29.307c0.252-0.21,0.607-0.245,0.896-0.088c2.427,1.319,13.643,7.535,22.638,14.49
					c6.791,5.251,9.13,7.69,9.934,8.729c0.274,0.347,0.215,0.849-0.131,1.124c-2.736,2.177-15.116,11.931-24.551,17.759
					c-8.363,5.166-11.971,8.274-13.138,9.377C592.318,186.361,591.897,186.391,591.585,186.174z"/>
			</g>
			<g id="Group_2892" transform="translate(151.198 65.085)">
				<path id="Path_3489" fill="#F2EFEF" stroke="#707070" d="M463.606,94.743c0.341,0,0.618-0.276,0.618-0.618
					c0-0.187-0.085-0.364-0.23-0.481l-9.541-7.672c-0.266-0.214-0.654-0.172-0.868,0.094c-0.214,0.266-0.172,0.654,0.094,0.868
					l9.541,7.672C463.329,94.694,463.466,94.743,463.606,94.743z"/>
			</g>
			<g id="Group_2893" transform="translate(136.691 75.67)">
				<path id="Path_3490" fill="#F2EFEF" stroke="#707070" d="M474.9,87.191c0.341,0,0.617-0.276,0.617-0.617
					c0-0.187-0.084-0.364-0.23-0.481l-9.981-8.04c-0.261-0.219-0.65-0.186-0.87,0.075c-0.219,0.261-0.186,0.65,0.075,0.87
					c0.007,0.006,0.014,0.011,0.02,0.016l9.98,8.04C474.622,87.143,474.759,87.191,474.9,87.191z"/>
			</g>
			<g id="Group_2894" transform="translate(72.165 177.515)">
				<path id="Path_3491" fill="#F2EFEF" stroke="#707070" d="M520.01,6.104c0,0-1.477-0.533-1.272,3.104s-0.309,11.558-0.412,11.713
					c-0.103,0.155-2.366-4.875-2.366-4.875l-3.274,1.943c0,0,0.531-7.98,0-11.912s1.018-4.352,1.018-4.352L520.01,6.104z"/>
			</g>
			<g id="Group_2895" transform="translate(121.983 89.266)">
				<path id="Path_3492" fill="#F2EFEF" stroke="#707070" d="M485.275,76.917c0.341,0,0.617-0.277,0.617-0.618
					c0-0.181-0.08-0.353-0.218-0.47l-9.353-7.937c-0.26-0.22-0.649-0.189-0.87,0.071c-0.22,0.26-0.189,0.649,0.071,0.87l9.353,7.938
					C484.987,76.865,485.129,76.917,485.275,76.917z"/>
			</g>
			<g id="Group_2896" transform="translate(73.969 183.603)">
				<path id="Path_3493" fill="#F2EFEF" stroke="#707070" d="M515.87,1.242c0.341,0.001,0.617-0.275,0.618-0.616
					c0-0.201-0.097-0.39-0.262-0.506l-4.028-2.839c-0.279-0.196-0.664-0.13-0.86,0.149c-0.196,0.279-0.13,0.664,0.149,0.86
					l4.028,2.838C515.618,1.203,515.742,1.242,515.87,1.242z"/>
			</g>
		</g>
		<g id="Group_2907" transform="translate(194.789 77.003)">
			<g id="Group_2898">
				<path id="Path_3494" fill="#F2EFEF" stroke="#707070" d="M102.981-7.85c0-3.909-1.281-16.854-16.725-19.225
					s-22.109,9.549-22.173,16.406C64.02-3.812,65.621,9.132,81.707,10.35S101.06-0.032,102.085-2.594
					C102.713-4.274,103.017-6.057,102.981-7.85z"/>
			</g>
			<g id="Group_2906">
				<g>
					<defs>
						<path id="SVGID_1_" d="M102.981-7.85c0-3.909-1.281-16.854-16.725-19.225s-22.109,9.549-22.173,16.406
							C64.02-3.812,65.621,9.132,81.707,10.35S101.06-0.032,102.085-2.594C102.713-4.274,103.017-6.057,102.981-7.85z"/>
					</defs>
					<clipPath id="SVGID_2_">
						<use xlink:href="#SVGID_1_"  overflow="visible"/>
					</clipPath>
					<g id="Group_2905" clip-path="url(#SVGID_2_)">
						<g id="Group_2899" transform="translate(48.73 41.741)">
							<path id="Path_3495" fill="#F2EFEF" stroke="#707070" d="M41.589-53.714l-6.954-4.895l-7.011,4.562l2.402,8.526h8.825
								L41.589-53.714z"/>
						</g>
						<g id="Group_2900" transform="translate(129.199 28.38)">
							<path id="Path_3496" fill="#F2EFEF" stroke="#707070" d="M-32.248-48.614l-0.327,6.21l4.209,6.036l1.965-1.891
								c-0.061-1.849-0.414-3.677-1.047-5.415c-1.033-2.729-1.157-3.314-1.157-3.314L-32.248-48.614z"/>
						</g>
						<g id="Group_2901" transform="translate(50.756 -2.698)">
							<path id="Path_3497" fill="#F2EFEF" stroke="#707070" d="M39.089-22.675l-2.692-2.404c0,0-1.752-0.209-3.788-0.277
								c-2.036-0.069-3.182,0.277-3.182,0.277l-3.319,2.102l6.243,2.037L39.089-22.675z"/>
						</g>
						<g id="Group_2902" transform="translate(93.31 110.419)">
							<path id="Path_3498" fill="#F2EFEF" stroke="#707070" d="M4.879-105.136c-0.926,1.14-1.996,2.155-3.184,3.018
								c-1.235,0.952-2.68,1.595-4.215,1.876l-3.207-1.876l3.914-5.986l7.011-1.884L4.879-105.136z"/>
						</g>
						<g id="Group_2903" transform="translate(16.731 110.126)">
							<path id="Path_3499" fill="#F2EFEF" stroke="#707070" d="M62.285-101.655l-4.289-6.287l-6.108-1.828l-0.325,4.524
								c0.914,1.292,2.011,2.444,3.256,3.42c2.008,1.551,3.501,1.876,3.501,1.876L62.285-101.655z"/>
						</g>
						<g id="Group_2904" transform="translate(-2.107 28.38)">
							<path id="Path_3500" fill="#F2EFEF" stroke="#707070" d="M71.83-42.404v-6.21l-2.989,1.241c0,0-1.169,1.154-2.209,4.505
								s-0.975,4.163-0.975,4.163l2.079,2.695L71.83-42.404z"/>
						</g>
					</g>
				</g>
			</g>
		</g>
		<g id="Group_2927" transform="translate(175.352)">
			<g id="Group_2908" transform="translate(0.008)">
				<path id="Path_3502" fill="#F2EFEF" stroke="#707070" d="M490.592,21.066l-0.771-2.217L431.73,5.748l-1.927,2.12
					c0,0,39.594,10.115,39.884,10.115C469.971,17.983,490.592,21.066,490.592,21.066z"/>
			</g>
			<g id="Group_2909" transform="translate(172.101 69.609)">
				<path id="Path_3503" fill="#F2EFEF" stroke="#707070" d="M306.551-46.328l-5.493,9.826l0.487,5.876l7.997-12.042L306.551-46.328
					z"/>
			</g>
			<g id="Group_2910" transform="translate(66.543 37.099)">
				<path id="Path_3504" fill="#F2EFEF" stroke="#707070" d="M381.266-22.006l25.349,18.014l0.487,5.876l-25.337-17.916
					l-1.738-4.914L381.266-22.006z"/>
			</g>
			<g id="Group_2911" transform="translate(0 8.418)">
				<path id="Path_3505" fill="#F2EFEF" stroke="#707070" d="M480.675,9.95c8.189,2.313,9.923,2.697,9.923,2.697L475.184,42.32
					c0,0-25.722-21.097-35.452-31.598c-9.73-10.501-9.924-11.271-9.924-11.271S472.489,7.638,480.675,9.95z M447.822,9.084
					c0.771,1.156,25.818,20.424,25.818,20.424l6.358-12.235C479.998,17.273,447.051,7.927,447.822,9.084z"/>
			</g>
			<g id="Group_2926" transform="translate(0 8.418)">
				<g>
					<defs>
						<path id="SVGID_3_" d="M480.675,9.95c8.189,2.313,9.923,2.697,9.923,2.697L475.184,42.32c0,0-25.722-21.097-35.452-31.598
							c-9.73-10.501-9.924-11.271-9.924-11.271S472.489,7.638,480.675,9.95z M447.822,9.084
							c0.771,1.156,25.818,20.424,25.818,20.424l6.358-12.235C479.998,17.273,447.051,7.927,447.822,9.084z"/>
					</defs>
					<clipPath id="SVGID_4_">
						<use xlink:href="#SVGID_3_"  overflow="visible"/>
					</clipPath>
					<g id="Group_2925" clip-path="url(#SVGID_4_)">
						<g id="Group_2912" transform="translate(157.198 145.217)">
							<path id="Path_3506" fill="#F2EFEF" stroke="#707070" d="M312.977-104.62c0.22,0,0.429-0.094,0.575-0.258l2.702-3.028
								c0.286-0.315,0.261-0.803-0.054-1.088c-0.315-0.286-0.803-0.261-1.088,0.054c-0.002,0.003-0.005,0.005-0.007,0.008
								l-2.702,3.029c-0.283,0.317-0.256,0.804,0.061,1.088C312.605-104.689,312.788-104.62,312.977-104.62z"/>
						</g>
						<g id="Group_2913" transform="translate(145.653 134.201)">
							<path id="Path_3507" fill="#F2EFEF" stroke="#707070" d="M321.614-96.378c0.22,0,0.429-0.094,0.575-0.258l2.702-3.029
								c0.286-0.315,0.261-0.803-0.054-1.088s-0.803-0.261-1.088,0.054c-0.002,0.003-0.005,0.005-0.007,0.008l-2.702,3.028
								c-0.283,0.318-0.255,0.805,0.062,1.089C321.242-96.447,321.425-96.377,321.614-96.378z"/>
						</g>
						<g id="Group_2914" transform="translate(134.109 123.337)">
							<path id="Path_3508" fill="#F2EFEF" stroke="#707070" d="M330.25-88.25c0.22,0,0.429-0.094,0.575-0.258l2.702-3.029
								c0.286-0.315,0.261-0.803-0.054-1.088s-0.803-0.261-1.088,0.054c-0.002,0.003-0.005,0.005-0.007,0.008l-2.702,3.029
								c-0.284,0.317-0.257,0.804,0.06,1.088C329.877-88.319,330.06-88.249,330.25-88.25L330.25-88.25z"/>
						</g>
						<g id="Group_2915" transform="translate(122.012 112.206)">
							<path id="Path_3509" fill="#F2EFEF" stroke="#707070" d="M339.3-79.923c0.22,0,0.429-0.094,0.575-0.258l2.702-3.029
								c0.286-0.315,0.261-0.803-0.054-1.088s-0.803-0.261-1.088,0.054c-0.002,0.003-0.005,0.005-0.007,0.008l-2.702,3.028
								c-0.283,0.318-0.255,0.805,0.062,1.089C338.928-79.992,339.111-79.922,339.3-79.923z"/>
						</g>
						<g id="Group_2916" transform="translate(109.915 101.074)">
							<path id="Path_3510" fill="#F2EFEF" stroke="#707070" d="M348.35-71.594c0.22,0,0.429-0.094,0.575-0.258l2.701-3.029
								c0.286-0.315,0.261-0.803-0.054-1.088s-0.803-0.261-1.088,0.054c-0.002,0.003-0.005,0.005-0.007,0.008l-2.702,3.029
								c-0.283,0.318-0.256,0.805,0.062,1.089C347.977-71.663,348.16-71.593,348.35-71.594z"/>
						</g>
						<g id="Group_2917" transform="translate(97.818 89.951)">
							<path id="Path_3511" fill="#F2EFEF" stroke="#707070" d="M357.4-63.274c0.22,0,0.429-0.094,0.575-0.258l2.702-3.029
								c0.283-0.318,0.255-0.804-0.062-1.088c-0.318-0.283-0.804-0.255-1.088,0.062l0,0l-2.702,3.029
								c-0.284,0.317-0.257,0.803,0.06,1.087C357.027-63.344,357.21-63.274,357.4-63.274L357.4-63.274z"/>
						</g>
						<g id="Group_2918" transform="translate(85.72 78.817)">
							<path id="Path_3512" fill="#F2EFEF" stroke="#707070" d="M366.451-54.944c0.22,0,0.429-0.094,0.575-0.258l2.702-3.029
								c0.286-0.315,0.261-0.803-0.054-1.088c-0.315-0.286-0.803-0.261-1.088,0.054c-0.002,0.003-0.005,0.005-0.007,0.008
								l-2.702,3.028c-0.284,0.317-0.257,0.804,0.06,1.088C366.078-55.014,366.261-54.944,366.451-54.944z"/>
						</g>
						<g id="Group_2919" transform="translate(73.624 67.685)">
							<path id="Path_3513" fill="#F2EFEF" stroke="#707070" d="M375.5-46.615c0.22,0,0.429-0.094,0.575-0.258l2.702-3.029
								c0.286-0.315,0.262-0.803-0.054-1.089s-0.803-0.262-1.089,0.054c-0.003,0.003-0.005,0.005-0.007,0.008l-2.702,3.029
								c-0.283,0.318-0.256,0.805,0.062,1.089C375.128-46.684,375.311-46.615,375.5-46.615z"/>
						</g>
						<g id="Group_2920" transform="translate(61.53 56.558)">
							<path id="Path_3514" fill="#F2EFEF" stroke="#707070" d="M384.547-38.292c0.22,0,0.429-0.094,0.575-0.258l2.702-3.029
								c0.286-0.315,0.261-0.803-0.054-1.088c-0.315-0.286-0.803-0.261-1.088,0.054c-0.002,0.003-0.005,0.005-0.007,0.008
								l-2.701,3.029c-0.284,0.318-0.256,0.805,0.061,1.089C384.176-38.361,384.359-38.291,384.547-38.292L384.547-38.292z"/>
						</g>
						<g id="Group_2921" transform="translate(49.431 45.428)">
							<path id="Path_3515" fill="#F2EFEF" stroke="#707070" d="M393.599-29.964c0.22,0.001,0.43-0.093,0.575-0.258l2.701-3.029
								c0.286-0.315,0.261-0.803-0.054-1.088c-0.315-0.286-0.803-0.261-1.088,0.054c-0.002,0.003-0.005,0.005-0.007,0.008
								l-2.701,3.029c-0.283,0.318-0.255,0.805,0.062,1.088C393.227-30.034,393.41-29.964,393.599-29.964z"/>
						</g>
						<g id="Group_2922" transform="translate(37.336 34.296)">
							<path id="Path_3516" fill="#F2EFEF" stroke="#707070" d="M402.647-21.637c0.22,0.001,0.43-0.093,0.575-0.258l2.702-3.029
								c0.286-0.315,0.261-0.803-0.054-1.088s-0.803-0.261-1.088,0.054c-0.002,0.003-0.005,0.005-0.007,0.008l-2.701,3.029
								c-0.283,0.317-0.256,0.804,0.061,1.087c0,0,0,0,0.001,0.001C402.275-21.706,402.458-21.636,402.647-21.637z"/>
						</g>
						<g id="Group_2923" transform="translate(25.211 23.169)">
							<path id="Path_3517" fill="#F2EFEF" stroke="#707070" d="M411.719-13.313c0.22,0.001,0.43-0.093,0.575-0.258l2.702-3.028
								c0.281-0.32,0.25-0.806-0.07-1.087c-0.316-0.278-0.797-0.251-1.08,0.062l-2.702,3.028c-0.283,0.317-0.256,0.804,0.062,1.088
								c0,0,0,0,0,0C411.348-13.384,411.53-13.315,411.719-13.313z"/>
						</g>
						<g id="Group_2924" transform="translate(13.141 12.04)">
							<path id="Path_3518" fill="#F2EFEF" stroke="#707070" d="M420.748-4.987c0.22,0.001,0.43-0.093,0.575-0.258l2.702-3.028
								c0.281-0.32,0.25-0.806-0.07-1.087c-0.316-0.278-0.797-0.251-1.08,0.062l-2.702,3.028c-0.283,0.318-0.255,0.805,0.062,1.088
								C420.376-5.057,420.559-4.987,420.748-4.987z"/>
						</g>
					</g>
				</g>
			</g>
		</g>
		<g id="Group_2933" transform="translate(71.759 133.86)">
			<g id="Group_2928" transform="translate(28.239)">
				<path id="Path_3520" fill="#F2EFEF" stroke="#707070" d="M665.056-17.986l4.028-11.511c0.039-0.104,0.156-0.156,0.26-0.117
					c0.078,0.029,0.129,0.103,0.13,0.186l-0.688,40.186l-1.652,5.086l-4.718-1.659L665.056-17.986z"/>
			</g>
			<g id="Group_2929" transform="translate(0 205.07)">
				<path id="Path_3521" fill="#F2EFEF" stroke="#707070" d="M689.419-183.047l-5.879,10.036l5.557,2.287l3.926-11.195
					L689.419-183.047z"/>
			</g>
			<g id="Group_2930" transform="translate(23.343 66.434)">
				<path id="Path_3522" fill="#F2EFEF" stroke="#707070" d="M667.562-55.316l-1.486,10.905l3.606,1.128l32.153-27.405l5.765-8.282
					c0.071-0.105,0.043-0.247-0.062-0.318c-0.078-0.052-0.179-0.052-0.257,0L673.68-55.676L667.562-55.316z"/>
			</g>
			<g id="Group_2931" transform="translate(34.738 176.906)">
				<path id="Path_3523" fill="#F2EFEF" stroke="#707070" d="M659.277-158.001c-2.151-0.025-2.617-3.918,0.507-3.976
					C662.908-162.035,662.311-157.966,659.277-158.001z"/>
			</g>
			<g id="Group_2932" transform="translate(31.923 118.391)">
				<path id="Path_3524" fill="#F2EFEF" stroke="#707070" d="M683.187-105.178c0.392,0,0.709-0.317,0.709-0.709
					c0-0.267-0.15-0.511-0.388-0.632l-22.821-11.605c-0.351-0.174-0.776-0.03-0.95,0.321c-0.171,0.346-0.034,0.765,0.308,0.943
					l22.821,11.605C682.966-105.205,683.076-105.178,683.187-105.178z"/>
			</g>
		</g>
		<g id="Group_2953" transform="translate(0.31 119.317)">
			<g id="Group_2934" transform="translate(1.741 70.435)">
				<path id="Path_3525" fill="#F2EFEF" stroke="#707070" d="M62.935-127.876c0,0-2.457,7.477,1.8,15.927
					c4.257,8.449,7.189,9.443,7.189,9.443l-0.193-1.193l-6.45-19.35L62.935-127.876z"/>
			</g>
			<g id="Group_2935" transform="translate(47.891 14.059)">
				<path id="Path_3526" fill="#F2EFEF" stroke="#707070" d="M50.7-76.901c0,0-4.606-4.492-11.58-4.993
					c-6.974-0.501-11.416,2.451-11.416,2.451l1.806-3.743L40.668-85.7c0,0,7.159,2.254,7.352,2.514
					c0.193,0.26,4.708,2.711,4.708,2.711l0.774,3.031L50.7-76.901z"/>
			</g>
			<g id="Group_2936" transform="translate(0)">
				<path id="Path_3527" fill="#F2EFEF" stroke="#707070" d="M71.882-70.157c19.247-14.776,37.125,7.739,37.125,7.739L73.469-33.265
					C73.469-33.265,52.21-55.055,71.882-70.157z M73.855-43.004l25.348-20.639c0,0-9.42-8.724-21.736-2.838
					C65.731-60.87,73.855-43.004,73.855-43.004L73.855-43.004z"/>
			</g>
			<g id="Group_2937" transform="translate(39.451 50.678)">
				<path id="Path_3528" fill="#F2EFEF" stroke="#707070" d="M69.559-113.095l-0.196,1.257L34.215-82.749l-0.196-1.193
					L69.559-113.095z"/>
			</g>
			<g id="Group_2952" transform="translate(2.453 4.948)">
				<g>
					<defs>
						<path id="SVGID_5_" d="M70.245-73.621c19.247-14.776,36.313,6.256,36.313,6.256L71.017-38.212
							C71.017-38.213,50.572-58.519,70.245-73.621z M71.402-47.951l26.38-21.155c0,0-10.126-9.417-22.768-2.322
							S71.402-47.952,71.402-47.951L71.402-47.951z"/>
					</defs>
					<clipPath id="SVGID_6_">
						<use xlink:href="#SVGID_5_"  overflow="visible"/>
					</clipPath>
					<g id="Group_2951" clip-path="url(#SVGID_6_)">
						<g id="Group_2938" transform="translate(162.604 40.282)">
							<path id="Path_3529" fill="#F2EFEF" stroke="#707070" d="M-57.072-105.141c0.341,0,0.618-0.277,0.618-0.618
								c0-0.147-0.053-0.29-0.148-0.402l-2.259-2.643c-0.219-0.262-0.609-0.298-0.871-0.079c-0.262,0.219-0.298,0.609-0.079,0.871
								c0.003,0.004,0.007,0.008,0.01,0.012l2.259,2.643C-57.425-105.22-57.253-105.141-57.072-105.141z"/>
						</g>
						<g id="Group_2939" transform="translate(151.912 48.819)">
							<path id="Path_3530" fill="#F2EFEF" stroke="#707070" d="M-49.073-111.528c0.341,0,0.618-0.276,0.618-0.618
								c0-0.147-0.053-0.29-0.148-0.402l-2.259-2.643c-0.219-0.262-0.609-0.298-0.871-0.079c-0.262,0.219-0.298,0.609-0.079,0.871
								c0.003,0.004,0.007,0.008,0.01,0.012l2.259,2.643C-49.425-111.608-49.254-111.529-49.073-111.528z"/>
						</g>
						<g id="Group_2940" transform="translate(141.372 57.367)">
							<path id="Path_3531" fill="#F2EFEF" stroke="#707070" d="M-41.188-117.923c0.341,0,0.618-0.277,0.618-0.618
								c0-0.147-0.053-0.29-0.148-0.402l-2.259-2.643c-0.219-0.262-0.609-0.298-0.871-0.079c-0.262,0.219-0.298,0.609-0.079,0.871
								c0.003,0.004,0.007,0.008,0.01,0.012l2.259,2.643C-41.541-118.001-41.369-117.922-41.188-117.923z"/>
						</g>
						<g id="Group_2941" transform="translate(130.529 66.351)">
							<path id="Path_3532" fill="#F2EFEF" stroke="#707070" d="M-33.076-124.643c0.341,0,0.618-0.276,0.618-0.618
								c0-0.147-0.053-0.29-0.148-0.402l-2.259-2.643c-0.219-0.262-0.609-0.298-0.871-0.079c-0.262,0.219-0.298,0.609-0.079,0.871
								c0.003,0.004,0.007,0.008,0.01,0.012l2.259,2.643C-33.429-124.722-33.257-124.643-33.076-124.643z"/>
						</g>
						<g id="Group_2942" transform="translate(119.687 75.333)">
							<path id="Path_3533" fill="#F2EFEF" stroke="#707070" d="M-24.965-131.364c0.341,0,0.618-0.276,0.618-0.618
								c0-0.147-0.053-0.29-0.148-0.402l-2.259-2.643c-0.225-0.257-0.616-0.283-0.873-0.057c-0.252,0.221-0.282,0.603-0.067,0.861
								l2.259,2.643C-25.318-131.442-25.146-131.363-24.965-131.364z"/>
						</g>
						<g id="Group_2943" transform="translate(108.846 84.321)">
							<path id="Path_3534" fill="#F2EFEF" stroke="#707070" d="M-16.855-138.087c0.341,0,0.618-0.276,0.618-0.618
								c0-0.147-0.053-0.29-0.148-0.402l-2.259-2.643c-0.219-0.262-0.609-0.298-0.871-0.079c-0.262,0.219-0.298,0.609-0.079,0.871
								c0.003,0.004,0.007,0.008,0.01,0.012l2.259,2.643C-17.208-138.166-17.036-138.087-16.855-138.087z"/>
						</g>
						<g id="Group_2944" transform="translate(98.004 93.304)">
							<path id="Path_3535" fill="#F2EFEF" stroke="#707070" d="M-8.744-144.808c0.341,0,0.618-0.276,0.618-0.618
								c0-0.147-0.053-0.29-0.148-0.402l-2.259-2.643c-0.225-0.257-0.616-0.283-0.873-0.057c-0.252,0.221-0.282,0.603-0.067,0.861
								l2.259,2.643C-9.097-144.886-8.925-144.807-8.744-144.808z"/>
						</g>
						<g id="Group_2945" transform="translate(87.162 102.288)">
							<path id="Path_3536" fill="#F2EFEF" stroke="#707070" d="M-0.633-151.528c0.341,0,0.618-0.276,0.618-0.618
								c0-0.147-0.053-0.29-0.148-0.402l-2.259-2.643c-0.219-0.262-0.609-0.298-0.871-0.079c-0.262,0.219-0.298,0.609-0.079,0.871
								c0.003,0.004,0.007,0.008,0.01,0.012l2.259,2.643C-0.987-151.606-0.814-151.526-0.633-151.528z"/>
						</g>
						<g id="Group_2946" transform="translate(76.32 111.272)">
							<path id="Path_3537" fill="#F2EFEF" stroke="#707070" d="M7.478-158.25c0.341,0,0.618-0.276,0.618-0.618
								c0-0.147-0.053-0.29-0.148-0.402l-2.259-2.643c-0.225-0.257-0.616-0.283-0.873-0.057c-0.252,0.221-0.282,0.603-0.067,0.861
								l2.259,2.643C7.125-158.328,7.297-158.249,7.478-158.25z"/>
						</g>
						<g id="Group_2947" transform="translate(65.478 120.254)">
							<path id="Path_3538" fill="#F2EFEF" stroke="#707070" d="M15.589-164.97c0.341,0,0.618-0.276,0.618-0.618
								c0-0.147-0.053-0.29-0.148-0.402l-2.259-2.643c-0.219-0.262-0.609-0.298-0.871-0.079c-0.262,0.219-0.298,0.609-0.079,0.871
								c0.003,0.004,0.007,0.008,0.01,0.012l2.259,2.643C15.236-165.047,15.408-164.968,15.589-164.97z"/>
						</g>
						<g id="Group_2948" transform="translate(54.636 129.24)">
							<path id="Path_3539" fill="#F2EFEF" stroke="#707070" d="M23.7-171.692c0.341,0,0.618-0.276,0.618-0.618
								c0-0.147-0.053-0.29-0.148-0.402l-2.259-2.643c-0.219-0.262-0.609-0.298-0.871-0.079c-0.262,0.219-0.298,0.609-0.079,0.871
								c0.003,0.004,0.007,0.008,0.01,0.012l2.259,2.643C23.347-171.77,23.519-171.691,23.7-171.692z"/>
						</g>
						<g id="Group_2949" transform="translate(43.794 138.225)">
							<path id="Path_3540" fill="#F2EFEF" stroke="#707070" d="M31.812-178.414c0.341,0,0.618-0.276,0.618-0.618
								c0-0.147-0.053-0.29-0.148-0.402l-2.259-2.643c-0.219-0.262-0.609-0.298-0.871-0.079c-0.262,0.219-0.298,0.609-0.079,0.871
								c0.003,0.004,0.007,0.008,0.01,0.012l2.259,2.643C31.458-178.492,31.63-178.412,31.812-178.414z"/>
						</g>
						<g id="Group_2950" transform="translate(32.927 147.208)">
							<path id="Path_3541" fill="#F2EFEF" stroke="#707070" d="M39.941-185.134c0.341,0,0.618-0.276,0.618-0.618
								c0-0.147-0.053-0.29-0.148-0.402l-2.259-2.643c-0.225-0.257-0.616-0.283-0.873-0.057c-0.252,0.221-0.282,0.603-0.067,0.861
								l2.259,2.643C39.59-185.215,39.761-185.136,39.941-185.134z"/>
						</g>
					</g>
				</g>
			</g>
		</g>
		<g id="Group_2963" transform="translate(356.256 163.026)">
			<g id="Group_2954" transform="translate(34.789 74.157)">
				<path id="Path_3543" fill="#F2EFEF" stroke="#707070" d="M-271.191-63.28c0,0,3.749,0.101,8.105-9.422
					c4.357-9.523,7.092-14.184,13.577-12.462s6.889,10.031,4.762,18.337c-2.127,8.307-0.811,14.275-0.811,14.275
					s-8.178,0.108-16.21-3.535C-269.8-59.73-271.191-63.28-271.191-63.28z"/>
			</g>
			<g id="Group_2955" transform="translate(26.436 155.25)">
				<path id="Path_3544" fill="#F2EFEF" stroke="#707070" d="M-237.672-131.634c3.545-0.194,3.963-3.266,0.27-3.266
					c-8.692,0-18.239-4.867-23.624-10.181c-2.381-2.35-5.143-0.542-3.332,1.692C-256.794-134.061-247.78-131.08-237.672-131.634z"/>
			</g>
			<g id="Group_2956" transform="translate(121.461 90.268)">
				<path id="Path_3545" fill="#F2EFEF" stroke="#707070" d="M-335.472-95.197c0.119,3.179-1.262,12.766-0.074,14.184
					c1.188,1.419,2.594-4.959,2.809-8.816C-332.297-97.68-335.642-99.728-335.472-95.197z"/>
			</g>
			<g id="Group_2957" transform="translate(51.491 127.465)">
				<path id="Path_3546" fill="#F2EFEF" stroke="#707070" d="M-283.287-116.104c0.06,0,0.12-0.014,0.174-0.04
					c3.246-1.571,5.916-8.419,6.028-8.71c0.073-0.208-0.036-0.436-0.244-0.509c-0.2-0.07-0.419,0.027-0.501,0.222
					c-0.026,0.068-2.668,6.844-5.631,8.278c-0.199,0.097-0.281,0.336-0.185,0.534C-283.578-116.192-283.439-116.104-283.287-116.104
					L-283.287-116.104z"/>
			</g>
			<g id="Group_2958" transform="translate(113.629 52.74)">
				<path id="Path_3547" fill="#F2EFEF" stroke="#707070" d="M-328.709-62.649c0,0.413,1.338,0.57,1.376,0.481
					c0.751-1.738,2.368-6.103,0.149-7.152c-2.787-1.317-2.988,5.25-2.988,5.25l1.823,0.323c0,0-1.096-4.791,0.789-3.986
					C-326.533-67.295-328.709-64.382-328.709-62.649z"/>
			</g>
			<g id="Group_2959" transform="translate(17.789)">
				<path id="Path_3548" fill="#F2EFEF" stroke="#707070" d="M-256.148-29.79l2.565,5.712h-4.672c-0.12,0-0.217,0.097-0.217,0.216
					c0,0.057,0.022,0.111,0.062,0.152c2.452,2.389,5.668,3.837,9.082,4.09c6.18,0.506,7.599-0.709,10.537,2.229
					c1.789,1.783,3.807,3.321,6,4.574l1.07-2.177c0,0-2.613-7.767-10.11-8.881s-10.103-2.938-12.36-4.762l-1.686-1.362
					c-0.077-0.06-0.187-0.047-0.248,0.03C-256.165-29.918-256.174-29.849-256.148-29.79z"/>
			</g>
			<g id="Group_2960" transform="translate(69.402 27.307)">
				<path id="Path_3549" fill="#F2EFEF" stroke="#707070" d="M-289.676-47.804c0.221-0.001,0.399-0.18,0.399-0.401
					c0-0.134-0.068-0.259-0.18-0.333c-2.193-1.279-4.69-1.946-7.229-1.929c-0.221,0-0.4,0.178-0.4,0.399
					c0,0.221,0.178,0.4,0.399,0.4c0,0,0.001,0,0.001,0c2.383-0.004,4.725,0.616,6.793,1.8
					C-289.828-47.826-289.753-47.804-289.676-47.804z"/>
			</g>
			<g id="Group_2961" transform="translate(0 53.657)">
				<path id="Path_3550" fill="#F2EFEF" stroke="#707070" d="M-215.002-66.474c0,0-3.569-4.573-10.965-3.56
					c-7.396,1.012-10.422,6.63-14.286,5.778c-1.487-0.303-2.925-0.806-4.277-1.495c-0.096-0.051-0.215-0.015-0.266,0.08
					c-0.034,0.063-0.031,0.14,0.008,0.2l2.002,3.136l-2.297,1.441c-0.083,0.052-0.108,0.16-0.056,0.243
					c0.004,0.007,0.009,0.014,0.015,0.02c0.466,0.559,2.426,2.289,8.012,0.828c6.586-1.723,9.028-5.422,13.586-6.411
					c4.559-0.989,8.805,1.548,8.805,1.548L-215.002-66.474z"/>
			</g>
			<g id="Group_2962" transform="translate(52.509 57.321)">
				<path id="Path_3551" fill="#F2EFEF" stroke="#707070" d="M-284.048-69.044c0.093,0,0.184-0.032,0.255-0.092
					c1.747-1.46,3.816-2.486,6.036-2.993c0.217-0.037,0.363-0.244,0.326-0.461s-0.244-0.363-0.461-0.326l0,0
					c-2.362,0.521-4.562,1.607-6.412,3.166c-0.169,0.142-0.191,0.393-0.05,0.562C-284.278-69.097-284.166-69.045-284.048-69.044
					L-284.048-69.044z"/>
			</g>
		</g>
	</g>
</g>
<g id="Layer_2">
</g>
</svg>
