<?xml version="1.0" encoding="utf-8"?>
<!-- Generator: Adobe Illustrator 17.0.0, SVG Export Plug-In . SVG Version: 6.00 Build 0)  -->
<!DOCTYPE svg PUBLIC "-//W3C//DTD SVG 1.1//EN" "http://www.w3.org/Graphics/SVG/1.1/DTD/svg11.dtd">
<svg version="1.1" id="Layer_1" xmlns="http://www.w3.org/2000/svg" xmlns:xlink="http://www.w3.org/1999/xlink" x="0px" y="0px"
	 width="108px" height="72px" viewBox="0 0 108 72" enable-background="new 0 0 108 72" xml:space="preserve">
<g>
	<g>
		<g>
			<g>
				<g>
					<defs>
						<path id="SVGID_1_" d="M19.583,19.625c0.226-1.905,1.17-3.601,2.253-4.976c1.413-1.794,4.206-3.022,5.938-1.116
							c0.425,0.467,0.643,1.159,0.788,1.804c0.328,1.455-1.379,3.409-2.082,1.314c-0.577-1.718,1.466-1.661,2.187-1.672
							c1.482-0.023,3.047-0.187,4.372,0.757c1.347,0.962,1.654,2.981,2.466,4.437c0.522,0.936,1.439,1.371,2.341,1.502
							c2.809,0.407,5.429,1.733,8.184,2.414c3.964,0.98,8.002,1.776,12.059,1.738c3.799-0.036,7.13-1.256,10.462-3.4
							c1.6-1.029,4.549-3.282,4.241-5.905c-0.291-2.469-3.014-3.616-4.836-3.75c-1.436-0.105-2.139,1.373-1.689,2.862
							c0.565,1.869,2.166,3.434,3.482,4.539c1.773,1.489,4.321,1.757,6.397,1.322c1.906-0.399,3.182-2.796,4.52-4.257
							c0.926-1.011,2.978-2.364,3.089,0.23c0.061,1.421-0.597,2.98-1.024,4.269c-0.432,1.303-1.449,3.951,0.01,4.904
							c1.23,0.804,3.597-1.217,4.691-1.677c2.526-1.063,6.605-0.862,8.645,1.36c0.067,0.073,0.167-0.046,0.1-0.119
							c-1.916-2.087-5-2.127-7.423-1.754c-0.939,0.144-1.783,0.518-2.639,0.98c-1.314,0.71-3.735,2.35-3.963-0.527
							c-0.218-2.758,2.088-5.156,1.691-8.018c-0.295-2.128-2.322-0.722-3.061,0.008c-0.923,0.91-1.711,2.011-2.573,2.999
							c-1.264,1.447-2.693,1.689-4.412,1.586c-2.942-0.177-5.43-2.199-7.038-5.083c-1.218-2.186,0.112-3.776,2.092-3.313
							c1.617,0.378,3.796,1.568,3.803,3.822c0.007,2.08-2.073,3.799-3.349,4.792c-1.591,1.238-3.472,2.138-5.239,2.933
							c-4.076,1.832-9.099,1.083-13.294,0.31c-3.128-0.577-6.082-1.486-9.126-2.464c-1.12-0.36-2.259-0.739-3.412-0.914
							c-2.11-0.32-2.71-1.636-3.574-3.744c-1.028-2.509-2.809-3.037-4.994-3.032c-0.813,0.002-4.613-0.047-3.195,2.282
							c1.044,1.717,2.406-0.251,2.23-1.776c-0.312-2.695-3.055-3.413-4.871-2.489c-2.18,1.108-4.047,3.959-4.381,6.777
							C19.434,19.687,19.571,19.733,19.583,19.625L19.583,19.625z"/>
					</defs>
					<clipPath id="SVGID_2_">
						<use xlink:href="#SVGID_1_"  overflow="visible"/>
					</clipPath>
					<rect x="19.434" y="11.627" clip-path="url(#SVGID_2_)" fill="#CB3433" width="0.012" height="16.154"/>
					<rect x="19.446" y="11.627" clip-path="url(#SVGID_2_)" fill="#CB3433" width="0.656" height="16.154"/>
					<rect x="20.102" y="11.627" clip-path="url(#SVGID_2_)" fill="#CB3533" width="0.656" height="16.154"/>
					<rect x="20.759" y="11.627" clip-path="url(#SVGID_2_)" fill="#CB3633" width="0.655" height="16.154"/>
					<rect x="21.414" y="11.627" clip-path="url(#SVGID_2_)" fill="#CC3733" width="0.656" height="16.154"/>
					<rect x="22.07" y="11.627" clip-path="url(#SVGID_2_)" fill="#CC3833" width="0.655" height="16.154"/>
					<rect x="22.726" y="11.627" clip-path="url(#SVGID_2_)" fill="#CC3933" width="0.656" height="16.154"/>
					<rect x="23.382" y="11.627" clip-path="url(#SVGID_2_)" fill="#CD3A33" width="0.656" height="16.154"/>
					<rect x="24.038" y="11.627" clip-path="url(#SVGID_2_)" fill="#CD3B33" width="0.656" height="16.154"/>
					<rect x="24.695" y="11.627" clip-path="url(#SVGID_2_)" fill="#CD3C33" width="0.655" height="16.154"/>
					<rect x="25.35" y="11.627" clip-path="url(#SVGID_2_)" fill="#CD3D34" width="0.656" height="16.154"/>
					<rect x="26.006" y="11.627" clip-path="url(#SVGID_2_)" fill="#CE3E34" width="0.655" height="16.154"/>
					<rect x="26.661" y="11.627" clip-path="url(#SVGID_2_)" fill="#CE3F34" width="0.656" height="16.154"/>
					<rect x="27.318" y="11.627" clip-path="url(#SVGID_2_)" fill="#CE4034" width="0.656" height="16.154"/>
					<rect x="27.974" y="11.627" clip-path="url(#SVGID_2_)" fill="#CF4134" width="0.656" height="16.154"/>
					<rect x="28.631" y="11.627" clip-path="url(#SVGID_2_)" fill="#CF4234" width="0.656" height="16.154"/>
					<rect x="29.287" y="11.627" clip-path="url(#SVGID_2_)" fill="#CF4334" width="0.655" height="16.154"/>
					<rect x="29.942" y="11.627" clip-path="url(#SVGID_2_)" fill="#D04434" width="0.656" height="16.154"/>
					<rect x="30.598" y="11.627" clip-path="url(#SVGID_2_)" fill="#D04534" width="0.655" height="16.154"/>
					<rect x="31.254" y="11.627" clip-path="url(#SVGID_2_)" fill="#D04634" width="0.656" height="16.154"/>
					<rect x="31.91" y="11.627" clip-path="url(#SVGID_2_)" fill="#D14734" width="0.656" height="16.154"/>
					<rect x="32.566" y="11.627" clip-path="url(#SVGID_2_)" fill="#D14834" width="0.656" height="16.154"/>
					<rect x="33.223" y="11.627" clip-path="url(#SVGID_2_)" fill="#D14934" width="0.655" height="16.154"/>
					<rect x="33.878" y="11.627" clip-path="url(#SVGID_2_)" fill="#D24A34" width="0.656" height="16.154"/>
					<rect x="34.534" y="11.627" clip-path="url(#SVGID_2_)" fill="#D24B34" width="0.655" height="16.154"/>
					<rect x="35.19" y="11.627" clip-path="url(#SVGID_2_)" fill="#D24C34" width="0.656" height="16.154"/>
					<rect x="35.846" y="11.627" clip-path="url(#SVGID_2_)" fill="#D34D34" width="0.656" height="16.154"/>
					<rect x="36.502" y="11.627" clip-path="url(#SVGID_2_)" fill="#D34E34" width="0.656" height="16.154"/>
					<rect x="37.159" y="11.627" clip-path="url(#SVGID_2_)" fill="#D34F34" width="0.656" height="16.154"/>
					<rect x="37.815" y="11.627" clip-path="url(#SVGID_2_)" fill="#D44F34" width="0.655" height="16.154"/>
					<rect x="38.47" y="11.627" clip-path="url(#SVGID_2_)" fill="#D45035" width="0.656" height="16.154"/>
					<rect x="39.127" y="11.627" clip-path="url(#SVGID_2_)" fill="#D45135" width="0.655" height="16.154"/>
					<rect x="39.782" y="11.627" clip-path="url(#SVGID_2_)" fill="#D55235" width="0.656" height="16.154"/>
					<rect x="40.438" y="11.627" clip-path="url(#SVGID_2_)" fill="#D55335" width="0.656" height="16.154"/>
					<rect x="41.095" y="11.627" clip-path="url(#SVGID_2_)" fill="#D55435" width="0.656" height="16.154"/>
					<rect x="41.751" y="11.627" clip-path="url(#SVGID_2_)" fill="#D65535" width="0.655" height="16.154"/>
					<rect x="42.406" y="11.627" clip-path="url(#SVGID_2_)" fill="#D65635" width="0.656" height="16.154"/>
					<rect x="43.063" y="11.627" clip-path="url(#SVGID_2_)" fill="#D65735" width="0.655" height="16.154"/>
					<rect x="43.718" y="11.627" clip-path="url(#SVGID_2_)" fill="#D75735" width="0.656" height="16.154"/>
					<rect x="44.374" y="11.627" clip-path="url(#SVGID_2_)" fill="#D75835" width="0.656" height="16.154"/>
					<rect x="45.03" y="11.627" clip-path="url(#SVGID_2_)" fill="#D75935" width="0.656" height="16.154"/>
					<rect x="45.687" y="11.627" clip-path="url(#SVGID_2_)" fill="#D85A35" width="0.656" height="16.154"/>
					<rect x="46.343" y="11.627" clip-path="url(#SVGID_2_)" fill="#D85B35" width="0.655" height="16.154"/>
					<rect x="46.998" y="11.627" clip-path="url(#SVGID_2_)" fill="#D85C35" width="0.656" height="16.154"/>
					<rect x="47.655" y="11.627" clip-path="url(#SVGID_2_)" fill="#D95C35" width="0.655" height="16.154"/>
					<rect x="48.31" y="11.627" clip-path="url(#SVGID_2_)" fill="#D95D35" width="0.656" height="16.154"/>
					<rect x="48.966" y="11.627" clip-path="url(#SVGID_2_)" fill="#D95E35" width="0.656" height="16.154"/>
					<rect x="49.623" y="11.627" clip-path="url(#SVGID_2_)" fill="#DA5F35" width="0.656" height="16.154"/>
					<rect x="50.279" y="11.627" clip-path="url(#SVGID_2_)" fill="#DA6035" width="0.655" height="16.154"/>
					<rect x="50.934" y="11.627" clip-path="url(#SVGID_2_)" fill="#DA6135" width="0.656" height="16.154"/>
					<rect x="51.591" y="11.627" clip-path="url(#SVGID_2_)" fill="#DB6235" width="0.655" height="16.154"/>
					<rect x="52.246" y="11.627" clip-path="url(#SVGID_2_)" fill="#DB6236" width="0.656" height="16.154"/>
					<rect x="52.902" y="11.627" clip-path="url(#SVGID_2_)" fill="#DB6336" width="0.656" height="16.154"/>
					<rect x="53.559" y="11.627" clip-path="url(#SVGID_2_)" fill="#DC6436" width="0.656" height="16.154"/>
					<rect x="54.215" y="11.627" clip-path="url(#SVGID_2_)" fill="#DC6536" width="0.655" height="16.154"/>
					<rect x="54.87" y="11.627" clip-path="url(#SVGID_2_)" fill="#DC6636" width="0.656" height="16.154"/>
					<rect x="55.527" y="11.627" clip-path="url(#SVGID_2_)" fill="#DD6736" width="0.656" height="16.154"/>
					<rect x="56.183" y="11.627" clip-path="url(#SVGID_2_)" fill="#DD6736" width="0.655" height="16.154"/>
					<rect x="56.838" y="11.627" clip-path="url(#SVGID_2_)" fill="#DD6836" width="0.656" height="16.154"/>
					<rect x="57.494" y="11.627" clip-path="url(#SVGID_2_)" fill="#DE6936" width="0.656" height="16.154"/>
					<rect x="58.151" y="11.627" clip-path="url(#SVGID_2_)" fill="#DE6A36" width="0.656" height="16.154"/>
					<rect x="58.807" y="11.627" clip-path="url(#SVGID_2_)" fill="#DE6B36" width="0.655" height="16.154"/>
					<rect x="59.462" y="11.627" clip-path="url(#SVGID_2_)" fill="#DF6B36" width="0.656" height="16.154"/>
					<rect x="60.119" y="11.627" clip-path="url(#SVGID_2_)" fill="#DF6C36" width="0.655" height="16.154"/>
					<rect x="60.774" y="11.627" clip-path="url(#SVGID_2_)" fill="#E06D36" width="0.656" height="16.154"/>
					<rect x="61.43" y="11.627" clip-path="url(#SVGID_2_)" fill="#E06E36" width="0.656" height="16.154"/>
					<rect x="62.087" y="11.627" clip-path="url(#SVGID_2_)" fill="#E06F36" width="0.656" height="16.154"/>
					<rect x="62.743" y="11.627" clip-path="url(#SVGID_2_)" fill="#E16F36" width="0.655" height="16.154"/>
					<rect x="63.398" y="11.627" clip-path="url(#SVGID_2_)" fill="#E17036" width="0.656" height="16.154"/>
					<rect x="64.055" y="11.627" clip-path="url(#SVGID_2_)" fill="#E17136" width="0.656" height="16.154"/>
					<rect x="64.711" y="11.627" clip-path="url(#SVGID_2_)" fill="#E27236" width="0.655" height="16.154"/>
					<rect x="65.366" y="11.627" clip-path="url(#SVGID_2_)" fill="#E27336" width="0.656" height="16.154"/>
					<rect x="66.023" y="11.627" clip-path="url(#SVGID_2_)" fill="#E27337" width="0.656" height="16.154"/>
					<rect x="66.679" y="11.627" clip-path="url(#SVGID_2_)" fill="#E37437" width="0.656" height="16.154"/>
					<rect x="67.335" y="11.627" clip-path="url(#SVGID_2_)" fill="#E37537" width="0.655" height="16.154"/>
					<rect x="67.991" y="11.627" clip-path="url(#SVGID_2_)" fill="#E47637" width="0.656" height="16.154"/>
					<rect x="68.647" y="11.627" clip-path="url(#SVGID_2_)" fill="#E47637" width="0.655" height="16.154"/>
					<rect x="69.302" y="11.627" clip-path="url(#SVGID_2_)" fill="#E47737" width="0.656" height="16.154"/>
					<rect x="69.959" y="11.627" clip-path="url(#SVGID_2_)" fill="#E57837" width="0.656" height="16.154"/>
					<rect x="70.615" y="11.627" clip-path="url(#SVGID_2_)" fill="#E57937" width="0.656" height="16.154"/>
					<rect x="71.271" y="11.627" clip-path="url(#SVGID_2_)" fill="#E57A37" width="0.655" height="16.154"/>
					<rect x="71.926" y="11.627" clip-path="url(#SVGID_2_)" fill="#E67A37" width="0.656" height="16.154"/>
					<rect x="72.583" y="11.627" clip-path="url(#SVGID_2_)" fill="#E67B37" width="0.656" height="16.154"/>
					<rect x="73.239" y="11.627" clip-path="url(#SVGID_2_)" fill="#E77C37" width="0.655" height="16.154"/>
					<rect x="73.894" y="11.627" clip-path="url(#SVGID_2_)" fill="#E77D37" width="0.656" height="16.154"/>
					<rect x="74.551" y="11.627" clip-path="url(#SVGID_2_)" fill="#E77D37" width="0.656" height="16.154"/>
					<rect x="75.207" y="11.627" clip-path="url(#SVGID_2_)" fill="#E87E37" width="0.656" height="16.154"/>
					<rect x="75.863" y="11.627" clip-path="url(#SVGID_2_)" fill="#E87F37" width="0.655" height="16.154"/>
					<rect x="76.519" y="11.627" clip-path="url(#SVGID_2_)" fill="#E98037" width="0.656" height="16.154"/>
					<rect x="77.175" y="11.627" clip-path="url(#SVGID_2_)" fill="#E98137" width="0.655" height="16.154"/>
					<rect x="77.83" y="11.627" clip-path="url(#SVGID_2_)" fill="#EA8137" width="0.656" height="16.154"/>
					<rect x="78.487" y="11.627" clip-path="url(#SVGID_2_)" fill="#EA8237" width="0.656" height="16.154"/>
					<rect x="79.143" y="11.627" clip-path="url(#SVGID_2_)" fill="#EA8337" width="0.656" height="16.154"/>
					<rect x="79.799" y="11.627" clip-path="url(#SVGID_2_)" fill="#EB8437" width="0.655" height="16.154"/>
					<rect x="80.455" y="11.627" clip-path="url(#SVGID_2_)" fill="#EB8537" width="0.656" height="16.154"/>
					<rect x="81.111" y="11.627" clip-path="url(#SVGID_2_)" fill="#EC8537" width="0.656" height="16.154"/>
					<rect x="81.767" y="11.627" clip-path="url(#SVGID_2_)" fill="#EC8637" width="0.655" height="16.154"/>
					<rect x="82.423" y="11.627" clip-path="url(#SVGID_2_)" fill="#ED8737" width="0.656" height="16.154"/>
					<rect x="83.079" y="11.627" clip-path="url(#SVGID_2_)" fill="#ED8838" width="0.656" height="16.154"/>
					<rect x="83.735" y="11.627" clip-path="url(#SVGID_2_)" fill="#EE8938" width="0.656" height="16.154"/>
					<rect x="84.392" y="11.627" clip-path="url(#SVGID_2_)" fill="#EE8938" width="0.655" height="16.154"/>
					<rect x="85.047" y="11.627" clip-path="url(#SVGID_2_)" fill="#EF8A38" width="0.656" height="16.154"/>
					<rect x="85.703" y="11.627" clip-path="url(#SVGID_2_)" fill="#EF8B38" width="0.655" height="16.154"/>
					<rect x="86.358" y="11.627" clip-path="url(#SVGID_2_)" fill="#F08C38" width="0.656" height="16.154"/>
					<rect x="87.015" y="11.627" clip-path="url(#SVGID_2_)" fill="#F08D38" width="0.656" height="16.154"/>
					<rect x="87.671" y="11.627" clip-path="url(#SVGID_2_)" fill="#F18D38" width="0.656" height="16.154"/>
					<rect x="88.327" y="11.627" clip-path="url(#SVGID_2_)" fill="#F18E38" width="0.655" height="16.154"/>
					<rect x="88.983" y="11.627" clip-path="url(#SVGID_2_)" fill="#F28F38" width="0.656" height="16.154"/>
					<rect x="89.639" y="11.627" clip-path="url(#SVGID_2_)" fill="#F29038" width="0.656" height="16.154"/>
					<rect x="90.295" y="11.627" clip-path="url(#SVGID_2_)" fill="#F39138" width="0.655" height="16.154"/>
					<rect x="90.951" y="11.627" clip-path="url(#SVGID_2_)" fill="#F39238" width="0.656" height="16.154"/>
					<rect x="91.607" y="11.627" clip-path="url(#SVGID_2_)" fill="#F49238" width="0.656" height="16.154"/>
					<rect x="92.263" y="11.627" clip-path="url(#SVGID_2_)" fill="#F59338" width="0.656" height="16.154"/>
					<rect x="92.92" y="11.627" clip-path="url(#SVGID_2_)" fill="#F59438" width="0.655" height="16.154"/>
					<rect x="93.575" y="11.627" clip-path="url(#SVGID_2_)" fill="#F69538" width="0.656" height="16.154"/>
					<rect x="94.231" y="11.627" clip-path="url(#SVGID_2_)" fill="#F79638" width="0.655" height="16.154"/>
					<rect x="94.887" y="11.627" clip-path="url(#SVGID_2_)" fill="#F79738" width="0.656" height="16.154"/>
					<rect x="95.543" y="11.627" clip-path="url(#SVGID_2_)" fill="#F89838" width="0.656" height="16.154"/>
					<rect x="96.199" y="11.627" clip-path="url(#SVGID_2_)" fill="#F89838" width="0.045" height="16.154"/>
				</g>
			</g>
		</g>
		<g>
			<g>
				<g>
					<path fill="#60070D" d="M31.779,29.582c0-0.304-0.023-0.554-0.071-0.752c-0.047-0.197-0.125-0.352-0.233-0.465
						c-0.108-0.112-0.25-0.191-0.424-0.236c-0.175-0.045-0.384-0.068-0.629-0.068v-0.304h4.186v0.304
						c-0.245,0-0.455,0.023-0.629,0.068c-0.175,0.045-0.316,0.124-0.424,0.236c-0.109,0.113-0.186,0.268-0.233,0.465
						c-0.047,0.197-0.071,0.448-0.071,0.752v8.226c0,0.237,0.052,0.439,0.156,0.608c0.104,0.169,0.236,0.253,0.396,0.253h1.796
						c0.405,0,0.766-0.067,1.082-0.203c0.316-0.135,0.589-0.321,0.82-0.558c0.231-0.236,0.427-0.515,0.587-0.836
						c0.16-0.321,0.292-0.667,0.396-1.039l0.283,0.084l-0.835,3.125h-7.51V38.94c0.245,0,0.455-0.022,0.629-0.068
						c0.175-0.045,0.316-0.124,0.424-0.236c0.108-0.112,0.186-0.267,0.233-0.465c0.047-0.197,0.071-0.448,0.071-0.752V29.582z"/>
				</g>
				<g>
					<path fill="#60070D" d="M40.986,29.582c0-0.304-0.024-0.554-0.071-0.752c-0.047-0.197-0.125-0.352-0.233-0.465
						c-0.109-0.112-0.25-0.191-0.424-0.236c-0.175-0.045-0.384-0.068-0.629-0.068v-0.304h4.186v0.304
						c-0.245,0-0.455,0.023-0.63,0.068c-0.175,0.045-0.316,0.124-0.424,0.236c-0.108,0.113-0.186,0.268-0.233,0.465
						c-0.047,0.197-0.071,0.448-0.071,0.752v7.838c0,0.304,0.023,0.555,0.071,0.752c0.047,0.197,0.125,0.352,0.233,0.465
						c0.108,0.113,0.25,0.192,0.424,0.236c0.175,0.045,0.384,0.068,0.63,0.068v0.304h-4.186V38.94c0.245,0,0.455-0.022,0.629-0.068
						c0.174-0.045,0.316-0.124,0.424-0.236c0.108-0.112,0.186-0.267,0.233-0.465c0.047-0.197,0.071-0.448,0.071-0.752V29.582z"/>
				</g>
				<g>
					<path fill="#60070D" d="M52.485,27.758l0.113,2.736h-0.255c-0.113-0.709-0.314-1.247-0.601-1.613
						c-0.288-0.366-0.748-0.549-1.379-0.549h-1.047v9.088c0,0.304,0.023,0.555,0.071,0.752c0.047,0.197,0.125,0.352,0.233,0.465
						c0.108,0.113,0.25,0.192,0.424,0.236c0.174,0.045,0.384,0.068,0.629,0.068v0.304h-4.186V38.94c0.245,0,0.455-0.022,0.63-0.068
						c0.174-0.045,0.316-0.124,0.424-0.236c0.108-0.112,0.186-0.267,0.233-0.465c0.047-0.197,0.071-0.448,0.071-0.752v-9.088h-1.046
						c-0.632,0-1.092,0.183-1.379,0.549c-0.288,0.366-0.488,0.904-0.601,1.613h-0.255l0.113-2.736H52.485z"/>
				</g>
				<g>
					<path fill="#60070D" d="M61.112,27.758l0.113,2.736h-0.255c-0.113-0.709-0.314-1.247-0.601-1.613
						c-0.288-0.366-0.748-0.549-1.379-0.549h-1.047v9.088c0,0.304,0.023,0.555,0.071,0.752c0.047,0.197,0.125,0.352,0.233,0.465
						c0.108,0.113,0.25,0.192,0.424,0.236c0.174,0.045,0.384,0.068,0.629,0.068v0.304h-4.186V38.94c0.245,0,0.455-0.022,0.63-0.068
						c0.174-0.045,0.316-0.124,0.424-0.236c0.108-0.112,0.186-0.267,0.233-0.465c0.047-0.197,0.071-0.448,0.071-0.752v-9.088h-1.046
						c-0.632,0-1.092,0.183-1.379,0.549c-0.288,0.366-0.488,0.904-0.601,1.613h-0.255l0.113-2.736H61.112z"/>
				</g>
				<g>
					<path fill="#60070D" d="M63.319,29.582c0-0.304-0.023-0.554-0.071-0.752c-0.047-0.197-0.125-0.352-0.233-0.465
						c-0.108-0.112-0.25-0.191-0.424-0.236c-0.175-0.045-0.384-0.068-0.629-0.068v-0.304h4.186v0.304
						c-0.245,0-0.455,0.023-0.629,0.068c-0.175,0.045-0.316,0.124-0.424,0.236c-0.109,0.113-0.186,0.268-0.233,0.465
						c-0.047,0.197-0.071,0.448-0.071,0.752v8.226c0,0.237,0.052,0.439,0.156,0.608c0.104,0.169,0.236,0.253,0.396,0.253h1.796
						c0.405,0,0.766-0.067,1.082-0.203c0.316-0.135,0.589-0.321,0.82-0.558c0.231-0.236,0.427-0.515,0.587-0.836
						c0.16-0.321,0.292-0.667,0.396-1.039l0.283,0.084l-0.835,3.125h-7.51V38.94c0.245,0,0.455-0.022,0.629-0.068
						c0.175-0.045,0.316-0.124,0.424-0.236c0.108-0.112,0.186-0.267,0.233-0.465c0.047-0.197,0.071-0.448,0.071-0.752V29.582z"/>
				</g>
				<g>
					<path fill="#60070D" d="M78.509,27.758l0.113,2.736h-0.255c-0.113-0.709-0.314-1.247-0.601-1.613
						c-0.288-0.366-0.747-0.549-1.379-0.549h-2.433v4.358h2.079c0.198,0,0.384-0.025,0.559-0.076
						c0.174-0.051,0.327-0.135,0.46-0.253c0.132-0.118,0.236-0.27,0.311-0.456c0.075-0.186,0.113-0.419,0.113-0.701h0.254v3.885
						h-0.254c0-0.338-0.038-0.625-0.113-0.862c-0.075-0.236-0.177-0.425-0.304-0.566c-0.127-0.141-0.276-0.242-0.445-0.304
						c-0.17-0.062-0.354-0.093-0.552-0.093h-2.107v4.696c0.009,0.192,0.066,0.358,0.17,0.498c0.104,0.141,0.236,0.211,0.396,0.211
						h2.008c0.34,0,0.644-0.07,0.912-0.211c0.269-0.141,0.509-0.329,0.721-0.566c0.212-0.237,0.396-0.515,0.552-0.836
						c0.156-0.321,0.28-0.667,0.375-1.039h0.339l-0.863,3.226h-7.439V38.94c0.245,0,0.455-0.022,0.629-0.068
						c0.175-0.045,0.316-0.124,0.424-0.236c0.108-0.112,0.186-0.267,0.233-0.465c0.047-0.197,0.071-0.448,0.071-0.752v-7.838
						c0-0.304-0.023-0.554-0.071-0.752c-0.047-0.197-0.125-0.352-0.233-0.465c-0.108-0.112-0.25-0.191-0.424-0.236
						c-0.175-0.045-0.384-0.068-0.629-0.068v-0.304H78.509z"/>
				</g>
			</g>
			<g>
				<g>
					<path fill="#60070D" d="M13.645,37.037v0.422c-0.497,0-0.841,0.086-1.03,0.257c-0.189,0.172-0.284,0.375-0.284,0.609
						c0,0.187,0.03,0.414,0.088,0.679c0.059,0.266,0.14,0.562,0.245,0.89l2.746,9.252l2.216-7.448l-0.51-1.733
						c-0.118-0.39-0.232-0.741-0.343-1.054c-0.111-0.312-0.242-0.574-0.392-0.785c-0.151-0.211-0.334-0.375-0.549-0.492
						c-0.216-0.117-0.481-0.176-0.794-0.176v-0.422h5.197v0.422c-0.484,0-0.827,0.09-1.03,0.269
						c-0.203,0.18-0.304,0.387-0.304,0.621c0,0.406,0.098,0.937,0.294,1.592l2.667,9.205l2.706-9.275
						c0.235-0.812,0.274-1.417,0.117-1.815c-0.157-0.398-0.601-0.597-1.333-0.597l0.02-0.422h3.962v0.422
						c-0.301,0-0.543,0.055-0.726,0.164c-0.183,0.109-0.34,0.266-0.471,0.468c-0.131,0.203-0.245,0.461-0.343,0.773
						c-0.098,0.312-0.206,0.664-0.324,1.054l-3.824,13.42h-0.471l-3.079-10.094l-3.001,10.094h-0.471l-4.001-13.35
						c-0.131-0.437-0.252-0.816-0.362-1.136c-0.112-0.32-0.236-0.582-0.373-0.785c-0.137-0.203-0.301-0.355-0.49-0.457
						c-0.189-0.101-0.422-0.152-0.696-0.152v-0.422H13.645z"/>
				</g>
				<g>
					<path fill="#60070D" d="M33.83,53.338c-0.789,0-1.527-0.187-2.212-0.56c-0.685-0.373-1.277-0.881-1.776-1.522
						c-0.499-0.641-0.894-1.391-1.184-2.249c-0.291-0.857-0.436-1.771-0.436-2.74c0-0.956,0.145-1.853,0.436-2.691
						c0.29-0.838,0.685-1.571,1.184-2.2c0.499-0.628,1.091-1.123,1.776-1.483c0.685-0.36,1.423-0.54,2.212-0.54
						c0.79,0,1.527,0.18,2.212,0.54c0.685,0.36,1.277,0.854,1.776,1.483c0.499,0.628,0.893,1.362,1.184,2.2
						c0.29,0.838,0.436,1.735,0.436,2.691c0,0.969-0.145,1.882-0.436,2.74c-0.291,0.858-0.685,1.607-1.184,2.249
						c-0.499,0.642-1.091,1.149-1.776,1.522C35.356,53.152,34.619,53.338,33.83,53.338z M33.83,52.671
						c0.581,0,1.096-0.16,1.546-0.481c0.449-0.321,0.825-0.766,1.127-1.336c0.301-0.57,0.532-1.244,0.691-2.023
						c0.159-0.779,0.239-1.633,0.239-2.563c0-0.916-0.08-1.758-0.239-2.524c-0.159-0.766-0.389-1.424-0.691-1.974
						c-0.302-0.55-0.677-0.979-1.127-1.286c-0.45-0.308-0.965-0.462-1.546-0.462c-0.592,0-1.113,0.154-1.562,0.462
						c-0.45,0.308-0.825,0.736-1.127,1.286c-0.302,0.55-0.529,1.208-0.683,1.974c-0.154,0.766-0.23,1.607-0.23,2.524
						c0,0.93,0.077,1.784,0.23,2.563c0.154,0.779,0.381,1.453,0.683,2.023c0.301,0.569,0.677,1.015,1.127,1.336
						C32.717,52.51,33.238,52.671,33.83,52.671z"/>
				</g>
				<g>
					<path fill="#60070D" d="M41.986,41.908c0-0.275-0.049-0.53-0.148-0.766c-0.099-0.236-0.233-0.435-0.403-0.599
						c-0.17-0.164-0.367-0.291-0.592-0.383c-0.225-0.091-0.463-0.137-0.715-0.137v-0.354h2.812l6.66,9.761h0.066v-7.64
						c0-0.354-0.027-0.645-0.082-0.874c-0.055-0.229-0.146-0.409-0.272-0.54c-0.126-0.131-0.291-0.223-0.493-0.275
						c-0.203-0.052-0.447-0.079-0.732-0.079v-0.354h3.914v0.354c-0.285,0-0.529,0.026-0.732,0.079
						c-0.203,0.052-0.367,0.144-0.493,0.275c-0.126,0.131-0.217,0.311-0.272,0.54c-0.055,0.229-0.082,0.52-0.082,0.874v11.548
						h-0.395l-7.219-10.861h-0.066v8.426c0,0.353,0.027,0.645,0.082,0.874c0.055,0.229,0.145,0.409,0.271,0.54
						c0.126,0.131,0.291,0.223,0.493,0.275c0.203,0.052,0.447,0.079,0.732,0.079v0.354h-3.914v-0.354
						c0.285,0,0.529-0.026,0.732-0.079c0.203-0.052,0.367-0.144,0.493-0.275c0.126-0.131,0.216-0.311,0.271-0.54
						c0.055-0.229,0.082-0.521,0.082-0.874V41.908z"/>
				</g>
				<g>
					<path fill="#60070D" d="M54.353,41.79c0-0.354-0.028-0.645-0.082-0.874c-0.055-0.229-0.146-0.409-0.271-0.54
						c-0.126-0.131-0.291-0.223-0.493-0.275c-0.203-0.052-0.447-0.079-0.732-0.079v-0.354h4.966c1.041,0,1.938,0.128,2.689,0.383
						c0.751,0.255,1.379,0.665,1.883,1.228c1.151,1.283,1.727,2.933,1.727,4.949c0,0.943-0.129,1.827-0.386,2.652
						c-0.258,0.825-0.636,1.545-1.135,2.16c-0.499,0.616-1.116,1.1-1.85,1.453c-0.735,0.354-1.573,0.53-2.516,0.53h-5.377v-0.354
						c0.285,0,0.529-0.026,0.732-0.079c0.203-0.052,0.367-0.144,0.493-0.275c0.126-0.131,0.216-0.311,0.271-0.54
						c0.055-0.229,0.082-0.521,0.082-0.874V41.79z M56.063,52.042c0.285,0.131,0.578,0.216,0.88,0.255
						c0.301,0.039,0.611,0.059,0.929,0.059c0.57,0,1.11-0.141,1.62-0.422c0.51-0.281,0.951-0.687,1.324-1.218
						c0.373-0.53,0.669-1.169,0.888-1.915c0.219-0.746,0.329-1.591,0.329-2.534c0-0.825-0.104-1.597-0.312-2.317
						c-0.209-0.72-0.496-1.348-0.864-1.885c-0.367-0.537-0.806-0.959-1.315-1.267c-0.51-0.308-1.066-0.462-1.669-0.462
						c-0.417,0-0.756,0.033-1.02,0.098c-0.263,0.066-0.526,0.144-0.789,0.236V52.042z"/>
				</g>
				<g>
					<path fill="#60070D" d="M73.643,39.669l0.132,3.182h-0.296c-0.132-0.825-0.365-1.45-0.699-1.876
						c-0.335-0.425-0.869-0.638-1.604-0.638h-2.828v5.067h2.417c0.23,0,0.447-0.03,0.649-0.088c0.203-0.059,0.381-0.157,0.535-0.295
						c0.154-0.137,0.274-0.314,0.362-0.53c0.088-0.216,0.132-0.488,0.132-0.815h0.296v4.517h-0.296c0-0.393-0.044-0.727-0.132-1.002
						c-0.088-0.275-0.206-0.494-0.354-0.658c-0.148-0.164-0.321-0.281-0.518-0.354c-0.198-0.072-0.411-0.108-0.641-0.108h-2.45v5.46
						c0.011,0.223,0.077,0.416,0.197,0.579c0.121,0.164,0.274,0.245,0.461,0.245h2.335c0.394,0,0.748-0.082,1.061-0.245
						c0.312-0.164,0.592-0.383,0.839-0.658c0.247-0.275,0.46-0.599,0.641-0.972c0.181-0.373,0.326-0.776,0.436-1.208h0.395
						l-1.003,3.751h-8.65v-0.354c0.285,0,0.529-0.026,0.732-0.079c0.203-0.052,0.367-0.144,0.493-0.275
						c0.126-0.131,0.216-0.311,0.271-0.54c0.055-0.229,0.082-0.521,0.082-0.874V41.79c0-0.354-0.028-0.645-0.082-0.874
						c-0.055-0.229-0.146-0.409-0.271-0.54c-0.126-0.131-0.291-0.223-0.493-0.275c-0.203-0.052-0.447-0.079-0.732-0.079v-0.354
						H73.643z"/>
				</g>
				<g>
					<path fill="#60070D" d="M77.08,41.79c0-0.354-0.028-0.645-0.082-0.874c-0.055-0.229-0.146-0.409-0.271-0.54
						c-0.126-0.131-0.291-0.223-0.493-0.275c-0.203-0.052-0.447-0.079-0.732-0.079v-0.354h5.098c0.614,0,1.151,0.085,1.612,0.255
						c0.46,0.17,0.844,0.409,1.151,0.717c0.307,0.308,0.537,0.675,0.691,1.1c0.153,0.426,0.23,0.894,0.23,1.404
						c0,0.838-0.228,1.555-0.682,2.151c-0.455,0.596-1.055,1.011-1.801,1.247l2.385,4.183c0.438,0.746,0.86,1.257,1.266,1.532
						c0.406,0.275,0.828,0.412,1.266,0.412v0.354h-3.19l-3.536-6.285H78.79v4.164c0,0.353,0.027,0.645,0.082,0.874
						c0.055,0.229,0.145,0.409,0.271,0.54c0.126,0.131,0.29,0.223,0.493,0.275c0.203,0.052,0.446,0.079,0.732,0.079v0.354h-4.868
						v-0.354c0.285,0,0.529-0.026,0.732-0.079c0.203-0.052,0.367-0.144,0.493-0.275c0.126-0.131,0.216-0.311,0.271-0.54
						c0.055-0.229,0.082-0.521,0.082-0.874V41.79z M78.79,46.072h0.987c0.384,0,0.737-0.065,1.061-0.196
						c0.323-0.131,0.606-0.321,0.847-0.57c0.241-0.249,0.428-0.55,0.559-0.903c0.132-0.354,0.198-0.746,0.198-1.178
						c0-0.393-0.052-0.766-0.156-1.12c-0.104-0.353-0.252-0.661-0.444-0.923c-0.192-0.262-0.419-0.468-0.683-0.619
						c-0.263-0.15-0.548-0.226-0.855-0.226c-0.121,0-0.255,0.007-0.403,0.02c-0.148,0.013-0.293,0.033-0.436,0.059
						c-0.143,0.026-0.274,0.056-0.395,0.088c-0.121,0.033-0.214,0.062-0.28,0.088V46.072z"/>
				</g>
				<g>
					<path fill="#60070D" d="M95.238,42.213c-0.117-1.452-0.487-2.592-1.108-3.42c-0.621-0.827-1.468-1.241-2.539-1.241
						c-0.366,0-0.696,0.078-0.99,0.234c-0.294,0.156-0.546,0.359-0.755,0.609c-0.209,0.25-0.37,0.523-0.48,0.82
						c-0.111,0.297-0.167,0.594-0.167,0.89c0,0.562,0.18,1.062,0.539,1.499c0.359,0.437,0.811,0.851,1.353,1.241
						c0.543,0.39,1.128,0.781,1.755,1.171c0.628,0.391,1.213,0.812,1.755,1.265c0.543,0.453,0.994,0.96,1.353,1.523
						c0.36,0.562,0.539,1.218,0.539,1.967c0,0.625-0.099,1.214-0.295,1.768c-0.197,0.554-0.488,1.039-0.875,1.452
						c-0.386,0.414-0.855,0.742-1.405,0.984c-0.551,0.242-1.179,0.363-1.887,0.363c-0.459,0-0.852-0.047-1.18-0.141
						c-0.328-0.094-0.629-0.203-0.904-0.328c-0.21-0.094-0.41-0.188-0.6-0.281c-0.19-0.094-0.397-0.14-0.619-0.14
						c-0.184,0-0.328,0.09-0.433,0.269c-0.105,0.18-0.17,0.387-0.196,0.621h-0.333v-5.387H88.1c0.052,0.718,0.2,1.358,0.443,1.92
						c0.242,0.562,0.55,1.035,0.924,1.417c0.374,0.383,0.797,0.672,1.269,0.867c0.472,0.195,0.957,0.293,1.456,0.293
						c0.328,0,0.642-0.062,0.944-0.188c0.302-0.125,0.57-0.3,0.806-0.527c0.236-0.226,0.427-0.499,0.571-0.819
						c0.144-0.32,0.217-0.683,0.217-1.089c0-0.64-0.177-1.194-0.53-1.663c-0.353-0.468-0.791-0.898-1.314-1.288
						c-0.523-0.39-1.092-0.765-1.706-1.124c-0.615-0.359-1.183-0.761-1.706-1.206c-0.523-0.445-0.961-0.952-1.314-1.523
						c-0.353-0.57-0.529-1.261-0.529-2.073c0-0.609,0.094-1.175,0.284-1.698c0.189-0.523,0.461-0.976,0.814-1.359
						c0.353-0.382,0.771-0.683,1.255-0.901c0.483-0.218,1.019-0.328,1.608-0.328c0.392,0,0.702,0.039,0.931,0.117
						c0.228,0.078,0.474,0.164,0.735,0.257c0.222,0.079,0.441,0.184,0.657,0.316c0.215,0.133,0.422,0.199,0.618,0.199
						c0.183,0,0.349-0.102,0.5-0.305c0.15-0.203,0.225-0.398,0.225-0.585h0.353v5.551H95.238z"/>
				</g>
			</g>
		</g>
		<g>
			<path fill="#4B3113" d="M8.825,45.393c0,0.606-0.412,1.098-0.919,1.098H2.107c-0.508,0-0.919-0.492-0.919-1.098l0,0
				c0-0.606,0.412-1.098,0.919-1.098h5.799C8.414,44.295,8.825,44.787,8.825,45.393L8.825,45.393z"/>
		</g>
		<g>
			<path fill="#4B3113" d="M106.699,45.393c0,0.606-0.412,1.098-0.919,1.098H99.98c-0.508,0-0.919-0.492-0.919-1.098l0,0
				c0-0.606,0.412-1.098,0.919-1.098h5.799C106.287,44.295,106.699,44.787,106.699,45.393L106.699,45.393z"/>
		</g>
		<g>
			<g>
				<g>
					<path fill="#ED1F24" d="M32.763,62.961c0.01-1.057-0.03-2.113-0.038-3.169c-0.006-0.815-0.152-2.288,0.782-2.357
						c0.626-0.046,0.938,0.793,0.861,1.418c-0.115,0.938-1.004,1.078-1.641,1.026c-0.228-0.019-0.226,0.404,0,0.422
						c0.828,0.068,1.649-0.184,1.953-1.197c0.215-0.718-0.096-1.549-0.619-1.928c-0.552-0.4-1.32-0.115-1.541,0.588
						c-0.194,0.615-0.147,1.387-0.148,2.028c-0.002,1.057,0.048,2.112,0.038,3.169C32.407,63.233,32.76,63.233,32.763,62.961
						L32.763,62.961z"/>
				</g>
			</g>
			<g>
				<g>
					<path fill="#ED1F24" d="M34.896,60.461c0.298-0.09,0.505-0.648,0.643-0.926c0.373-0.755,0.674-1.568,0.921-2.392
						c0.099-0.331,0.578-2.893-0.473-2.206c-0.777,0.507-0.57,2.718-0.491,3.535c0.088,0.904,0.498,2.55,1.494,1.714
						c0.185-0.155,0.009-0.522-0.178-0.365c-1.159,0.972-1.08-3.639-0.749-4.395c0.247-0.563,0.273,0.661,0.254,0.781
						c-0.092,0.572-0.282,1.128-0.472,1.661c-0.146,0.408-0.625,2.06-1.042,2.186C34.581,60.121,34.675,60.528,34.896,60.461
						L34.896,60.461z"/>
				</g>
			</g>
			<g>
				<g>
					<path fill="#ED1F24" d="M59.011,60.461c0.298-0.09,0.505-0.648,0.643-0.926c0.373-0.755,0.674-1.568,0.921-2.392
						c0.099-0.331,0.578-2.893-0.473-2.206c-0.777,0.507-0.57,2.718-0.491,3.535c0.088,0.904,0.498,2.55,1.494,1.714
						c0.185-0.155,0.009-0.522-0.178-0.365c-1.159,0.972-1.08-3.639-0.749-4.395c0.247-0.563,0.273,0.661,0.254,0.781
						c-0.092,0.572-0.282,1.128-0.472,1.661c-0.146,0.408-0.625,2.06-1.042,2.186C58.696,60.121,58.79,60.528,59.011,60.461
						L59.011,60.461z"/>
				</g>
			</g>
			<g>
				<g>
					<path fill="#ED1F24" d="M40.314,57.789c0.801-0.882,0.68,0.553,0.764,1.009c0.061,0.33,0.285,0.467,0.522,0.563
						c0.888,0.357,1.252-1.167,1.364-1.891c-0.116-0.019-0.232-0.037-0.347-0.056c-0.101,2.088,0.293,4.177,0.173,6.274
						c-0.013,0.22-0.042,0.437-0.087,0.651c-0.15,0.805-1.055,0.58-1.264-0.08c-0.157-0.494-0.188-1.045-0.194-1.568
						c-0.018-1.544,1.193-3.891,2.586-3.94c0.228-0.008,0.228-0.43,0-0.422c-1.52,0.053-2.47,2.027-2.854,3.577
						c-0.21,0.851-0.146,3.194,0.774,3.527c2.372,0.86,1.162-6.835,1.219-8.02c0.012-0.236-0.311-0.291-0.347-0.056
						c-0.071,0.457-0.169,0.819-0.353,1.243c-0.772,1.776-0.915-0.472-0.92-0.62c-0.011-0.293-0.057-0.565-0.176-0.823
						c-0.271-0.585-0.89,0.09-1.11,0.331C39.895,57.675,40.146,57.973,40.314,57.789L40.314,57.789z"/>
				</g>
			</g>
			<g>
				<g>
					<path fill="#ED1F24" d="M39.145,57.89c-0.098-0.812-0.596-1.081-1.135-0.559c-0.52,0.503-0.911,1.62-0.591,2.382
						c0.306,0.728,0.887,0.834,1.261,0.144c0.404-0.745,0.45-1.675,0.7-2.491c-0.114,0-0.227,0-0.341,0
						c0.122,0.928-0.762,3.166,0.736,3.018c0.225-0.022,0.227-0.445,0-0.422c-0.659,0.065-0.581-0.647-0.509-1.22
						c0.061-0.489,0.179-0.991,0.114-1.487c-0.03-0.227-0.287-0.174-0.341,0c-0.121,0.394-0.558,3.1-1.096,2.595
						c-0.468-0.439-0.262-1.246-0.01-1.755c0.119-0.24,0.301-0.5,0.522-0.612c0.271-0.136,0.322,0.297,0.349,0.52
						C38.836,58.271,39.177,58.156,39.145,57.89L39.145,57.89z"/>
				</g>
			</g>
			<g>
				<g>
					<path fill="#ED1F24" d="M48.385,57.946c-0.098-0.812-0.596-1.081-1.135-0.559c-0.52,0.503-0.911,1.62-0.591,2.382
						c0.306,0.728,0.887,0.834,1.261,0.144c0.404-0.745,0.45-1.675,0.7-2.491c-0.114,0-0.227,0-0.341,0
						c0.122,0.928-0.762,3.166,0.736,3.018c0.226-0.022,0.227-0.445,0-0.422c-0.659,0.065-0.581-0.647-0.509-1.22
						c0.061-0.489,0.179-0.991,0.114-1.487c-0.03-0.227-0.287-0.174-0.341,0c-0.121,0.394-0.558,3.1-1.096,2.595
						c-0.468-0.439-0.262-1.246-0.01-1.755c0.119-0.24,0.301-0.5,0.522-0.612c0.271-0.136,0.322,0.297,0.349,0.52
						C48.077,58.327,48.417,58.212,48.385,57.946L48.385,57.946z"/>
				</g>
			</g>
			<g>
				<g>
					<path fill="#ED1F24" d="M66.136,58.03c-0.098-0.812-0.596-1.081-1.135-0.559c-0.52,0.503-0.911,1.62-0.591,2.382
						c0.306,0.728,0.887,0.834,1.261,0.144c0.404-0.745,0.45-1.675,0.7-2.491c-0.114,0-0.227,0-0.341,0
						c0.122,0.928-0.762,3.166,0.736,3.018c0.226-0.022,0.227-0.445,0-0.422c-0.659,0.065-0.581-0.647-0.509-1.22
						c0.061-0.489,0.179-0.991,0.114-1.487c-0.03-0.227-0.287-0.174-0.341,0c-0.121,0.394-0.558,3.1-1.096,2.595
						c-0.468-0.439-0.262-1.246-0.01-1.755c0.119-0.24,0.301-0.5,0.522-0.612c0.271-0.136,0.322,0.297,0.349,0.52
						C65.827,58.411,66.168,58.297,66.136,58.03L66.136,58.03z"/>
				</g>
			</g>
			<g>
				<g>
					<path fill="#ED1F24" d="M49.719,58.892c0.461-0.31,0.824-0.738,1.214-1.159c-0.099-0.031-0.197-0.062-0.296-0.093
						c0.103,0.79-0.011,1.582,0.141,2.365c0.041,0.211,0.292,0.193,0.341,0c0.146-0.572,0.319-1.133,0.56-1.658
						c0.099-0.217,0.566-0.922,0.692-0.367c0.062,0.274,0.034,0.599,0.038,0.88c0.011,0.795,0.2,1.692,0.986,1.103
						c0.193-0.144,0.015-0.51-0.178-0.365c-0.596,0.446-0.451-1.07-0.472-1.447c-0.022-0.405-0.148-0.737-0.514-0.811
						c-0.837-0.17-1.285,1.891-1.453,2.553c0.114,0,0.227,0,0.341,0c-0.151-0.778-0.038-1.578-0.141-2.365
						c-0.022-0.168-0.207-0.189-0.296-0.093c-0.367,0.396-0.707,0.801-1.143,1.093C49.341,58.661,49.52,59.026,49.719,58.892
						L49.719,58.892z"/>
				</g>
			</g>
			<g>
				<g>
					<path fill="#ED1F24" d="M69.944,58.976c0.461-0.31,0.824-0.738,1.214-1.159c-0.099-0.031-0.197-0.062-0.296-0.093
						c0.103,0.79-0.011,1.582,0.141,2.365c0.041,0.211,0.292,0.193,0.341,0c0.146-0.572,0.319-1.133,0.56-1.658
						c0.099-0.217,0.566-0.922,0.692-0.367c0.062,0.274,0.034,0.599,0.038,0.88c0.011,0.795,0.2,1.692,0.986,1.103
						c0.193-0.144,0.015-0.51-0.178-0.365c-0.596,0.446-0.451-1.07-0.472-1.447c-0.022-0.405-0.148-0.737-0.514-0.811
						c-0.837-0.17-1.285,1.891-1.453,2.553c0.114,0,0.227,0,0.341,0c-0.151-0.778-0.038-1.578-0.141-2.365
						c-0.022-0.168-0.207-0.189-0.296-0.093c-0.367,0.396-0.707,0.801-1.143,1.093C69.567,58.745,69.745,59.11,69.944,58.976
						L69.944,58.976z"/>
				</g>
			</g>
			<g>
				<g>
					<path fill="#ED1F24" d="M55.829,57.479c-0.768-0.362-1.499-0.109-1.871,0.799c-0.284,0.691-0.223,1.669,0.362,2.096
						c0.704,0.515,1.302-0.291,1.507-1.008c0.387-1.351,0.142-2.866,0.273-4.26c-0.118,0-0.236,0-0.354,0
						c-0.005,0.992-0.356,4.339,0.884,4.532c0.226,0.035,0.223-0.388,0-0.422c-0.788-0.123-0.534-3.426-0.531-4.11
						c0.001-0.279-0.329-0.264-0.354,0c-0.133,1.412,0.305,3.648-0.552,4.791c-0.259,0.345-0.736,0.183-0.924-0.148
						c-0.166-0.293-0.133-0.711-0.071-1.034c0.175-0.911,0.871-1.143,1.536-0.83C55.947,57.986,56.038,57.577,55.829,57.479
						L55.829,57.479z"/>
				</g>
			</g>
			<g>
				<g>
					<path fill="#ED1F24" d="M61.958,58.857c0.418,0.078,1.814-0.108,1.587-0.962c-0.347-1.308-1.445-0.278-1.818,0.398
						c-0.312,0.567-0.574,1.907,0.216,2.093c0.727,0.171,1.603-0.616,2.025-1.246c0.141-0.21-0.108-0.511-0.25-0.299
						c-0.315,0.471-0.75,0.841-1.225,1.047c-0.182,0.079-0.419,0.152-0.599,0.034c-0.23-0.15-0.085-0.701-0.036-0.911
						c0.104-0.452,0.65-1.578,1.157-1.301c0.465,0.253-0.027,0.57-0.251,0.649c-0.218,0.077-0.484,0.133-0.711,0.091
						C61.829,58.408,61.733,58.815,61.958,58.857L61.958,58.857z"/>
				</g>
			</g>
			<g>
				<g>
					<path fill="#ED1F24" d="M67.05,57.674c0.752,0.357,0.513,1.743,0.507,2.499c0.118,0,0.236,0,0.354,0
						c-0.046-1.218,0.257-2.679,1.52-2.491c0.226,0.033,0.223-0.389,0-0.422c-1.459-0.217-1.928,1.469-1.874,2.914
						c0.01,0.271,0.351,0.273,0.354,0c0.009-1.018,0.216-2.44-0.766-2.906C66.931,57.166,66.841,57.575,67.05,57.674L67.05,57.674z"
						/>
				</g>
			</g>
		</g>
		<g>
			<g>
				<path fill-rule="evenodd" clip-rule="evenodd" fill="#CC3333" d="M18.816,20.016c0.022-0.455-0.134-1.2-0.704-2.312
					c-0.8-1.56-1.106-1.618-1.277-1.305c-0.171,0.312,0.111,2.2,0.094,2.622c-0.018,0.422,0.291,0.409,0.408,0.521
					c0.116,0.112-0.348,0.164-0.402,0.376c-0.054,0.213-0.115,0.292-0.015,0.37c0.099,0.078-0.01,0.375,0.083,0.448
					c0.094,0.073,0.072,0.29,0.172,0.368c0.1,0.078,0.064,0.273,0.262,0.204c0.198-0.069,0.489-0.228,0.655-0.285
					c0.046-0.016,0.098-0.042,0.154-0.079c-0.041,0.141-0.062,0.327-0.009,0.368c0.052,0.041,0.187-0.056,0.279-0.158
					c-0.007,0.075-0.006,0.143,0,0.199c0.023,0.204,0.017,0.587,0.043,0.83c0.027,0.244,0.162,0.127,0.262,0.205
					c0.099,0.078,0.258-0.032,0.351,0.041c0.093,0.073,0.277-0.166,0.377-0.088c0.1,0.078,0.136-0.021,0.278-0.166
					c0.142-0.144-0.005-0.673,0.128-0.591c0.132,0.082,0.246,0.426,0.563,0.238c0.316-0.189,1.877-0.637,2.049-0.949
					c0.171-0.312,0.004-0.624-1.514-0.874c-1.081-0.178-1.716-0.051-2.055,0.156c-0.001-0.024-0.011-0.05-0.038-0.079
					c-0.002-0.002-0.004-0.004-0.006-0.007c0.078-0.105,0.188-0.177,0.296-0.249c0.114-0.075,0.226-0.149,0.302-0.26
					c0.006-0.009,0.005-0.022-0.003-0.029c-0.008-0.007-0.018-0.006-0.024,0.003c-0.072,0.105-0.181,0.177-0.292,0.251
					c-0.106,0.07-0.213,0.141-0.293,0.243c0.046-0.129,0.058-0.275,0.069-0.419c0.012-0.151,0.023-0.299,0.075-0.42
					c0.004-0.01,0.001-0.023-0.007-0.028c-0.008-0.006-0.019-0.001-0.023,0.008c-0.055,0.128-0.067,0.28-0.079,0.435
					c-0.012,0.147-0.023,0.295-0.073,0.424C18.863,20.008,18.836,20.007,18.816,20.016z"/>
			</g>
			<g>
				<path fill-rule="evenodd" clip-rule="evenodd" fill="#ED1F24" d="M18.816,20.016c0.022-0.455-0.134-1.2-0.704-2.312
					c-0.8-1.56-1.106-1.618-1.277-1.305c-0.171,0.312,0.111,2.2,0.094,2.622c-0.018,0.422,0.291,0.409,0.408,0.521
					c0.116,0.112-0.348,0.164-0.402,0.376c-0.054,0.213-0.115,0.292-0.015,0.37c0.099,0.078-0.01,0.375,0.083,0.448
					c0.094,0.073,0.072,0.29,0.172,0.368c0.099,0.078,0.064,0.273,0.262,0.204c0.198-0.069,0.489-0.228,0.655-0.285
					c0.046-0.016,0.098-0.042,0.154-0.079c-0.041,0.141-0.062,0.327-0.009,0.368c0.052,0.041,0.187-0.056,0.279-0.158
					c-0.007,0.075-0.006,0.143,0,0.199c0.023,0.204,0.017,0.587,0.043,0.83c0.027,0.244,0.162,0.127,0.262,0.205
					c0.099,0.078,0.258-0.032,0.351,0.041c0.093,0.073,0.277-0.166,0.377-0.088c0.1,0.078,0.136-0.021,0.278-0.166
					c0.142-0.144-0.005-0.673,0.128-0.591c0.132,0.082,0.246,0.426,0.563,0.238c0.316-0.189,1.877-0.637,2.049-0.949
					c0.171-0.312,0.004-0.624-1.514-0.874c-1.081-0.178-1.716-0.051-2.056,0.155c-0.001-0.024-0.011-0.05-0.038-0.079
					c-0.002-0.002-0.004-0.004-0.006-0.007c0.078-0.105,0.188-0.177,0.296-0.249c0.114-0.075,0.226-0.149,0.302-0.26
					c0.006-0.009,0.005-0.022-0.003-0.029c-0.008-0.007-0.018-0.006-0.024,0.003c-0.072,0.105-0.181,0.177-0.292,0.251
					c-0.106,0.07-0.213,0.141-0.293,0.243c0.046-0.129,0.058-0.275,0.069-0.419c0.012-0.151,0.023-0.299,0.075-0.42
					c0.004-0.01,0.001-0.023-0.007-0.028c-0.008-0.006-0.019-0.001-0.023,0.008c-0.055,0.128-0.067,0.28-0.079,0.435
					c-0.012,0.147-0.023,0.295-0.073,0.424C18.863,20.008,18.836,20.007,18.816,20.016z"/>
			</g>
		</g>
		<g>
			<path fill="#ED1F24" d="M77.999,12.741c-0.096-0.038-0.204-0.011-0.289,0.054c-0.085,0.064-0.15,0.161-0.199,0.267
				c-0.102,0.217-0.142,0.467-0.165,0.715c-0.031,0.328-0.036,0.66-0.015,0.99c0.011,0.167,0.028,0.333,0.052,0.498
				c0.009,0.062,0.013,0.146,0.03,0.212c-0.022-0.01-0.043-0.016-0.063-0.017c-0.027-0.029-0.065-0.037-0.098-0.023l-0.209-0.756
				c0.058-0.06-0.02-0.168-0.078-0.108c-0.049,0.051-0.001,0.137,0.052,0.125l0.209,0.758c0,0-0.001,0-0.001,0l-0.631-0.322
				c0.001-0.004,0.003-0.009,0.004-0.013l0-0.01c0.002-0.039-0.023-0.074-0.055-0.077c-0.032-0.003-0.062,0.027-0.064,0.066
				c0,0.004,0,0.006-0.001,0.01c-0.002,0.039,0.023,0.074,0.055,0.077c0.018,0.001,0.034-0.007,0.046-0.022l0.624,0.318
				c-0.022,0.039-0.023,0.09-0.002,0.131c-0.001,0.024,0,0.05,0.005,0.077c-0.052-0.03-0.121-0.047-0.171-0.067
				c-0.133-0.053-0.268-0.099-0.404-0.136c-0.27-0.075-0.545-0.119-0.822-0.131c-0.208-0.009-0.422,0-0.617,0.087
				c-0.094,0.042-0.185,0.104-0.251,0.195c-0.065,0.091-0.104,0.214-0.088,0.333c0.027,0.191,0.179,0.314,0.317,0.414
				c0.177,0.128,0.354,0.256,0.53,0.384c0.048,0.034,0.097,0.07,0.151,0.088c0.1,0.033,0.208,0.003,0.3-0.055
				c0.092-0.058,0.17-0.141,0.248-0.222c0.14-0.145,0.284-0.284,0.431-0.419c-0.12,0.234-0.194,0.529-0.233,0.771
				c-0.04,0.251-0.036,0.515,0.038,0.754c0.093,0.301,0.334,0.481,0.601,0.423c0.271-0.059,0.473-0.334,0.556-0.638
				c0.085-0.314,0.107-0.79-0.009-1.116l0.416,0.579c0.022,0.03,0.06,0.033,0.085,0.008c0.025-0.026,0.028-0.071,0.007-0.101
				l-0.417-0.579c0.252,0.186,0.649,0.233,0.923,0.18c0.264-0.052,0.522-0.249,0.612-0.561c0.088-0.306-0.025-0.618-0.259-0.774
				c-0.187-0.123-0.405-0.167-0.618-0.158c-0.206,0.009-0.461,0.051-0.673,0.158c0.134-0.154,0.271-0.303,0.411-0.446
				c0.079-0.08,0.16-0.16,0.221-0.26c0.062-0.099,0.103-0.223,0.091-0.345c-0.006-0.066-0.029-0.129-0.05-0.191
				c-0.079-0.228-0.159-0.456-0.238-0.684C78.231,13,78.153,12.802,77.999,12.741z"/>
		</g>
		<g>
			<g>
				<g>
					<path fill="#F89838" d="M24.973,24.331c0,0-1.127-0.384-1.246-1.321c0,0,0.02-1.005,0.833-0.505
						C24.56,22.505,25.071,22.939,24.973,24.331z"/>
				</g>
				<g>
					<path fill="#F89838" d="M24.812,24.048c0,0,1.127,0.383,1.246,1.321c0,0-0.02,1.005-0.833,0.505
						C25.225,25.875,24.713,25.44,24.812,24.048z"/>
				</g>
			</g>
			<g>
				<g>
					<path fill="#F89838" d="M24.797,24.347c0,0-0.187-1.382,0.474-1.909c0,0,0.77-0.404,0.736,0.688
						C26.008,23.126,25.895,23.864,24.797,24.347z"/>
				</g>
				<g>
					<path fill="#F89838" d="M24.944,24.053c0,0,0.187,1.382-0.474,1.909c0,0-0.77,0.404-0.736-0.688
						C23.733,25.274,23.846,24.536,24.944,24.053z"/>
				</g>
			</g>
			<g>
				<g>
					<path fill="#F89838" d="M24.771,24.179c0,0,0.877-0.928,1.604-0.543c0,0,0.699,0.56-0.092,1.111
						C26.282,24.746,25.701,25.028,24.771,24.179z"/>
				</g>
				<g>
					<path fill="#F89838" d="M25.057,24.169c0,0-0.877,0.928-1.604,0.544c0,0-0.698-0.561,0.092-1.111
						C23.545,23.602,24.128,23.321,25.057,24.169z"/>
				</g>
			</g>
		</g>
		<g>
			<g>
				<path fill="#21A6C6" d="M40.074,15.292c0-0.083-0.057-0.15-0.117-0.193c-0.086-0.062-0.185-0.095-0.284-0.117
					c-0.329-0.072-0.671-0.023-0.99,0.1c-0.318,0.122-0.615,0.316-0.895,0.532c-0.003,0.003-0.009,0.007-0.015,0.012
					c-0.01-0.026-0.027-0.047-0.048-0.063c0.002-0.014,0.004-0.027,0.007-0.041c0.068-0.115,0.152-0.217,0.247-0.301
					c0.027-0.024,0.055-0.047,0.083-0.069c0.054-0.043,0.11-0.088,0.158-0.143c0.066-0.075,0.117-0.169,0.15-0.27
					c0.014-0.003,0.023-0.018,0.024-0.035c0.006-0.014,0.005-0.032-0.003-0.046c0-0.001,0.001-0.002,0.001-0.004l-0.004-0.001
					c-0.001,0-0.001-0.001-0.001-0.001c-0.021-0.027-0.061-0.018-0.072,0.017c-0.005,0.017-0.003,0.038,0.007,0.054
					c0.005,0.008,0.012,0.015,0.02,0.017c0.001,0,0.001,0,0.001,0c-0.03,0.093-0.078,0.179-0.139,0.248
					c-0.047,0.053-0.102,0.097-0.155,0.14c-0.028,0.022-0.057,0.045-0.084,0.069c-0.084,0.074-0.16,0.163-0.224,0.262
					c0.014-0.124,0.015-0.25,0.002-0.374c-0.005-0.04-0.011-0.081-0.017-0.12c-0.011-0.075-0.023-0.153-0.023-0.23
					c-0.001-0.1,0.017-0.2,0.052-0.292l0.001,0.001c0.007,0.005,0.016,0.006,0.024,0.005c0.016-0.002,0.03-0.015,0.037-0.032
					c0.014-0.033-0.009-0.073-0.039-0.073c-0.001,0-0.001,0-0.002,0l-0.003-0.002c0,0-0.001,0.002-0.001,0.003
					c-0.015,0.003-0.025,0.015-0.03,0.03c-0.009,0.012-0.011,0.031-0.004,0.045c-0.039,0.098-0.059,0.208-0.059,0.316
					c0.001,0.08,0.013,0.158,0.024,0.235c0.006,0.039,0.012,0.079,0.016,0.119c0.016,0.14,0.012,0.283-0.009,0.421
					c-0.007,0.011-0.013,0.023-0.02,0.034c-0.024-0.008-0.049-0.006-0.072,0.002c-0.001-0.009-0.003-0.016-0.003-0.021
					c-0.065-0.392-0.155-0.78-0.303-1.138c-0.148-0.358-0.357-0.686-0.628-0.918c-0.082-0.07-0.171-0.131-0.268-0.162
					c-0.067-0.021-0.148-0.024-0.198,0.034c-0.044,0.052-0.05,0.135-0.045,0.209c0.015,0.232,0.099,0.451,0.211,0.642
					c0.025,0.044,0.054,0.096,0.039,0.146c-0.007,0.023-0.021,0.041-0.035,0.059c-0.048,0.063-0.089,0.133-0.122,0.209
					c-0.02,0.045-0.036,0.093-0.038,0.144c-0.001,0.051,0.015,0.105,0.051,0.132c0.022,0.017,0.05,0.022,0.074,0.037
					s0.046,0.045,0.039,0.076c-0.003,0.014-0.012,0.026-0.02,0.036c-0.046,0.058-0.102,0.111-0.128,0.185
					c-0.012,0.036-0.016,0.077-0.003,0.112c0.022,0.06,0.083,0.079,0.137,0.091c0.228,0.048,0.46,0.069,0.681,0.15
					c0.083,0.031,0.164,0.069,0.241,0.116c-0.076-0.031-0.154-0.055-0.234-0.073c-0.149-0.034-0.304-0.046-0.458-0.041
					c-0.07,0.002-0.141,0.008-0.207,0.035c-0.067,0.027-0.13,0.077-0.162,0.146c-0.056,0.122-0.002,0.261,0.069,0.362
					c0.059,0.083,0.13,0.156,0.21,0.215c0.081,0.06,0.18,0.116,0.199,0.223c0.011,0.061-0.006,0.127,0.006,0.188
					c0.014,0.072,0.073,0.127,0.141,0.131c0.031,0.002,0.069,0,0.08,0.03c0.005,0.014,0.001,0.031,0.003,0.045
					c0.005,0.047,0.061,0.067,0.103,0.049c0.042-0.017,0.072-0.059,0.099-0.099c0.083-0.124,0.155-0.256,0.221-0.391
					c-0.034,0.151-0.063,0.304-0.08,0.462c-0.006,0.051-0.009,0.106,0.01,0.154c0.019,0.049,0.07,0.082,0.101,0.054
					c0.01-0.009,0.017-0.023,0.029-0.029c0.026-0.012,0.051,0.023,0.074,0.047c0.05,0.055,0.124,0.068,0.178,0.03
					c0.044-0.032,0.072-0.093,0.117-0.126c0.078-0.057,0.18-0.012,0.272,0.016c0.091,0.028,0.184,0.038,0.276,0.031
					c0.11-0.009,0.231-0.06,0.265-0.193c0.02-0.076,0.006-0.165-0.025-0.241c-0.03-0.076-0.076-0.141-0.123-0.203
					c-0.105-0.136-0.22-0.26-0.343-0.364c-0.067-0.056-0.136-0.106-0.207-0.15c0.082,0.034,0.162,0.077,0.238,0.127
					c0.202,0.133,0.377,0.317,0.564,0.479c0.044,0.038,0.099,0.077,0.15,0.055c0.031-0.013,0.052-0.046,0.065-0.081
					c0.027-0.074,0.02-0.158,0.022-0.239c0-0.015,0.002-0.03,0.008-0.043c0.014-0.027,0.047-0.03,0.073-0.019
					c0.025,0.01,0.048,0.03,0.074,0.038c0.041,0.012,0.085-0.011,0.115-0.048c0.03-0.036,0.047-0.085,0.06-0.133
					c0.023-0.081,0.036-0.165,0.041-0.25c0.001-0.024,0.002-0.05,0.011-0.071c0.02-0.047,0.071-0.06,0.115-0.068
					c0.192-0.038,0.383-0.118,0.532-0.266C40.027,15.429,40.074,15.367,40.074,15.292z"/>
			</g>
		</g>
		<g>
			<g>
				<path fill="#F89838" d="M95.545,25.462c0.112-0.071,0.243-0.052,0.311,0.052c0.053,0.082,0.053,0.195,0.009,0.295
					c0.062,0.058,0.132,0.132,0.209,0.22c-0.054-0.651-0.042-0.511-0.113-1.58c-0.006-0.094-0.01-0.392-0.017-0.488
					c-0.064-0.91,0.059-2.982,0.217-3.876c0.182-1.024,0.85-2.529,1.628-3.125c0.273-0.21,0.603-0.174,0.856,0.071
					c0.16,0.156,0.369,0.369,0.473,0.583c0.288,0.589,0.422,0.99,0.626,1.626c0.11,0.344,0.345,0.901,0.427,1.257
					c0.09,0.381,0.138,1.446-0.05,2.121c-0.208,0.745-1.441,2.035-1.886,2.646c0.68-0.436,1.674-0.89,2.438-1.02
					c0.243-0.041,0.502-0.063,0.721,0.068c0.083,0.049,0.16,0.123,0.195,0.225c0.036,0.102,0.022,0.234-0.051,0.303
					c-0.143,0.137-0.24,0.293-0.016,0.44c0.098,0.064,0.218,0.101,0.278,0.213c0.105,0.198-0.055,0.466,0.004,0.689
					c0.051,0.186,0.23,0.267,0.386,0.328c0.156,0.061,0.333,0.157,0.366,0.349c0.037,0.216-0.136,0.42-0.112,0.639
					c0.02,0.178,0.161,0.297,0.297,0.375c0.601,0.343,1.332,0.302,1.895,0.728c0.055,0.042,0.111,0.094,0.127,0.169
					c0.02,0.095-0.035,0.192-0.102,0.249c-0.142,0.12-0.335,0.12-0.502,0.056c-0.165-0.064-0.311-0.181-0.462-0.285
					c-0.307-0.211-0.701-0.363-1.002-0.142c-0.291,0.213-0.361,0.669-0.466,1.058c-0.019,0.074-0.043,0.149-0.088,0.204
					c-0.107,0.128-0.289,0.092-0.422,0.007c-0.134-0.086-0.252-0.213-0.399-0.254c-0.164-0.045-0.333,0.024-0.501,0.028
					c-0.361,0.008-0.672-0.282-0.96-0.541c-0.665-0.598-1.388-1.107-2.148-1.513c-0.188-0.101-0.379-0.195-0.579-0.261
					c-0.014-0.005-0.031-0.009-0.048-0.012c0.081,0.117,0.163,0.239,0.244,0.365c0.685,1.054,1.143,2,1.022,2.112
					c-0.12,0.112-0.773-0.653-1.458-1.708c-0.082-0.126-0.16-0.251-0.235-0.373c-0.001,0.02-0.002,0.04-0.002,0.058
					c0.004,0.246,0.033,0.491,0.068,0.734c0.14,0.981,0.373,1.943,0.692,2.862c0.138,0.399,0.296,0.83,0.2,1.246
					c-0.044,0.193-0.144,0.372-0.147,0.572c-0.004,0.181,0.07,0.349,0.107,0.524c0.036,0.175,0.019,0.396-0.111,0.487
					c-0.055,0.039-0.123,0.047-0.187,0.052c-0.341,0.024-0.728-0.008-0.974,0.276c-0.254,0.294-0.229,0.788-0.134,1.195
					c0.046,0.201,0.106,0.399,0.116,0.607c0.01,0.208-0.038,0.432-0.17,0.565c-0.063,0.064-0.155,0.103-0.228,0.056
					c-0.057-0.037-0.085-0.115-0.105-0.189c-0.206-0.757,0.009-1.592-0.119-2.373c-0.029-0.177-0.09-0.37-0.23-0.436
					c-0.171-0.082-0.38,0.067-0.546-0.03c-0.147-0.086-0.181-0.315-0.192-0.511c-0.011-0.195-0.032-0.422-0.171-0.527
					c-0.166-0.126-0.424-0.006-0.557-0.177c-0.077-0.097-0.076-0.245-0.103-0.374c-0.065-0.296-0.215-0.223-0.361-0.091
					c-0.074,0.066-0.185,0.05-0.258-0.017c-0.074-0.067-0.115-0.174-0.134-0.282c-0.052-0.286,0.03-0.581,0.124-0.851
					c0.296-0.851,1.039-1.984,1.561-2.662c-0.606,0.362-1.59,1.544-2.245,1.604c-0.33,0.031-1.994,0.001-2.281-0.196
					c-0.268-0.185-0.501-0.429-0.753-0.642c-0.465-0.394-0.917-0.814-1.323-1.294c-0.147-0.174-0.291-0.36-0.377-0.584
					c-0.137-0.353-0.081-1.284,0.157-1.549c0.677-0.751,1.94-1.042,2.815-0.998c0.764,0.039,2.67,0.48,3.393,0.781
					c0.075,0.031,0.148,0.07,0.222,0.1c0.723,0.287,0.735,0.302,1.38,0.604c-0.052-0.111-0.094-0.211-0.126-0.296
					c-0.091,0.026-0.183-0.002-0.237-0.084c-0.067-0.104-0.05-0.26,0.035-0.372C95.455,25.546,95.471,25.516,95.545,25.462z"/>
			</g>
			<g>
				<g>
					<path fill="#F89838" d="M95.681,25.475c-0.43-0.779-0.808-1.585-1.177-2.407c-0.196-0.436-0.331-0.893-0.435-1.369
						c-0.064-0.301-0.107-0.606-0.127-0.916c-0.082-1.148,1.035-1.662,1.405-0.671c0.037,0.099,0.159,0.013,0.122-0.085
						c-0.164-0.438-0.469-0.582-0.859-0.594c-0.52-0.017-0.697,0.493-0.79,0.994c-0.312,1.686,1.02,3.83,1.739,5.133
						C95.609,25.651,95.731,25.567,95.681,25.475L95.681,25.475z"/>
				</g>
			</g>
			<g>
				<g>
					<path fill="#F89838" d="M95.485,25.526c-1.031-1.273-2.316-2.943-3.875-3.153c-0.881-0.119-1.317,1.229-0.616,1.851
						c0.073,0.065,0.144-0.082,0.071-0.146c-0.856-0.76,0.241-1.657,0.965-1.448c0.434,0.125,0.872,0.455,1.241,0.746
						c0.772,0.608,1.472,1.477,2.113,2.269C95.449,25.724,95.549,25.605,95.485,25.526L95.485,25.526z"/>
				</g>
			</g>
		</g>
		<g>
			<path fill="#ED1F24" d="M51.156,17.879c0.129-0.046,0.206-0.11,0.312-0.103c0.117,0.007,0.225,0.014,0.288-0.147
				c0.092-0.234-0.111-0.683,0.071-0.983c0.301-0.492,0.633-0.288,0.835-0.667c0.232-0.437,0.078-0.716,0.443-1.105
				c0.264-0.281,0.814,0.409,1.088,0.707c-0.122-0.294-0.321-1.099-0.674-1.774c0,0-0.478-1.696-0.318-2.111
				c0.462-1.201,1.485-0.422,1.485-1.14c0-0.765-0.348-1.295-0.106-2.407c0.248-1.14,1.627-0.676,1.627-0.676
				c1.131,0.422,1.273,2.154,1.273,2.154c0.248,0.718,0.636,0.296,0.636,0.296c0.283-0.76,0.743-1.098,0.743-1.098
				c1.238-0.253,1.344,0.845,1.344,0.845c0.46,2.703,0.035,3.378-0.106,4.603c-0.197,1.708-0.994,3.711-1.829,5.23
				c0.046-0.028,0.094-0.054,0.141-0.071c0.17-0.168,0.341-0.335,0.51-0.495c0.575-0.548,1.17-1.115,1.641-1.834
				c0.222-0.339,0.525-0.802,0.652-1.243c0.048-0.165,0.069-0.315,0.065-0.465c-0.015-0.059-0.038-0.117-0.073-0.17
				c-0.097-0.148-0.283-0.265-0.22-0.485c0.055-0.193,0.222-0.156,0.306-0.006c0.085,0.151,0.108,0.354,0.099,0.533
				c-0.008,0.15-0.021,0.323-0.074,0.463c-0.01,0.051-0.023,0.104-0.038,0.158c-0.13,0.454-0.438,0.924-0.663,1.267
				c-0.476,0.727-1.073,1.297-1.652,1.848c-0.142,0.136-0.287,0.276-0.432,0.417c0.063,0.014,0.114,0.072,0.139,0.202
				c0.199-0.107,0.399-0.211,0.594-0.31c0.647-0.33,1.315-0.67,1.902-1.189c0.276-0.244,0.654-0.579,0.864-0.946
				c0.085-0.149,0.138-0.291,0.164-0.443c-0.01-0.117-0.035-0.239-0.056-0.297c-0.041-0.111-0.111-0.178-0.116-0.307
				c-0.004-0.097,0.017-0.194,0.098-0.234c0.195-0.097,0.238,0.156,0.234,0.319c-0.005,0.177-0.039,0.395-0.099,0.576
				c-0.03,0.148-0.085,0.289-0.167,0.432c-0.217,0.379-0.6,0.718-0.88,0.966c-0.593,0.525-1.265,0.868-1.916,1.199
				c-0.202,0.102-0.408,0.209-0.612,0.32c0.006,0.256-0.183,0.501-0.397,0.38c-0.028,0.231-0.326,0.379-0.466,0.504
				c-0.216,0.193-0.347,0.449-0.515,0.697c-0.217,0.318-0.477,0.567-0.788,0.731c-0.171,0.09-0.467,0.298-0.658,0.261
				c-0.056-0.154-0.011-0.315,0.086-0.47c-0.286,0.166-0.522,0.278-0.665,0.351c-0.71,0.359-0.709,0.304-1.382,0.435
				c-0.444,0.086-0.846-0.041-0.957-0.366c-0.041-0.121,0.013-0.198-0.051-0.314c-0.064-0.115-0.286-0.112-0.375-0.224
				c-0.224-0.28-0.12-0.618-0.341-0.948c0,0-0.628-1.278-1.865-1.658c0,0-1.238-0.633-2.44,0.211c0,0-1.131,0.887-1.238-0.211
				c0,0-0.248-0.676,0.99-1.013c0,0,1.485-0.633,3.324,0.465C50.938,18.536,50.632,18.067,51.156,17.879z"/>
		</g>
		<g>
			<path fill-rule="evenodd" clip-rule="evenodd" fill="#0E58A8" d="M13.877,30.34c-0.121-0.13-0.268-0.235-0.417-0.313
				c-0.408-0.214-0.838-0.258-1.301-0.176c0.05-0.092,0.089-0.164,0.128-0.235c0.274-0.503,0.441-1.043,0.394-1.656
				c-0.048-0.628-0.457-0.947-0.952-0.734c-0.108,0.047-0.212,0.115-0.308,0.192c-0.344,0.278-0.589,0.658-0.77,1.1
				c-0.027,0.066-0.054,0.133-0.091,0.222c-0.053-0.131-0.089-0.232-0.133-0.327c-0.226-0.492-0.516-0.914-0.954-1.149
				c-0.55-0.294-1.006,0.053-1.036,0.77c-0.026,0.622,0.159,1.16,0.445,1.662c0.025,0.043,0.047,0.089,0.06,0.114
				c-0.263,0.015-0.521,0.01-0.774,0.048c-0.359,0.054-0.691,0.202-0.954,0.516c-0.287,0.344-0.301,0.798-0.003,1.127
				c0.162,0.178,0.366,0.345,0.575,0.409c0.363,0.111,0.744,0.143,1.138,0.211c0.005-0.008,0.009-0.016,0.014-0.025
				c0.002-0.004-0.001-0.013,0.004,0.027c-0.006-0.001-0.012-0.002-0.017-0.003c-0.033,0.058-0.067,0.116-0.099,0.176
				c-0.256,0.48-0.413,0.992-0.386,1.573c0.032,0.695,0.475,1.042,1.01,0.769c0.456-0.232,0.753-0.664,0.984-1.171
				c0.044-0.097,0.083-0.197,0.132-0.313c0.048,0.117,0.083,0.21,0.123,0.3c0.24,0.527,0.545,0.978,1.03,1.201
				c0.504,0.231,0.931-0.086,0.957-0.728c0.011-0.287-0.007-0.592-0.08-0.864c-0.093-0.348-0.254-0.671-0.385-1.004
				c-0.007,0.003,0.003-0.006,0.014-0.005c0.086,0.004,0.172,0.013,0.258,0.015c0.496,0.011,0.967-0.09,1.363-0.478
				C14.21,31.233,14.227,30.717,13.877,30.34z"/>
		</g>
		<g>
			<path fill-rule="evenodd" clip-rule="evenodd" fill="#419950" d="M27.975,31.922c-0.075-0.08-0.165-0.146-0.258-0.194
				c-0.252-0.132-0.519-0.159-0.805-0.109c0.031-0.057,0.055-0.101,0.079-0.146c0.17-0.311,0.273-0.645,0.244-1.025
				c-0.03-0.389-0.282-0.586-0.589-0.454c-0.067,0.029-0.132,0.071-0.191,0.119c-0.213,0.172-0.365,0.407-0.476,0.681
				c-0.017,0.041-0.034,0.082-0.056,0.137c-0.033-0.081-0.055-0.144-0.082-0.203c-0.14-0.305-0.319-0.566-0.591-0.711
				c-0.34-0.182-0.622,0.033-0.641,0.476c-0.016,0.385,0.098,0.718,0.275,1.028c0.015,0.027,0.029,0.055,0.037,0.07
				c-0.163,0.009-0.322,0.006-0.479,0.03c-0.222,0.033-0.428,0.125-0.59,0.319c-0.178,0.213-0.186,0.494-0.002,0.697
				c0.1,0.11,0.227,0.213,0.356,0.253c0.225,0.069,0.46,0.089,0.704,0.131c0.003-0.005,0.006-0.01,0.009-0.015
				c0.002-0.002-0.001-0.008,0.002,0.017c-0.004-0.001-0.007-0.001-0.011-0.002c-0.02,0.036-0.041,0.072-0.061,0.109
				c-0.158,0.297-0.256,0.614-0.239,0.973c0.02,0.43,0.294,0.644,0.625,0.476c0.282-0.144,0.466-0.411,0.609-0.725
				c0.027-0.06,0.051-0.122,0.082-0.194c0.03,0.072,0.051,0.13,0.076,0.186c0.148,0.326,0.337,0.605,0.638,0.743
				c0.312,0.143,0.576-0.053,0.593-0.451c0.007-0.177-0.005-0.366-0.049-0.534c-0.058-0.215-0.157-0.415-0.238-0.621
				c-0.005,0.002,0.002-0.004,0.008-0.003c0.053,0.002,0.106,0.008,0.159,0.009c0.307,0.007,0.598-0.056,0.843-0.296
				C28.181,32.475,28.192,32.155,27.975,31.922z"/>
		</g>
		<g>
			<path fill-rule="evenodd" clip-rule="evenodd" fill="#EC2227" d="M88.227,34.963c-0.075-0.08-0.165-0.146-0.258-0.194
				c-0.252-0.132-0.519-0.159-0.805-0.109c0.031-0.057,0.055-0.101,0.079-0.146c0.17-0.311,0.273-0.645,0.244-1.025
				c-0.03-0.389-0.282-0.586-0.589-0.454c-0.067,0.029-0.132,0.071-0.191,0.119c-0.213,0.172-0.365,0.407-0.476,0.681
				c-0.017,0.041-0.034,0.082-0.056,0.137c-0.033-0.081-0.055-0.144-0.082-0.203c-0.14-0.305-0.319-0.566-0.591-0.711
				c-0.34-0.182-0.622,0.033-0.641,0.476c-0.016,0.385,0.098,0.718,0.275,1.028c0.015,0.027,0.029,0.055,0.037,0.07
				c-0.163,0.009-0.322,0.006-0.479,0.03c-0.222,0.033-0.428,0.125-0.59,0.319c-0.178,0.213-0.186,0.494-0.002,0.697
				c0.1,0.11,0.227,0.213,0.356,0.253c0.225,0.069,0.46,0.089,0.704,0.131c0.003-0.005,0.006-0.01,0.009-0.015
				c0.002-0.002-0.001-0.008,0.002,0.017c-0.004-0.001-0.007-0.001-0.011-0.002c-0.02,0.036-0.041,0.072-0.061,0.109
				c-0.158,0.297-0.256,0.614-0.239,0.973c0.02,0.43,0.294,0.644,0.625,0.476c0.282-0.144,0.466-0.411,0.609-0.725
				c0.027-0.06,0.051-0.122,0.082-0.194c0.03,0.072,0.051,0.13,0.076,0.186c0.148,0.326,0.337,0.605,0.638,0.743
				c0.312,0.143,0.576-0.053,0.593-0.451c0.007-0.177-0.005-0.366-0.049-0.534c-0.058-0.215-0.157-0.415-0.238-0.621
				c-0.005,0.002,0.002-0.004,0.008-0.003c0.053,0.002,0.106,0.008,0.159,0.009c0.307,0.007,0.598-0.056,0.843-0.296
				C88.433,35.515,88.444,35.196,88.227,34.963z"/>
		</g>
		<g>
			<path fill-rule="evenodd" clip-rule="evenodd" fill="#862880" d="M70.189,25.078c-0.045-0.048-0.099-0.087-0.154-0.116
				c-0.151-0.079-0.311-0.095-0.482-0.065c0.019-0.034,0.033-0.061,0.047-0.087c0.102-0.187,0.164-0.386,0.146-0.613
				c-0.018-0.233-0.169-0.351-0.352-0.272c-0.04,0.017-0.079,0.043-0.114,0.071c-0.127,0.103-0.219,0.244-0.285,0.408
				c-0.01,0.025-0.02,0.049-0.033,0.082c-0.02-0.049-0.033-0.086-0.049-0.121c-0.084-0.182-0.191-0.339-0.354-0.425
				c-0.204-0.109-0.373,0.02-0.384,0.285c-0.01,0.231,0.059,0.43,0.165,0.616c0.009,0.016,0.017,0.033,0.022,0.042
				c-0.098,0.005-0.193,0.004-0.287,0.018c-0.133,0.02-0.256,0.075-0.353,0.191c-0.106,0.127-0.112,0.296-0.001,0.417
				c0.06,0.066,0.136,0.128,0.213,0.151c0.135,0.041,0.275,0.053,0.421,0.078c0.002-0.003,0.004-0.006,0.005-0.009
				c0.001-0.001,0-0.005,0.001,0.01c-0.002,0-0.004-0.001-0.007-0.001c-0.012,0.022-0.025,0.043-0.037,0.065
				c-0.094,0.178-0.153,0.368-0.143,0.583c0.012,0.257,0.176,0.386,0.374,0.285c0.169-0.086,0.279-0.246,0.365-0.434
				c0.016-0.036,0.031-0.073,0.049-0.116c0.018,0.043,0.031,0.078,0.046,0.111c0.089,0.195,0.202,0.362,0.382,0.445
				c0.187,0.086,0.345-0.032,0.355-0.27c0.004-0.106-0.003-0.219-0.03-0.32c-0.035-0.129-0.094-0.248-0.143-0.372
				c-0.003,0.001,0.001-0.002,0.005-0.002c0.032,0.001,0.064,0.005,0.095,0.005c0.184,0.004,0.358-0.033,0.505-0.177
				C70.313,25.409,70.319,25.217,70.189,25.078z"/>
		</g>
		<g>
			<path fill-rule="evenodd" clip-rule="evenodd" fill="#F89838" d="M87.808,46.179c-0.045-0.048-0.099-0.087-0.154-0.116
				c-0.151-0.079-0.311-0.095-0.482-0.065c0.018-0.034,0.033-0.061,0.047-0.087c0.102-0.187,0.164-0.386,0.146-0.613
				c-0.018-0.233-0.169-0.351-0.352-0.272c-0.04,0.017-0.079,0.043-0.114,0.071c-0.127,0.103-0.218,0.244-0.285,0.408
				c-0.01,0.025-0.02,0.049-0.033,0.082c-0.02-0.048-0.033-0.086-0.049-0.121c-0.084-0.182-0.191-0.339-0.354-0.425
				c-0.204-0.109-0.373,0.02-0.384,0.285c-0.01,0.231,0.059,0.43,0.165,0.616c0.009,0.016,0.017,0.033,0.022,0.042
				c-0.098,0.005-0.193,0.004-0.287,0.018c-0.133,0.02-0.256,0.075-0.353,0.191c-0.106,0.127-0.112,0.296-0.001,0.418
				c0.06,0.066,0.136,0.128,0.213,0.151c0.135,0.041,0.275,0.053,0.421,0.078c0.002-0.003,0.004-0.006,0.005-0.009
				c0.001-0.001,0-0.005,0.001,0.01c-0.002,0-0.004-0.001-0.007-0.001c-0.012,0.022-0.025,0.043-0.037,0.065
				c-0.094,0.178-0.153,0.368-0.143,0.583c0.012,0.258,0.176,0.386,0.374,0.285c0.169-0.086,0.279-0.246,0.365-0.434
				c0.016-0.036,0.031-0.073,0.049-0.116c0.018,0.043,0.031,0.078,0.046,0.111c0.089,0.195,0.202,0.362,0.382,0.445
				c0.187,0.086,0.345-0.032,0.355-0.27c0.004-0.106-0.003-0.219-0.03-0.32c-0.035-0.129-0.094-0.248-0.143-0.372
				c-0.003,0.001,0.001-0.002,0.005-0.002c0.032,0.001,0.064,0.005,0.095,0.005c0.184,0.004,0.358-0.033,0.505-0.177
				C87.932,46.509,87.938,46.318,87.808,46.179z"/>
		</g>
		<g>
			<g>
				<path fill="#7E277D" d="M41.574,24.652c0,0-0.123-1-1.093-1.317c0,0-1.041-0.292-1.389,1.146c0,0-0.122,0.536-0.183,0.976
					c0,0-0.204,1.098-0.552,1.366c0,0-0.408-0.707-0.735-0.537c0,0-0.265,0.122,0.347,0.707c0,0-0.306-0.024-0.612-0.317
					c0,0-0.143-0.171-0.266,0.073c0,0-0.122,0.293,0.225,0.439c0,0,0.449,0.171,0.756-0.049c0,0-0.092,0.049-0.306,0.219
					c0,0-0.133,0.378,0.245,0.22c0,0,0.194-0.183,0.664-0.305c0,0,1.991,0.085,2.746-1.476
					C41.421,25.798,41.656,25.359,41.574,24.652z"/>
			</g>
			<g>
				<path fill="#E76624" d="M41.401,24.128l0.225-0.354h-0.194l0.051-0.317l-0.419,0.219C41.064,23.676,41.197,23.774,41.401,24.128
					z"/>
			</g>
			<g>
				<ellipse fill="#FFFFFF" cx="40.364" cy="24.194" rx="0.24" ry="0.287"/>
			</g>
			<g>
				<ellipse cx="40.289" cy="24.207" rx="0.115" ry="0.137"/>
			</g>
			<g>
				<path fill="#7E277D" d="M38.939,25.379c0,0-0.477,0.391-0.664,0.145c0,0-0.099-0.122,0.229-0.369c0,0-0.404,0.182-0.364-0.132
					c0,0-0.002-0.113,0.181-0.192c0,0-0.487-0.171-0.135-0.5c0,0,0.394-0.229,0.848,0.492
					C39.035,24.824,38.974,25.244,38.939,25.379z"/>
			</g>
			<g>
				<g>
					<g>
						<path d="M40.244,27.948c-0.137-0.256-0.37-0.207-0.59-0.204c-0.035,0.001-0.035-0.064,0-0.064
							c0.243-0.003,0.487-0.042,0.636,0.235C40.309,27.951,40.263,27.983,40.244,27.948L40.244,27.948z"/>
					</g>
				</g>
				<g>
					<g>
						<path d="M40.092,28.009c-0.044-0.117-0.117-0.241-0.229-0.266c-0.034-0.008-0.02-0.069,0.014-0.062
							c0.125,0.027,0.212,0.164,0.261,0.295C40.151,28.015,40.105,28.047,40.092,28.009L40.092,28.009z"/>
					</g>
				</g>
				<g>
					<g>
						<path d="M39.925,28.026c-0.009-0.045-0.015-0.092-0.025-0.137c-0.01-0.045-0.041-0.076-0.07-0.105
							c-0.026-0.027,0.012-0.072,0.038-0.045c0.031,0.031,0.061,0.065,0.077,0.11c0.017,0.05,0.021,0.107,0.032,0.16
							C39.985,28.049,39.934,28.066,39.925,28.026L39.925,28.026z"/>
					</g>
				</g>
				<g>
					<g>
						<path d="M39.801,27.731c-0.014-0.201-0.004-0.402-0.015-0.604c-0.004-0.059,0.073-0.058,0.077,0
							c0.012,0.201,0.001,0.402,0.015,0.604C39.881,27.79,39.805,27.789,39.801,27.731L39.801,27.731z"/>
					</g>
				</g>
			</g>
			<g>
				<g>
					<g>
						<path d="M40.806,27.924c-0.137-0.256-0.37-0.207-0.59-0.204c-0.035,0-0.035-0.064,0-0.064
							c0.243-0.003,0.487-0.043,0.636,0.235C40.871,27.926,40.824,27.959,40.806,27.924L40.806,27.924z"/>
					</g>
				</g>
				<g>
					<g>
						<path d="M40.653,27.985c-0.044-0.117-0.117-0.241-0.229-0.266c-0.034-0.007-0.019-0.069,0.014-0.062
							c0.125,0.027,0.212,0.164,0.261,0.295C40.713,27.99,40.666,28.022,40.653,27.985L40.653,27.985z"/>
					</g>
				</g>
				<g>
					<g>
						<path d="M40.487,28.002c-0.01-0.045-0.015-0.092-0.025-0.137c-0.01-0.045-0.041-0.076-0.07-0.105
							c-0.027-0.027,0.012-0.072,0.038-0.046c0.031,0.031,0.062,0.065,0.077,0.111c0.017,0.05,0.022,0.107,0.032,0.16
							C40.547,28.025,40.495,28.042,40.487,28.002L40.487,28.002z"/>
					</g>
				</g>
				<g>
					<g>
						<path d="M40.362,27.707c-0.017-0.274,0-0.549-0.015-0.823c-0.003-0.059,0.074-0.059,0.077,0
							c0.015,0.274-0.002,0.549,0.015,0.823C40.442,27.766,40.366,27.765,40.362,27.707L40.362,27.707z"/>
					</g>
				</g>
			</g>
		</g>
		<g>
			<g>
				<path fill="#7E277D" d="M74.615,30.519c0,0,0.082-0.664,0.725-0.874c0,0,0.691-0.194,0.922,0.761c0,0,0.081,0.356,0.122,0.647
					c0,0,0.135,0.728,0.366,0.906c0,0,0.271-0.469,0.488-0.356c0,0,0.176,0.081-0.23,0.469c0,0,0.203-0.016,0.406-0.21
					c0,0,0.095-0.113,0.177,0.049c0,0,0.081,0.194-0.149,0.291c0,0-0.298,0.113-0.501-0.032c0,0,0.061,0.032,0.203,0.146
					c0,0,0.088,0.251-0.163,0.146c0,0-0.129-0.121-0.44-0.202c0,0-1.322,0.057-1.823-0.979
					C74.716,31.279,74.561,30.988,74.615,30.519z"/>
			</g>
			<g>
				<path fill="#7F277A" d="M74.73,30.171l-0.149-0.235h0.129l-0.034-0.211l0.278,0.146C74.954,29.871,74.865,29.936,74.73,30.171z"
					/>
			</g>
			<g>
				<ellipse fill="#FFFFFF" cx="75.418" cy="30.215" rx="0.159" ry="0.19"/>
			</g>
			<g>
				<ellipse cx="75.467" cy="30.223" rx="0.076" ry="0.091"/>
			</g>
			<g>
				<path fill="#7F277A" d="M76.363,31.001c0,0,0.317,0.26,0.441,0.096c0,0,0.065-0.081-0.152-0.245c0,0,0.268,0.121,0.241-0.087
					c0,0,0.001-0.075-0.12-0.127c0,0,0.323-0.114,0.09-0.332c0,0-0.262-0.152-0.563,0.326C76.3,30.633,76.34,30.911,76.363,31.001z"
					/>
			</g>
			<g>
				<g>
					<g>
						<path d="M75.497,32.706c0.091-0.17,0.246-0.137,0.391-0.135c0.023,0,0.023-0.042,0-0.042
							c-0.161-0.002-0.323-0.028-0.422,0.156C75.454,32.708,75.485,32.729,75.497,32.706L75.497,32.706z"/>
					</g>
				</g>
				<g>
					<g>
						<path d="M75.599,32.747c0.029-0.078,0.078-0.16,0.152-0.176c0.023-0.005,0.013-0.046-0.009-0.041
							c-0.083,0.018-0.141,0.109-0.173,0.196C75.559,32.75,75.59,32.772,75.599,32.747L75.599,32.747z"/>
					</g>
				</g>
				<g>
					<g>
						<path d="M75.709,32.758c0.006-0.03,0.01-0.061,0.017-0.091c0.007-0.03,0.028-0.05,0.047-0.07
							c0.017-0.018-0.008-0.048-0.025-0.03c-0.021,0.021-0.041,0.043-0.051,0.073c-0.011,0.033-0.014,0.071-0.021,0.106
							C75.67,32.773,75.704,32.784,75.709,32.758L75.709,32.758z"/>
					</g>
				</g>
				<g>
					<g>
						<path d="M75.792,32.562c0.009-0.133,0.002-0.267,0.01-0.401c0.002-0.039-0.048-0.039-0.051,0
							c-0.008,0.134-0.001,0.267-0.01,0.401C75.739,32.601,75.789,32.601,75.792,32.562L75.792,32.562z"/>
					</g>
				</g>
			</g>
			<g>
				<g>
					<g>
						<path d="M75.125,32.69c0.091-0.17,0.246-0.137,0.391-0.135c0.023,0,0.023-0.042,0-0.042c-0.161-0.002-0.323-0.028-0.422,0.156
							C75.082,32.692,75.112,32.713,75.125,32.69L75.125,32.69z"/>
					</g>
				</g>
				<g>
					<g>
						<path d="M75.226,32.73c0.029-0.077,0.078-0.16,0.152-0.176c0.023-0.005,0.013-0.046-0.009-0.041
							c-0.083,0.018-0.141,0.109-0.173,0.196C75.187,32.734,75.217,32.756,75.226,32.73L75.226,32.73z"/>
					</g>
				</g>
				<g>
					<g>
						<path d="M75.337,32.742c0.006-0.03,0.01-0.061,0.017-0.091c0.007-0.03,0.027-0.05,0.047-0.07
							c0.018-0.018-0.008-0.048-0.025-0.03c-0.02,0.021-0.041,0.043-0.051,0.073c-0.012,0.033-0.014,0.071-0.021,0.106
							C75.297,32.757,75.331,32.768,75.337,32.742L75.337,32.742z"/>
					</g>
				</g>
				<g>
					<g>
						<path d="M75.42,32.546c0.012-0.182,0-0.364,0.01-0.546c0.002-0.039-0.049-0.039-0.051,0c-0.01,0.182,0.001,0.364-0.01,0.546
							C75.366,32.585,75.417,32.585,75.42,32.546L75.42,32.546z"/>
					</g>
				</g>
			</g>
		</g>
	</g>
</g>
</svg>
